<?xml version="1.0" encoding="UTF-8"?>
<svg id="_Слой_2" data-name="Слой 2" xmlns="http://www.w3.org/2000/svg" viewBox="0 0 4751.03 6236.65">
  <defs>
    <style>
      .cls-1 {
        fill: #efff1f;
      }

      .cls-2 {
        fill: #fff;
      }

      .cls-3, .cls-4, .cls-5 {
        fill: aqua;
      }

      .cls-3, .cls-6, .cls-7, .cls-8, .cls-9, .cls-10, .cls-11, .cls-5, .cls-12, .cls-13 {
        stroke-linecap: round;
        stroke-linejoin: round;
      }

      .cls-3, .cls-6, .cls-7, .cls-9, .cls-10, .cls-5, .cls-12, .cls-13 {
        stroke: #000;
      }

      .cls-3, .cls-6, .cls-7, .cls-9, .cls-12, .cls-13 {
        stroke-width: 2.27px;
      }

      .cls-14 {
        fill: #003dbf;
      }

      .cls-6 {
        fill: #d3950b;
      }

      .cls-15 {
        font-size: 87px;
      }

      .cls-15, .cls-16, .cls-17 {
        font-family: ScoreCloudSS-Regular, ScoreCloudSS;
      }

      .cls-7, .cls-8, .cls-10, .cls-11 {
        fill: none;
      }

      .cls-18 {
        fill: #ebc800;
      }

      .cls-16 {
        font-size: 67.66px;
      }

      .cls-8 {
        stroke: #ebc800;
      }

      .cls-8, .cls-10, .cls-11, .cls-5 {
        stroke-width: 2.27px;
      }

      .cls-9 {
        fill: #7d9e9d;
      }

      .cls-19 {
        fill: #287100;
      }

      .cls-20 {
        fill: #007ad4;
      }

      .cls-21, .cls-12 {
        fill: #f7931e;
      }

      .cls-17 {
        font-size: 102.27px;
      }

      .cls-22 {
        fill: #971fff;
      }

      .cls-11 {
        stroke: #fff;
      }

      .cls-23 {
        fill: #1d7bd8;
      }

      .cls-24 {
        fill: #0062c9;
      }

      .cls-13 {
        fill: #3f9aff;
      }

      .cls-25 {
        fill: #8ac900;
      }
    </style>
  </defs>
  <rect class="cls-23" x="12.87" y="5024.77" width="369.95" height="360.51"/>
  <rect class="cls-23" x="386.04" y="5639.48" width="796.27" height="583.63"/>
  <rect class="cls-23" x="1186.14" y="5463.37" width="3550.24" height="545.97"/>
  <rect class="cls-23" x="389.32" y="97" width="793.15" height="4909.61"/>
  <rect class="cls-23" x="1759.61" y="5023.72" width="2976.77" height="282.01"/>
  <rect class="cls-22" x="759.19" y="221.69" width="419.36" height="372.32"/>
  <polygon class="cls-21" points="1169.32 2215.58 759.13 2212.27 759.92 2047.49 1186.02 2047.49 1169.32 2215.58"/>
  <rect class="cls-22" x="1186.14" y="5018.18" width="573.47" height="294.76"/>
  <rect class="cls-4" x="1168.89" y="128.74" width="26.41" height="4877.76"/>
  <polygon class="cls-4" points="1195.3 136.24 1169.93 134.72 1169.32 85.58 1195.61 113.54 1195.3 136.24"/>
  <polyline class="cls-7" points="1169.32 4769.37 1169.32 85.58 1195.31 113.53"/>
  <rect class="cls-4" x="3986.71" y="5441.12" width="746.43" height="33.3"/>
  <path class="cls-3" d="m4014.87,5473.8c8.52,2.77,708.02,0,708.02,0"/>
  <rect class="cls-4" x="746.09" y="210.47" width="427.12" height="20.51"/>
  <rect class="cls-4" x="746.09" y="210.46" width="23.96" height="1995.95"/>
  <rect class="cls-4" x="745.3" y="2496.34" width="24.74" height="2271.01"/>
  <rect class="cls-4" x="1169.37" y="5440.83" width="2492.04" height="34.83"/>
  <rect class="cls-4" x="1169.37" y="5440.83" width="25.92" height="552.3"/>
  <line class="cls-7" x1="1195.29" y1="5475.67" x2="3661.41" y2="5475.67"/>
  <rect class="cls-4" x="1170.41" y="5006.48" width="3551.8" height="34.21"/>
  <polyline class="cls-7" points="4722.89 5040.82 4012.8 5040.82 3988.8 5040.82 3988.78 5040.82 3658.46 5040.82 3658.41 5040.82 3634.48 5040.82 3634.46 5040.82 1755.66 5040.82 1731.66 5040.82 1483.43 5040.82 1483.39 5040.82 1459.46 5040.82 1459.43 5040.82 1195.3 5040.82"/>
  <path class="cls-3" d="m1750.13,5473.22v520.21h-28.14c.11-172.51.23-345.48.36-518.03v-34.87l27.77,32.68Z"/>
  <path class="cls-3" d="m2014.13,5473.52v520.21h-28.14c.11-172.51.23-345.48.36-518.03v-34.87l27.77,32.68Z"/>
  <path class="cls-3" d="m2262.48,5473.52v520.21h-28.14c.11-172.51.23-345.48.36-518.03v-34.87l27.77,32.68Z"/>
  <path class="cls-3" d="m2753.94,5473.65v520.21h-28.14c.11-172.51.23-345.48.36-518.03v-34.87l27.77,32.68Z"/>
  <path class="cls-3" d="m3106.74,5473.65v520.21h-28.14c.11-172.51.23-345.48.36-518.03v-34.87l27.77,32.68Z"/>
  <path class="cls-3" d="m4382.95,5473.65v520.21h-28.14c.11-172.51.23-345.48.36-518.03v-34.87l27.77,32.68Z"/>
  <path class="cls-3" d="m24.61,5372.59v-331.83h350.72c-.12-.24-.18-11.22-.24-31.99H1.14v613.41h23.47v-224.21"/>
  <line class="cls-7" x1="1169.32" y1="5006.5" x2="1132.77" y2="5006.5"/>
  <rect class="cls-3" x="1169.32" y="5006.48" width="25.98" height=".02"/>
  <rect class="cls-3" x="1459.43" y="5040.82" width=".02" height=".02"/>
  <polyline class="cls-7" points="1483.43 5040.82 1483.43 5040.84 1483.41 5040.84 1483.39 5040.82"/>
  <polygon class="cls-3" points="3634.46 5006.57 3634.48 5006.59 3634.48 5040.84 3634.46 5040.84 3634.46 5006.57"/>
  <polygon class="cls-3" points="3988.78 5040.82 3988.78 5040.84 3658.44 5040.84 3650.48 5029.43 3658.46 5040.82 3988.78 5040.82"/>
  <line class="cls-7" x1="4076.37" y1="5475.39" x2="4071.51" y2="5475.39"/>
  <polygon class="cls-3" points="4722.89 5293.43 4722.89 5329.98 4279.57 5329.93 4050.39 5329.93 3963.32 5329.91 3911.93 5329.91 3561.23 5329.88 3508.77 5329.88 2973.28 5329.84 2968.28 5329.84 2925.78 5329.82 2769.77 5329.82 2408.56 5329.77 2356.01 5329.77 2143.5 5329.75 1894.12 5329.75 1851.48 5329.73 1667.22 5329.73 1280.47 5329.68 1194.35 5329.68 1194.35 5329.66 1169.37 5293.43 1169.37 5029.43 1044.84 5029.43 1044.84 5029.37 1169.37 5029.37 1169.37 5006.57 1195.3 5040.82 1195.23 5293.43 4722.89 5293.43"/>
  <path class="cls-3" d="m4749.89,5040.82v986.45c-1184.51.07-2369.01.18-3553.57.25l-26.96-34.39h25.93l2465.75.59h353.84c89.91,0,179.92.14,269.84.14h28.25c136.67,0,273.24,0,409.91.11v-987.36c9,12.8,18,21.43,27,34.21Z"/>
  <polyline class="cls-7" points="1169.37 5440.83 1195.29 5475.67 1195.29 5993.13"/>
  <polyline class="cls-7" points="639.13 565.13 639.13 500.01 639.13 495.62 639.13 487.21 639.13 476.8 639.13 474.12 639.13 470.94 639.13 468.03 639.13 457.85"/>
  <path class="cls-13" d="m639.15,2705.6v160.06h-.02v-92.69h-.18c-8.5,0-15.39-6.89-15.39-15.39v-24.41c0-8.5,6.89-15.39,15.39-15.39h.18v-12.18h.02Z"/>
  <path class="cls-13" d="m639.15,3107.4v395.68h-.02v-41.23h-.18c-8.5,0-15.39-6.89-15.39-15.39v-24.39c0-8.5,6.89-15.41,15.39-15.41h.18v-299.27h.02Z"/>
  <path class="cls-9" d="m4279.89,5329.91h-229.22l-75.44-.02h-63l-350.68-.02h-52.5l-535.44-.05h-5l-42.55-.02h-155.99l-361.18-.05h-52.57l-212.49-.02h-249.38l-42.68-.02h-184.24l-386.73-.05h-86.14l-24.98-36.23.45-20.61-124.43-2.8-.55-240.59,124.53-.07-.05-23.98-.16-201.85v-16.18h-504.37l-.02-.02-1.05-.86-.57-.48v206.11s-24.02.47-24.02.47h-235.9v38.32l.05,9.86.11,138.03v4.48l.02,25.07v20.66l.02,4.45.09,130.19-.43,107.94-.02,4.45-.02,5.82v.84l-.05,12.98-.05,9.07-.02,9.68v.93l-.05,3.91v7.11l-.36,90.1-.02,5.64h766.87v-181.28h798.14v-.43l.27.43h1693.56l.07,3.73v.14l.57,30.98v518.06h324.73v-552.6h736.18v-111.17l-443.3-.04Zm-3460.33-541.92h347.41v124.58h-347.41v-124.58Z"/>
  <rect class="cls-23" x="389.32" y="4982.48" width="258.54" height="251.94"/>
  <polyline class="cls-7" points="2320.44 5476.76 2325.69 5476.76 2366.95 5476.76 2372.17 5476.76"/>
  <polygon class="cls-4" points="639.16 5244 639.16 5007.12 639.16 5006.7 639.16 5006.68 639.16 4993.07 639.16 4979.54 639.16 4972.61 639.16 4957.97 639.16 4869.26 639.16 4864.84 639.16 4824.71 639.16 4820.11 639.16 4818.84 639.16 4814.42 639.16 4811.28 639.16 4800.3 639.16 4797.5 639.16 4794.14 639.16 4791.1 639.16 4780.38 639.16 4771.3 639.16 4767.3 639.16 4767.28 639.16 4741.47 639.16 4720.95 639.16 4406.83 639.16 4358.81 639.16 4354.41 639.16 4308.16 639.16 4303.76 639.16 4078.17 639.16 4030.04 639.16 4025.65 639.16 3979.25 639.16 3974.87 639.16 3949.17 639.16 3902.83 639.16 3898.44 639.16 3890.04 639.16 3879.61 639.16 3876.93 639.16 3873.75 639.16 3870.85 639.16 3860.65 639.16 3852.02 639.16 3847.64 639.16 3832.89 639.16 3503.44 639.16 3462.21 639.16 3457.83 639.16 3449.43 639.16 3438.99 639.16 3436.31 639.16 3433.13 639.16 3430.23 639.16 3420.03 639.16 3411.4 639.16 3407.01 639.16 3394.22 639.16 3109.85 639.16 3107.71 639.16 3105.48 639.16 3097.07 639.16 3086.64 639.16 3083.97 639.16 3080.78 639.16 3077.89 639.16 3067.68 639.16 3059.05 639.16 3054.68 639.16 3032.58 639.16 3029.7 639.16 2920.17 639.16 2915.8 639.16 2869.4 639.16 2865.95 639.16 2865.02 639.16 2859 639.16 2857.33 639.16 2773.25 639.16 2768.87 639.16 2760.45 639.16 2750.03 639.16 2747.35 639.16 2744.17 639.16 2741.27 639.16 2731.06 639.16 2722.44 639.16 2718.06 639.16 2705.87 639.16 2595.88 639.16 2591.49 639.16 2583.08 639.16 2572.66 639.16 2569.98 639.16 2566.8 639.16 2563.89 639.16 2553.68 639.16 2545.06 639.16 2540.68 639.16 2517.14 639.16 2516.1 639.16 2216.87 639.16 2212.49 639.16 2204.08 639.16 2201.46 639.16 2193.66 639.16 2190.98 639.16 2187.8 639.16 2184.9 639.16 2177.32 639.16 2174.68 639.16 2166.06 639.16 2161.67 639.16 2143.63 639.16 1918.7 639.16 1914.32 639.16 1905.92 639.16 1895.49 639.16 1892.82 639.16 1889.63 639.16 1886.73 639.16 1876.52 639.16 1867.89 639.16 1863.52 639.16 1847.64 639.16 1844.67 639.16 1644.78 639.16 1640.39 639.16 1631.99 639.16 1629.36 639.16 1618.88 639.16 1615.7 639.16 1605.22 639.16 1602.6 639.16 1593.97 639.16 1589.58 639.16 1574.81 639.16 1330.9 639.16 1326.48 639.16 1280.46 639.16 1276.05 639.16 1262.34 639.16 940.47 639.16 936.07 639.16 889.82 639.16 885.41 639.16 866.3 639.16 585.66 639.16 565.19 639.16 521.37 639.16 516.75 639.16 507.92 639.16 500.05 639.16 496.96 639.16 495.66 639.16 494.15 639.16 490.8 639.16 487.75 639.16 487.26 639.16 477.04 639.16 477.03 639.16 476.83 639.16 474.16 639.16 470.97 639.16 468.07 639.16 467.96 639.16 463.36 639.16 457.88 639.16 457.87 639.16 449.24 639.16 444.87 639.16 437.35 639.16 375.85 639.16 177.39 639.16 173.01 639.16 126.6 639.16 122.21 639.16 113.53 639.16 97 639.16 82.98 639.16 82.94 639.16 82.93 663.16 82.93 663.16 83.06 663.16 83.07 663.16 97 663.16 97.72 663.16 113.53 663.16 113.54 663.16 114.62 663.16 122.2 663.16 126.59 663.16 135.22 663.16 164.62 663.16 173.02 663.16 177.4 663.16 444.87 663.16 449.24 663.16 457.87 663.16 487.26 663.16 495.66 663.16 500.05 663.16 885.34 663.16 889.73 663.16 898.36 663.16 927.76 663.16 936.16 663.16 940.54 663.16 1275.89 663.16 1280.25 663.16 1288.88 663.16 1318.28 663.16 1326.69 663.16 1331.06 663.16 1589.89 663.16 1594.41 663.16 1639.95 663.16 1644.47 663.16 1863.52 663.16 1867.89 663.16 1876.52 663.16 1905.92 663.16 1914.32 663.16 1918.7 663.16 2161.85 663.16 2166.3 663.16 2212.25 663.16 2216.69 663.16 2540.69 663.16 2545.07 663.16 2591.48 663.16 2595.87 663.16 2718.06 663.16 2722.44 663.16 2731.06 663.16 2760.45 663.16 2768.87 663.16 2773.25 663.16 2865.01 663.16 2869.39 663.16 2878.01 663.16 2907.4 663.16 2915.81 663.16 2920.18 663.16 3054.69 663.16 3059.06 663.16 3105.47 663.16 3109.84 663.16 3407.01 663.16 3411.4 663.16 3420.03 663.16 3449.43 663.16 3457.83 663.16 3462.21 663.16 3847.64 663.16 3852.02 663.16 3860.65 663.16 3890.04 663.16 3898.44 663.16 3902.83 663.16 3974.86 663.16 3979.24 663.16 3987.86 663.16 4017.25 663.16 4025.66 663.16 4030.05 663.16 4303.69 663.16 4308.07 663.16 4316.69 663.16 4346.09 663.16 4354.5 663.16 4358.88 663.16 4767.4 663.16 4786.49 663.16 4814.26 663.16 4818.63 663.16 4827.25 663.16 4856.64 663.16 4865.05 663.16 4869.42 663.16 4993.07 663.16 5007.12 663.16 5244 639.16 5244"/>
  <polygon class="cls-4" points="375.38 686.46 375.38 1295.28 375.38 1957.13 375.38 1993.4 375.38 2376.26 375.38 2412.53 375.38 3560.1 375.38 3664.94 375.38 3726.08 375.38 4376.54 375.38 4412.81 375.38 4458.99 375.38 4490.22 375.38 4795.66 375.38 4831.93 375.38 5621.77 375.38 5622.1 375.38 5622.18 402.54 5622.18 402.54 5621.77 402.54 4831.27 402.54 4794.67 402.54 4731.8 402.54 4651.91 402.54 4413.8 402.54 4377.2 402.54 2411.87 402.54 2375.27 402.54 1994.4 402.54 1957.8 402.54 537 402.54 536.42 402.54 418.53 402.54 250.65 402.54 82.93 389.32 82.93 375.38 82.93 375.38 249.9 375.38 251.06 375.38 554.35 375.38 686.46"/>
  <polyline class="cls-7" points="3470.61 5475.69 3475.58 5475.69 3518.4 5475.69 3523.38 5475.69"/>
  <polyline class="cls-7" points="2931.64 5475.69 2926.66 5475.69 2883.84 5475.69 2878.86 5475.69"/>
  <rect class="cls-6" x="3658.46" y="5040.82" width="330.34" height="252.61"/>
  <polygon class="cls-3" points="4012.8 5040.82 4012.8 5293.43 3988.8 5293.43 3988.8 5006.59 4004.82 5029.43 4012.8 5040.82"/>
  <polygon class="cls-3" points="3658.46 5040.82 3658.46 5293.43 3634.46 5293.43 3634.46 5006.57 3634.48 5006.59 3650.48 5029.43 3658.46 5040.82"/>
  <polyline class="cls-7" points="375.34 5040.79 375.34 5040.75 375.57 5372.59"/>
  <polygon class="cls-3" points="1169.37 5622.13 1169.37 5656.45 24.62 5656.45 1.14 5622.18 24.62 5622.18 375.32 5622.13 1169.37 5622.13"/>
  <polyline class="cls-7" points="639.13 4503.7 639.13 4538.52 639.13 4542.9 639.13 4551.54 639.13 4561.74 639.13 4564.63 639.13 4567.81 639.13 4570.5 639.13 4580.93 639.13 4589.31 639.13 4593.7 639.13 4720.46"/>
  <polyline class="cls-10" points="663.16 4766.92 663.35 5244.75 639.14 5244.74"/>
  <polyline class="cls-7" points="639.13 565.13 639.13 500.01 639.13 495.62 639.13 487.21 639.13 476.8 639.13 474.12 639.13 470.94 639.13 468.03 639.13 457.85"/>
  <polygon class="cls-3" points="1169.32 85.58 1169.32 113.53 662.44 113.54 639.13 82.94 746.1 83.47 747.78 83.47 840.32 83.95 1169.32 85.58"/>
  <polygon class="cls-6" points="375.33 5397.97 375.33 5622.12 24.61 5622.18 24.61 5397.97 375.33 5397.97"/>
  <polygon class="cls-3" points="639.15 82.94 639.15 113.53 403.23 113.53 375.82 81.89 375.59 81.62 375.57 81.6 375.98 81.6 639.13 82.94 639.15 82.94"/>
  <polygon class="cls-12" points="1169.32 210.46 865.65 210.46 864.39 113.54 1169.32 113.53 1169.32 210.46"/>
  <polyline class="cls-9" points="1167.82 2496.34 746.09 2496.34 746.09 4767.35 663.16 4766.92 663.16 114.62 662.43 113.53 864.4 113.53 865.65 210.47 746.09 210.47 746.09 569.95 745.73 569.95 746.09 570.24 746.09 2206.41 770.04 2226.88 1169.32 2226.87 1169.32 2408.01"/>
  <polyline class="cls-7" points="770.05 503.69 770.05 499.26 770.05 490.03 770.05 487.44 770.05 468.62 770.05 467.01 770.05 460.14 770.05 452.19 770.05 447.76"/>
  <polyline class="cls-7" points="770.05 311.45 770.05 307 770.05 297.77 770.05 295.18 770.05 276.36 770.05 274.75 770.05 267.88 770.05 259.93 770.05 255.5"/>
  <polyline class="cls-7" points="770.05 1209.51 770.05 1213.9 770.05 1222.51 770.05 1251.9 770.05 1260.31 770.05 1264.7"/>
  <polyline class="cls-7" points="770.05 3622.39 770.05 3850.55 770.05 3855.09 770.05 3863.7 770.05 3893.09 770.05 3901.5 770.05 3905.89 770.05 3980"/>
  <polyline class="cls-7" points="770.05 3221.43 770.05 3515.02 770.05 3519.5 770.05 3565.11 770.05 3569.59 770.05 3622.39"/>
  <polyline class="cls-7" points="770.05 4445.53 770.05 4071.83 770.05 4067.44 770.05 4059.03 770.05 4029.64 770.05 4021.03 770.05 4016.64 770.05 3980"/>
  <line class="cls-7" x1="1167.64" y1="2226.87" x2="1167.64" y2="2206.41"/>
  <polyline class="cls-7" points="639.15 457.84 639.15 437.31 639.15 113.53"/>
  <polyline class="cls-7" points="770.04 4445.54 770.04 4465.23 770.05 4767.46"/>
  <polyline class="cls-7" points="770.05 3221.43 770.05 3202.23 770.04 2516.45 770.04 2496.34"/>
  <path class="cls-5" d="m639.15,565.14v4175.85l-.02,231.12v252.17s-.78,0-2.19,0c-25.23-.02-261.6-.18-261.78-.18.3.24,27.33,20.39,27.66,20.64h236.31"/>
  <polygon class="cls-3" points="1169.32 4769.37 1169.32 4787.33 664.77 4787.33 663.72 4786.46 663.16 4786.01 650.54 4775.51 639.13 4766.8 640.15 4766.8 663.16 4766.92 746.09 4767.35 770.05 4767.46 1169.19 4769.37 1169.32 4769.37"/>
  <polygon class="cls-3" points="1169.32 2206.41 1169.32 2226.87 770.04 2226.88 746.1 2206.41 1169.32 2206.41"/>
  <g>
    <polyline class="cls-7" points="770.05 311.45 770.05 307 770.05 297.77 770.05 295.18 770.05 276.36 770.05 274.75 770.05 267.88 770.05 259.93 770.05 255.5"/>
    <polyline class="cls-7" points="770.05 2037.84 770.05 2039.65 770.05 2056.13 770.05 230.99 746.09 210.47 770.05 210.47 840.33 210.47 865.65 210.47 1169.32 210.46 1169.32 230.99 770.05 230.99"/>
  </g>
  <polygon class="cls-3" points="2152.42 5293.43 2152.42 5040.82 2128.42 5006.62 2128.42 5040.82 2128.42 5293.43 2152.42 5293.43"/>
  <polygon class="cls-3" points="2298.49 5293.13 2298.49 5040.52 2274.48 5006.31 2274.48 5040.52 2274.48 5293.13 2298.49 5293.13"/>
  <polygon class="cls-3" points="2765.94 5293.13 2765.94 5040.52 2741.94 5006.31 2741.94 5040.52 2741.94 5293.13 2765.94 5293.13"/>
  <polygon class="cls-3" points="2867.4 5293.13 2867.4 5040.52 2843.4 5006.31 2843.4 5040.52 2843.4 5293.13 2867.4 5293.13"/>
  <polygon class="cls-3" points="3104.67 5293.13 3104.67 5040.52 3080.67 5006.31 3080.67 5040.52 3080.67 5293.13 3104.67 5293.13"/>
  <text/>
  <polygon class="cls-3" points="4313.08 5293.13 4313.08 5040.52 4289.08 5006.31 4289.08 5040.52 4289.08 5293.13 4313.08 5293.13"/>
  <polygon class="cls-6" points="1169.32 4787.98 1169.32 4912.57 819.26 4912.56 819.26 4787.99 1169.32 4787.98"/>
  <rect class="cls-6" x="1046.76" y="5029.42" width="122.61" height="240.6"/>
  <polygon class="cls-3" points="865.65 210.46 840.32 210.46 840.32 83.95 864.39 113.54 865.65 210.46"/>
  <polygon class="cls-12" points="1169.32 2496.34 746.1 2496.34 746.1 2407.82 1169.32 2408.01 1169.32 2496.34"/>
  <g>
    <g>
      <path class="cls-25" d="m681.12,4829.16v24.39c0,8.5-6.89,15.39-15.39,15.39h-24.39c-8.5,0-15.39-6.89-15.39-15.39v-24.39c0-6.23,3.7-11.59,9.02-14,1.93-.89,4.09-1.39,6.36-1.39h24.39c8.5,0,15.39,6.89,15.39,15.39Z"/>
      <path class="cls-19" d="m641.34,4818.14h24.39c6.08,0,11.01,4.93,11.01,11.01v24.39c0,6.08-4.93,11.01-11.01,11.01h-24.39c-6.08,0-11.01-4.93-11.01-11.01v-24.39c0-6.08,4.93-11.01,11.01-11.01Z"/>
    </g>
    <g>
      <polygon class="cls-2" points="641.41 4826.76 641.41 4836.97 644.04 4836.97 644.04 4829.39 661.9 4829.39 656.18 4832.45 656.18 4850.46 661.9 4853.53 644.04 4853.53 644.04 4845.73 641.41 4845.73 641.41 4856.15 665.66 4856.15 665.66 4826.76 641.41 4826.76"/>
      <polygon class="cls-2" points="646.56 4847.23 654.34 4841.46 646.56 4835.69 646.56 4839.87 641.38 4839.87 641.38 4843.05 646.56 4843.05 646.56 4847.23"/>
    </g>
  </g>
  <g>
    <g>
      <path class="cls-25" d="m679.52,3989.85v24.39c0,8.5-6.89,15.41-15.39,15.41h-24.39c-8.5,0-15.39-6.91-15.39-15.41v-24.39c0-8.5,6.89-15.39,15.39-15.39h24.39c8.5,0,15.39,6.89,15.39,15.39Z"/>
      <path class="cls-19" d="m639.74,3978.84h24.39c6.08,0,11.01,4.93,11.01,11.01v24.39c0,6.08-4.93,11.01-11.01,11.01h-24.39c-6.08,0-11.01-4.93-11.01-11.01v-24.39c0-6.08,4.93-11.01,11.01-11.01Z"/>
    </g>
    <g>
      <polygon class="cls-2" points="639.82 3987.46 639.82 3997.67 642.44 3997.67 642.44 3990.09 660.31 3990.09 654.58 3993.15 654.58 4011.16 660.31 4014.23 642.44 4014.23 642.44 4006.43 639.82 4006.43 639.82 4016.85 664.06 4016.85 664.06 3987.46 639.82 3987.46"/>
      <polygon class="cls-2" points="644.96 4007.93 652.74 4002.16 644.96 3996.39 644.96 4000.57 639.78 4000.57 639.78 4003.75 644.96 4003.75 644.96 4007.93"/>
    </g>
  </g>
  <g>
    <g>
      <path class="cls-25" d="m678.72,3862.64v24.39c0,8.5-6.89,15.41-15.39,15.41h-24.39c-8.5,0-15.39-6.91-15.39-15.41v-24.39c0-8.5,6.89-15.39,15.39-15.39h24.39c8.5,0,15.39,6.89,15.39,15.39Z"/>
      <path class="cls-19" d="m638.95,3851.63h24.39c6.08,0,11.01,4.93,11.01,11.01v24.39c0,6.08-4.93,11.01-11.01,11.01h-24.39c-6.08,0-11.01-4.93-11.01-11.01v-24.39c0-6.08,4.93-11.01,11.01-11.01Z"/>
    </g>
    <g>
      <polygon class="cls-2" points="639.02 3860.26 639.02 3870.46 641.64 3870.46 641.64 3862.88 659.51 3862.88 653.79 3865.95 653.79 3883.96 659.51 3887.02 641.64 3887.02 641.64 3879.22 639.02 3879.22 639.02 3889.65 663.27 3889.65 663.27 3860.26 639.02 3860.26"/>
      <polygon class="cls-2" points="644.16 3880.72 651.94 3874.95 644.16 3869.18 644.16 3873.36 638.98 3873.36 638.98 3876.54 644.16 3876.54 644.16 3880.72"/>
    </g>
  </g>
  <g>
    <g>
      <path class="cls-25" d="m680.32,4318.65v24.39c0,8.5-6.89,15.41-15.39,15.41h-24.39c-8.5,0-15.39-6.91-15.39-15.41v-24.39c0-8.5,6.89-15.39,15.39-15.39h24.39c8.5,0,15.39,6.89,15.39,15.39Z"/>
      <path class="cls-19" d="m640.54,4307.64h24.39c6.08,0,11.01,4.93,11.01,11.01v24.39c0,6.08-4.93,11.01-11.01,11.01h-24.39c-6.08,0-11.01-4.93-11.01-11.01v-24.39c0-6.08,4.93-11.01,11.01-11.01Z"/>
    </g>
    <g>
      <polygon class="cls-2" points="640.62 4316.26 640.62 4326.47 643.24 4326.47 643.24 4318.89 661.1 4318.89 655.38 4321.95 655.38 4339.96 661.1 4343.03 643.24 4343.03 643.24 4335.23 640.62 4335.23 640.62 4345.65 664.86 4345.65 664.86 4316.26 640.62 4316.26"/>
      <polygon class="cls-2" points="645.76 4336.73 653.54 4330.96 645.76 4325.19 645.76 4329.37 640.58 4329.37 640.58 4332.55 645.76 4332.55 645.76 4336.73"/>
    </g>
  </g>
  <g>
    <g>
      <path class="cls-25" d="m678.72,3422.08v24.39c0,8.5-6.89,15.39-15.39,15.39h-24.39c-8.5,0-15.39-6.89-15.39-15.39v-24.39c0-8.5,6.89-15.41,15.39-15.41h24.39c8.5,0,15.39,6.91,15.39,15.41Z"/>
      <path class="cls-19" d="m638.95,3411.06h24.39c6.08,0,11.01,4.93,11.01,11.01v24.39c0,6.08-4.93,11.01-11.01,11.01h-24.39c-6.08,0-11.01-4.93-11.01-11.01v-24.39c0-6.08,4.93-11.01,11.01-11.01Z"/>
    </g>
    <g>
      <polygon class="cls-2" points="639.02 3419.69 639.02 3429.89 641.64 3429.89 641.64 3422.31 659.51 3422.31 653.79 3425.38 653.79 3443.39 659.51 3446.45 641.64 3446.45 641.64 3438.65 639.02 3438.65 639.02 3449.08 663.27 3449.08 663.27 3419.69 639.02 3419.69"/>
      <polygon class="cls-2" points="644.16 3440.15 651.94 3434.38 644.16 3428.61 644.16 3432.79 638.98 3432.79 638.98 3435.97 644.16 3435.97 644.16 3440.15"/>
    </g>
  </g>
  <g>
    <g>
      <rect class="cls-25" x="624.36" y="2864.72" width="55.16" height="55.16" rx="15.39" ry="15.39"/>
      <path class="cls-19" d="m639.74,2869.1h24.39c6.08,0,11.01,4.93,11.01,11.01v24.39c0,6.08-4.93,11.01-11.01,11.01h-24.39c-6.08,0-11.01-4.93-11.01-11.01v-24.39c0-6.08,4.93-11.01,11.01-11.01Z"/>
    </g>
    <g>
      <polygon class="cls-2" points="639.82 2877.72 639.82 2887.93 642.44 2887.93 642.44 2880.34 660.31 2880.34 654.58 2883.41 654.58 2901.42 660.31 2904.49 642.44 2904.49 642.44 2896.68 639.82 2896.68 639.82 2907.11 664.06 2907.11 664.06 2877.72 639.82 2877.72"/>
      <polygon class="cls-2" points="644.96 2898.19 652.74 2892.42 644.96 2886.65 644.96 2890.82 639.78 2890.82 639.78 2894.01 644.96 2894.01 644.96 2898.19"/>
    </g>
  </g>
  <g>
    <g>
      <rect class="cls-25" x="623.56" y="2717.79" width="55.16" height="55.19" rx="15.39" ry="15.39"/>
      <path class="cls-19" d="m638.95,2722.17h24.39c6.08,0,11.01,4.93,11.01,11.01v24.39c0,6.08-4.93,11.01-11.01,11.01h-24.39c-6.08,0-11.01-4.93-11.01-11.01v-24.39c0-6.08,4.93-11.01,11.01-11.01Z"/>
    </g>
    <g>
      <polygon class="cls-2" points="639.02 2730.79 639.02 2741 641.64 2741 641.64 2733.42 659.51 2733.42 653.79 2736.48 653.79 2754.49 659.51 2757.56 641.64 2757.56 641.64 2749.76 639.02 2749.76 639.02 2760.18 663.27 2760.18 663.27 2730.79 639.02 2730.79"/>
      <polygon class="cls-2" points="644.16 2751.26 651.94 2745.49 644.16 2739.72 644.16 2743.9 638.98 2743.9 638.98 2747.08 644.16 2747.08 644.16 2751.26"/>
    </g>
  </g>
  <g>
    <g>
      <path class="cls-25" d="m678.08,2555.82v24.39c0,8.5-6.89,15.41-15.39,15.41h-24.39c-8.5,0-15.39-6.91-15.39-15.41v-24.39c0-8.5,6.89-15.39,15.39-15.39h24.39c8.5,0,15.39,6.89,15.39,15.39Z"/>
      <path class="cls-19" d="m638.3,2544.81h24.39c6.08,0,11.01,4.93,11.01,11.01v24.39c0,6.08-4.93,11.01-11.01,11.01h-24.39c-6.08,0-11.01-4.93-11.01-11.01v-24.39c0-6.08,4.93-11.01,11.01-11.01Z"/>
    </g>
    <g>
      <polygon class="cls-2" points="638.37 2553.43 638.37 2563.64 641 2563.64 641 2556.06 658.86 2556.06 653.14 2559.12 653.14 2577.13 658.86 2580.2 641 2580.2 641 2572.4 638.37 2572.4 638.37 2582.82 662.62 2582.82 662.62 2553.43 638.37 2553.43"/>
      <polygon class="cls-2" points="643.52 2573.9 651.3 2568.13 643.52 2562.36 643.52 2566.54 638.33 2566.54 638.33 2569.72 643.52 2569.72 643.52 2573.9"/>
    </g>
  </g>
  <g>
    <g>
      <rect class="cls-25" x="621.07" y="2161.46" width="55.16" height="55.19" rx="15.39" ry="15.39"/>
      <path class="cls-19" d="m636.46,2165.85h24.39c6.08,0,11.01,4.93,11.01,11.01v24.39c0,6.08-4.93,11.01-11.01,11.01h-24.39c-6.08,0-11.01-4.93-11.01-11.01v-24.39c0-6.08,4.93-11.01,11.01-11.01Z"/>
    </g>
    <g>
      <polygon class="cls-2" points="636.53 2174.47 636.53 2184.68 639.15 2184.68 639.15 2177.1 657.02 2177.1 651.3 2180.16 651.3 2198.17 657.02 2201.24 639.15 2201.24 639.15 2193.44 636.53 2193.44 636.53 2203.86 660.78 2203.86 660.78 2174.47 636.53 2174.47"/>
      <polygon class="cls-2" points="641.67 2194.94 649.45 2189.17 641.67 2183.4 641.67 2187.58 636.49 2187.58 636.49 2190.76 641.67 2190.76 641.67 2194.94"/>
    </g>
  </g>
  <g>
    <g>
      <path class="cls-25" d="m678.72,1878.73v24.39c0,8.5-6.89,15.39-15.39,15.39h-24.39c-8.5,0-15.39-6.89-15.39-15.39v-24.39c0-6.82,4.43-12.59,10.57-14.61,1.5-.5,3.14-.77,4.82-.77h24.39c8.5,0,15.39,6.89,15.39,15.39Z"/>
      <path class="cls-19" d="m638.95,1867.71h24.39c6.08,0,11.01,4.93,11.01,11.01v24.39c0,6.08-4.93,11.01-11.01,11.01h-24.39c-6.08,0-11.01-4.93-11.01-11.01v-24.39c0-6.08,4.93-11.01,11.01-11.01Z"/>
    </g>
    <g>
      <polygon class="cls-2" points="639.02 1876.34 639.02 1886.54 641.64 1886.54 641.64 1878.96 659.51 1878.96 653.79 1882.03 653.79 1900.04 659.51 1903.11 641.64 1903.11 641.64 1895.3 639.02 1895.3 639.02 1905.73 663.27 1905.73 663.27 1876.34 639.02 1876.34"/>
      <polygon class="cls-2" points="644.16 1896.8 651.94 1891.03 644.16 1885.26 644.16 1889.44 638.98 1889.44 638.98 1892.63 644.16 1892.63 644.16 1896.8"/>
    </g>
  </g>
  <g>
    <g>
      <path class="cls-25" d="m675.44,1604.82v24.39c0,8.52-6.89,15.41-15.39,15.41h-24.39c-8.5,0-15.39-6.89-15.39-15.41v-24.39c0-8.5,6.89-15.39,15.39-15.39h24.39c8.5,0,15.39,6.89,15.39,15.39Z"/>
      <path class="cls-19" d="m635.66,1593.81h24.39c6.08,0,11.01,4.93,11.01,11.01v24.39c0,6.08-4.93,11.01-11.01,11.01h-24.39c-6.08,0-11.01-4.93-11.01-11.01v-24.39c0-6.08,4.93-11.01,11.01-11.01Z"/>
    </g>
    <g>
      <polygon class="cls-2" points="635.73 1602.44 635.73 1612.64 638.36 1612.64 638.36 1605.06 656.22 1605.06 650.5 1608.13 650.5 1626.14 656.22 1629.2 638.36 1629.2 638.36 1621.4 635.73 1621.4 635.73 1631.83 659.98 1631.83 659.98 1602.44 635.73 1602.44"/>
      <polygon class="cls-2" points="640.87 1622.9 648.65 1617.13 640.87 1611.36 640.87 1615.54 635.69 1615.54 635.69 1618.72 640.87 1618.72 640.87 1622.9"/>
    </g>
  </g>
  <g>
    <g>
      <rect class="cls-25" x="625.96" y="1275.77" width="55.16" height="55.16" rx="15.39" ry="15.39"/>
      <path class="cls-19" d="m641.34,1280.13h24.39c6.08,0,11.01,4.93,11.01,11.01v24.39c0,6.08-4.93,11.01-11.01,11.01h-24.39c-6.08,0-11.01-4.93-11.01-11.01v-24.39c0-6.08,4.93-11.01,11.01-11.01Z"/>
    </g>
    <g>
      <polygon class="cls-2" points="641.41 1288.76 641.41 1298.97 644.04 1298.97 644.04 1291.38 661.9 1291.38 656.18 1294.45 656.18 1312.46 661.9 1315.53 644.04 1315.53 644.04 1307.72 641.41 1307.72 641.41 1318.15 665.66 1318.15 665.66 1288.76 641.41 1288.76"/>
      <polygon class="cls-2" points="646.56 1309.23 654.34 1303.46 646.56 1297.69 646.56 1301.86 641.38 1301.86 641.38 1305.05 646.56 1305.05 646.56 1309.23"/>
    </g>
  </g>
  <g>
    <g>
      <path class="cls-25" d="m680.32,900.67v24.39c0,8.5-6.89,15.39-15.39,15.39h-24.39c-8.5,0-15.39-6.89-15.39-15.39v-24.39c0-8.5,6.89-15.41,15.39-15.41h24.39c8.5,0,15.39,6.91,15.39,15.41Z"/>
      <path class="cls-19" d="m640.54,889.65h24.39c6.08,0,11.01,4.93,11.01,11.01v24.39c0,6.08-4.93,11.01-11.01,11.01h-24.39c-6.08,0-11.01-4.93-11.01-11.01v-24.39c0-6.08,4.93-11.01,11.01-11.01Z"/>
    </g>
    <g>
      <polygon class="cls-2" points="640.62 898.28 640.62 908.48 643.24 908.48 643.24 900.9 661.1 900.9 655.38 903.97 655.38 921.98 661.1 925.04 643.24 925.04 643.24 917.24 640.62 917.24 640.62 927.67 664.86 927.67 664.86 898.28 640.62 898.28"/>
      <polygon class="cls-2" points="645.76 918.74 653.54 912.97 645.76 907.2 645.76 911.38 640.58 911.38 640.58 914.56 645.76 914.56 645.76 918.74"/>
    </g>
  </g>
  <g>
    <g>
      <path class="cls-25" d="m678.72,460.21v24.39c0,8.5-6.89,15.41-15.39,15.41h-24.39c-8.5,0-15.39-6.91-15.39-15.41v-24.39c0-8.5,6.89-15.39,15.39-15.39h24.39c8.5,0,15.39,6.89,15.39,15.39Z"/>
      <path class="cls-19" d="m638.95,449.2h24.39c6.08,0,11.01,4.93,11.01,11.01v24.39c0,6.08-4.93,11.01-11.01,11.01h-24.39c-6.08,0-11.01-4.93-11.01-11.01v-24.39c0-6.08,4.93-11.01,11.01-11.01Z"/>
    </g>
    <g>
      <polygon class="cls-2" points="639.02 457.83 639.02 468.03 641.64 468.03 641.64 460.45 659.51 460.45 653.79 463.52 653.79 481.53 659.51 484.6 641.64 484.6 641.64 476.79 639.02 476.79 639.02 487.22 663.27 487.22 663.27 457.83 639.02 457.83"/>
      <polygon class="cls-2" points="644.16 478.3 651.94 472.52 644.16 466.75 644.16 470.93 638.98 470.93 638.98 474.12 644.16 474.12 644.16 478.3"/>
    </g>
  </g>
  <g>
    <g>
      <rect class="cls-25" x="624.36" y="122.2" width="55.16" height="55.19" rx="15.39" ry="15.39"/>
      <rect class="cls-19" x="628.73" y="126.59" width="46.42" height="46.42" rx="11.01" ry="11.01"/>
    </g>
    <g>
      <polygon class="cls-2" points="639.82 135.21 639.82 145.42 642.44 145.42 642.44 137.84 660.31 137.84 654.58 140.91 654.58 158.91 660.31 161.98 642.44 161.98 642.44 154.18 639.82 154.18 639.82 164.61 664.06 164.61 664.06 135.21 639.82 135.21"/>
      <polygon class="cls-2" points="644.96 155.68 652.74 149.91 644.96 144.14 644.96 148.32 639.78 148.32 639.78 151.5 644.96 151.5 644.96 155.68"/>
    </g>
  </g>
  <g>
    <rect class="cls-14" x="730.36" y="255.49" width="55.95" height="55.95" rx="15.61" ry="15.61"/>
    <path class="cls-24" d="m745.97,311.44h24.74c4.31,0,8.21-1.75,11.04-4.57l-46.81-46.81c-2.82,2.82-4.57,6.73-4.57,11.04v24.74c0,8.62,6.99,15.61,15.61,15.61Z"/>
    <rect class="cls-20" x="734.8" y="259.93" width="47.07" height="47.07" rx="11.17" ry="11.17"/>
    <polygon class="cls-2" points="743.75 287.29 745.54 287.29 745.54 297.78 749.32 297.78 749.32 287.29 751.12 287.29 753.16 276.37 741.71 276.37 743.75 287.29"/>
    <circle class="cls-2" cx="747.43" cy="271.3" r="3.54" transform="translate(-14.51 43.93) rotate(-3.33)"/>
    <polygon class="cls-2" points="772.92 276.37 765.55 276.37 763.51 287.29 767.35 287.29 767.35 297.78 771.13 297.78 771.13 287.29 774.96 287.29 772.92 276.37"/>
    <circle class="cls-2" cx="769.24" cy="271.3" r="3.54" transform="translate(-33.44 126.24) rotate(-9.18)"/>
    <rect class="cls-2" x="757.48" y="263.89" width="1.71" height="39.15"/>
  </g>
  <g>
    <path class="cls-14" d="m786.32,463.35v24.75c0,4.32-1.75,8.23-4.59,11.02-.84.84-1.77,1.59-2.8,2.2-.68.43-1.41.82-2.16,1.14-1.86.8-3.91,1.23-6.07,1.23h-24.75c-8.61,0-15.59-6.98-15.59-15.59v-24.75c0-4.3,1.75-8.21,4.57-11.02,2.82-2.82,6.7-4.57,11.02-4.57h24.75c8.61,0,15.61,6.98,15.61,15.59Z"/>
    <path class="cls-24" d="m781.73,499.12c-.84.84-1.77,1.59-2.8,2.2-.68.45-1.41.82-2.16,1.14-1.86.8-3.91,1.23-6.07,1.23h-24.75c-8.61,0-15.59-6.98-15.59-15.59v-24.75c0-4.3,1.75-8.21,4.57-11.02l24.25,24.25,8.16,8.16,2.7,2.7,1.07,1.07,10.61,10.61Z"/>
    <rect class="cls-20" x="734.8" y="452.19" width="47.07" height="47.07" rx="11.17" ry="11.17"/>
    <polygon class="cls-2" points="743.75 479.55 745.54 479.55 745.54 490.04 749.32 490.04 749.32 479.55 751.12 479.55 753.16 468.63 741.71 468.63 743.75 479.55"/>
    <circle class="cls-2" cx="747.43" cy="463.56" r="3.54" transform="translate(-25.7 44.26) rotate(-3.33)"/>
    <polygon class="cls-2" points="772.92 468.63 765.55 468.63 763.51 479.55 767.35 479.55 767.35 490.04 771.13 490.04 771.13 479.55 774.96 479.55 772.92 468.63"/>
    <circle class="cls-2" cx="769.24" cy="463.56" r="3.54" transform="translate(-64.12 128.7) rotate(-9.18)"/>
    <rect class="cls-2" x="757.48" y="456.15" width="1.71" height="39.15"/>
  </g>
  <g>
    <g>
      <path class="cls-25" d="m783.64,771.12v24.39c0,8.5-6.91,15.39-15.41,15.39h-24.43c-8.48-.02-15.34-6.91-15.34-15.39v-24.39c0-8.48,6.86-15.36,15.34-15.39h24.43c8.5,0,15.41,6.89,15.41,15.39Z"/>
      <path class="cls-19" d="m743.84,760.1h24.39c6.08,0,11.01,4.93,11.01,11.01v24.39c0,6.08-4.93,11.01-11.01,11.01h-24.39c-6.08,0-11.01-4.93-11.01-11.01v-24.39c0-6.08,4.93-11.01,11.01-11.01Z"/>
    </g>
    <g>
      <polygon class="cls-2" points="743.92 768.73 743.92 778.93 746.54 778.93 746.54 771.35 764.41 771.35 758.68 774.42 758.68 792.43 764.41 795.5 746.54 795.5 746.54 787.69 743.92 787.69 743.92 798.12 768.16 798.12 768.16 768.73 743.92 768.73"/>
      <polygon class="cls-2" points="749.06 789.2 756.84 783.42 749.06 777.65 749.06 781.83 743.88 781.83 743.88 785.02 749.06 785.02 749.06 789.2"/>
    </g>
  </g>
  <g>
    <g>
      <path class="cls-25" d="m785.94,992.97v24.39c0,8.5-6.91,15.39-15.41,15.39h-24.43c-8.48-.02-15.34-6.91-15.34-15.39v-24.39c0-8.5,6.86-15.39,15.34-15.41h24.43c8.5,0,15.41,6.89,15.41,15.41Z"/>
      <path class="cls-19" d="m746.14,981.95h24.39c6.08,0,11.01,4.93,11.01,11.01v24.39c0,6.08-4.93,11.01-11.01,11.01h-24.39c-6.08,0-11.01-4.93-11.01-11.01v-24.39c0-6.08,4.93-11.01,11.01-11.01Z"/>
    </g>
    <g>
      <polygon class="cls-2" points="746.21 990.57 746.21 1000.78 748.84 1000.78 748.84 993.2 766.7 993.2 760.98 996.27 760.98 1014.27 766.7 1017.34 748.84 1017.34 748.84 1009.54 746.21 1009.54 746.21 1019.97 770.46 1019.97 770.46 990.57 746.21 990.57"/>
      <polygon class="cls-2" points="751.35 1011.04 759.13 1005.27 751.35 999.5 751.35 1003.68 746.17 1003.68 746.17 1006.86 751.35 1006.86 751.35 1011.04"/>
    </g>
  </g>
  <g>
    <g>
      <path class="cls-25" d="m785.94,1224.9v24.39c0,8.52-6.91,15.41-15.41,15.41h-24.43c-8.48-.02-15.34-6.91-15.34-15.41v-24.39c0-8.48,6.86-15.36,15.34-15.39h24.43c8.5,0,15.41,6.89,15.41,15.39Z"/>
      <path class="cls-19" d="m746.14,1213.89h24.39c6.08,0,11.01,4.93,11.01,11.01v24.39c0,6.08-4.93,11.01-11.01,11.01h-24.39c-6.08,0-11.01-4.93-11.01-11.01v-24.39c0-6.08,4.93-11.01,11.01-11.01Z"/>
    </g>
    <g>
      <polygon class="cls-2" points="746.21 1222.51 746.21 1232.72 748.84 1232.72 748.84 1225.14 766.7 1225.14 760.98 1228.21 760.98 1246.21 766.7 1249.28 748.84 1249.28 748.84 1241.48 746.21 1241.48 746.21 1251.91 770.46 1251.91 770.46 1222.51 746.21 1222.51"/>
      <polygon class="cls-2" points="751.35 1242.98 759.13 1237.21 751.35 1231.44 751.35 1235.62 746.17 1235.62 746.17 1238.8 751.35 1238.8 751.35 1242.98"/>
    </g>
  </g>
  <g>
    <g>
      <path class="cls-25" d="m786.73,1496.77v24.39c0,8.5-6.91,15.39-15.41,15.39h-24.43c-8.48-.02-15.34-6.91-15.34-15.39v-24.39c0-8.48,6.86-15.36,15.34-15.39h24.43c8.5,0,15.41,6.89,15.41,15.39Z"/>
      <path class="cls-19" d="m746.93,1485.75h24.39c6.08,0,11.01,4.93,11.01,11.01v24.39c0,6.08-4.93,11.01-11.01,11.01h-24.39c-6.08,0-11.01-4.93-11.01-11.01v-24.39c0-6.08,4.93-11.01,11.01-11.01Z"/>
    </g>
    <g>
      <polygon class="cls-2" points="747 1494.38 747 1504.59 749.63 1504.59 749.63 1497 767.49 1497 761.77 1500.07 761.77 1518.08 767.49 1521.15 749.63 1521.15 749.63 1513.34 747 1513.34 747 1523.77 771.25 1523.77 771.25 1494.38 747 1494.38"/>
      <polygon class="cls-2" points="752.14 1514.85 759.92 1509.08 752.14 1503.3 752.14 1507.48 746.96 1507.48 746.96 1510.67 752.14 1510.67 752.14 1514.85"/>
    </g>
  </g>
  <g>
    <g>
      <path class="cls-25" d="m785.66,1741.1v24.39c0,8.5-6.91,15.39-15.41,15.39h-24.43c-8.48-.02-15.34-6.91-15.34-15.39v-24.39c0-8.48,6.86-15.36,15.34-15.39h24.43c8.5,0,15.41,6.89,15.41,15.39Z"/>
      <path class="cls-19" d="m745.87,1730.09h24.39c6.08,0,11.01,4.93,11.01,11.01v24.39c0,6.08-4.93,11.01-11.01,11.01h-24.39c-6.08,0-11.01-4.93-11.01-11.01v-24.39c0-6.08,4.93-11.01,11.01-11.01Z"/>
    </g>
    <g>
      <polygon class="cls-2" points="745.94 1738.71 745.94 1748.92 748.56 1748.92 748.56 1741.34 766.43 1741.34 760.71 1744.4 760.71 1762.41 766.43 1765.48 748.56 1765.48 748.56 1757.68 745.94 1757.68 745.94 1768.1 770.19 1768.1 770.19 1738.71 745.94 1738.71"/>
      <polygon class="cls-2" points="751.08 1759.18 758.86 1753.41 751.08 1747.64 751.08 1751.82 745.9 1751.82 745.9 1755 751.08 1755 751.08 1759.18"/>
    </g>
  </g>
  <g>
    <g>
      <path class="cls-25" d="m786.73,1906.31v24.39c0,8.5-6.91,15.39-15.41,15.39h-24.43c-8.48-.02-15.34-6.91-15.34-15.39v-24.39c0-8.48,6.86-15.36,15.34-15.39h24.43c8.5,0,15.41,6.89,15.41,15.39Z"/>
      <path class="cls-19" d="m746.93,1895.29h24.39c6.08,0,11.01,4.93,11.01,11.01v24.39c0,6.08-4.93,11.01-11.01,11.01h-24.39c-6.08,0-11.01-4.93-11.01-11.01v-24.39c0-6.08,4.93-11.01,11.01-11.01Z"/>
    </g>
    <g>
      <polygon class="cls-2" points="747 1903.92 747 1914.13 749.63 1914.13 749.63 1906.54 767.49 1906.54 761.77 1909.61 761.77 1927.62 767.49 1930.69 749.63 1930.69 749.63 1922.88 747 1922.88 747 1933.31 771.25 1933.31 771.25 1903.92 747 1903.92"/>
      <polygon class="cls-2" points="752.14 1924.39 759.92 1918.62 752.14 1912.84 752.14 1917.02 746.96 1917.02 746.96 1920.21 752.14 1920.21 752.14 1924.39"/>
    </g>
  </g>
  <g>
    <rect class="cls-1" x="799.35" y="2189.06" width="55.18" height="55.18" rx="15.39" ry="15.39"/>
    <path class="cls-18" d="m814.75,2193.43h24.39c6.08,0,11.01,4.93,11.01,11.01v24.39c0,6.08-4.93,11.01-11.01,11.01h-24.39c-6.08,0-11.01-4.93-11.01-11.01v-24.39c0-6.08,4.93-11.01,11.01-11.01Z"/>
    <polygon class="cls-2" points="835.67 2222.41 835.67 2214.63 827.89 2214.63 827.89 2206.85 820.11 2206.85 820.11 2199.07 810.43 2199.07 810.43 2202.85 816.33 2202.85 816.33 2210.63 824.11 2210.63 824.11 2218.41 831.89 2218.41 831.89 2226.19 839.67 2226.19 839.67 2232.09 843.45 2232.09 843.45 2222.41 835.67 2222.41"/>
  </g>
  <g>
    <rect class="cls-1" x="822.56" y="128.09" width="55.18" height="55.18" rx="15.39" ry="15.39"/>
    <rect class="cls-18" x="826.94" y="132.47" width="46.42" height="46.42" rx="11.01" ry="11.01"/>
    <polygon class="cls-2" points="858.88 161.45 858.88 153.67 851.1 153.67 851.1 145.89 843.32 145.89 843.32 138.11 833.65 138.11 833.65 141.88 839.54 141.88 839.54 149.67 847.32 149.67 847.32 157.45 855.1 157.45 855.1 165.23 862.88 165.23 862.88 171.12 866.66 171.12 866.66 161.45 858.88 161.45"/>
  </g>
  <g>
    <rect class="cls-1" x="794.95" y="2380.23" width="55.18" height="55.18" rx="15.39" ry="15.39"/>
    <path class="cls-18" d="m810.35,2384.61h24.39c6.08,0,11.01,4.93,11.01,11.01v24.39c0,6.08-4.93,11.01-11.01,11.01h-24.39c-6.08,0-11.01-4.93-11.01-11.01v-24.39c0-6.08,4.93-11.01,11.01-11.01Z"/>
    <rect class="cls-11" x="811.05" y="2390.36" width="24" height="34.91"/>
    <rect class="cls-2" x="813.16" y="2392.48" width="19.77" height="30.74"/>
    <line class="cls-8" x1="823.05" y1="2392.48" x2="823.05" y2="2423.22"/>
    <g>
      <polyline class="cls-8" points="817.45 2401.4 817.45 2412.66 820.91 2409.21"/>
      <line class="cls-8" x1="817.45" y1="2412.66" x2="814.26" y2="2409.47"/>
    </g>
    <g>
      <polyline class="cls-8" points="828.21 2412.51 828.21 2401.56 831.57 2404.92"/>
      <line class="cls-8" x1="828.21" y1="2401.56" x2="825.1" y2="2404.66"/>
    </g>
  </g>
  <g>
    <rect class="cls-1" x="858" y="4883.48" width="55.18" height="55.18" rx="15.39" ry="15.39"/>
    <path class="cls-18" d="m873.4,4887.86h24.39c6.08,0,11.01,4.93,11.01,11.01v24.39c0,6.08-4.93,11.01-11.01,11.01h-24.39c-6.08,0-11.01-4.93-11.01-11.01v-24.39c0-6.08,4.93-11.01,11.01-11.01Z"/>
    <rect class="cls-11" x="874.1" y="4893.61" width="24" height="34.91"/>
    <rect class="cls-2" x="876.21" y="4895.73" width="19.77" height="30.74"/>
    <line class="cls-8" x1="886.1" y1="4895.73" x2="886.1" y2="4926.47"/>
    <g>
      <polyline class="cls-8" points="880.5 4904.65 880.5 4915.91 883.96 4912.46"/>
      <line class="cls-8" x1="880.5" y1="4915.91" x2="877.31" y2="4912.72"/>
    </g>
    <g>
      <polyline class="cls-8" points="891.26 4915.76 891.26 4904.8 894.62 4908.17"/>
      <line class="cls-8" x1="891.26" y1="4904.8" x2="888.15" y2="4907.91"/>
    </g>
  </g>
  <g>
    <rect class="cls-1" x="936.86" y="2380.26" width="55.18" height="55.18" rx="15.39" ry="15.39"/>
    <path class="cls-18" d="m952.25,2384.64h24.39c6.08,0,11.01,4.93,11.01,11.01v24.39c0,6.08-4.93,11.01-11.01,11.01h-24.39c-6.08,0-11.01-4.93-11.01-11.01v-24.39c0-6.08,4.93-11.01,11.01-11.01Z"/>
    <rect class="cls-11" x="952.95" y="2390.39" width="24" height="34.91"/>
    <rect class="cls-2" x="955.06" y="2392.51" width="19.77" height="30.74"/>
    <line class="cls-8" x1="964.95" y1="2392.51" x2="964.96" y2="2423.25"/>
    <g>
      <polyline class="cls-8" points="959.36 2401.43 959.36 2412.69 962.81 2409.23"/>
      <line class="cls-8" x1="959.36" y1="2412.69" x2="956.16" y2="2409.5"/>
    </g>
    <g>
      <polyline class="cls-8" points="970.11 2412.54 970.11 2401.58 973.47 2404.94"/>
      <line class="cls-8" x1="970.11" y1="2401.58" x2="967" y2="2404.69"/>
    </g>
  </g>
  <g>
    <g>
      <path class="cls-25" d="m785.66,2794.84v24.39c0,8.5-6.89,15.39-15.39,15.39h-24.41c-8.5,0-15.39-6.89-15.39-15.39v-24.39c0-8.5,6.89-15.41,15.39-15.41h24.41c8.5,0,15.39,6.91,15.39,15.41Z"/>
      <path class="cls-19" d="m745.87,2783.82h24.39c6.08,0,11.01,4.93,11.01,11.01v24.39c0,6.08-4.93,11.01-11.01,11.01h-24.39c-6.08,0-11.01-4.93-11.01-11.01v-24.39c0-6.08,4.93-11.01,11.01-11.01Z"/>
    </g>
    <g>
      <polygon class="cls-2" points="745.95 2792.44 745.95 2802.65 748.57 2802.65 748.57 2795.07 766.43 2795.07 760.71 2798.13 760.71 2816.14 766.43 2819.21 748.57 2819.21 748.57 2811.41 745.95 2811.41 745.95 2821.83 770.19 2821.83 770.19 2792.44 745.95 2792.44"/>
      <polygon class="cls-2" points="751.09 2812.91 758.87 2807.14 751.09 2801.37 751.09 2805.55 745.91 2805.55 745.91 2808.73 751.09 2808.73 751.09 2812.91"/>
    </g>
  </g>
  <g>
    <g>
      <path class="cls-25" d="m678.09,3069.76v24.39c0,8.5-6.89,15.39-15.39,15.39h-24.39c-.14,0-.27,0-.41-.02-8.32-.2-15-7-15-15.36v-24.39c0-8.36,6.68-15.16,15-15.36.14-.02.27-.02.41-.02h24.39c8.5,0,15.39,6.89,15.39,15.39Z"/>
      <path class="cls-19" d="m638.3,3058.74h24.39c6.08,0,11.01,4.93,11.01,11.01v24.39c0,6.08-4.93,11.01-11.01,11.01h-24.39c-6.08,0-11.01-4.93-11.01-11.01v-24.39c0-6.08,4.93-11.01,11.01-11.01Z"/>
    </g>
    <g>
      <polygon class="cls-2" points="638.38 3067.37 638.38 3077.58 641 3077.58 641 3069.99 658.87 3069.99 653.14 3073.06 653.14 3091.07 658.87 3094.14 641 3094.14 641 3086.33 638.38 3086.33 638.38 3096.76 662.62 3096.76 662.62 3067.37 638.38 3067.37"/>
      <polygon class="cls-2" points="643.52 3087.84 651.3 3082.07 643.52 3076.3 643.52 3080.47 638.34 3080.47 638.34 3083.66 643.52 3083.66 643.52 3087.84"/>
    </g>
  </g>
  <g>
    <g>
      <path class="cls-25" d="m782.5,3530.11v24.39c0,7.5-5.36,13.73-12.46,15.09-.95.2-1.95.3-2.95.3h-24.39c-8.5,0-15.39-6.89-15.39-15.39v-24.39c0-8.5,6.89-15.39,15.39-15.39h24.39c1,0,2,.09,2.95.3,7.09,1.36,12.46,7.59,12.46,15.09Z"/>
      <path class="cls-19" d="m742.71,3519.09h24.39c6.08,0,11.01,4.93,11.01,11.01v24.39c0,6.08-4.93,11.01-11.01,11.01h-24.39c-6.08,0-11.01-4.93-11.01-11.01v-24.39c0-6.08,4.93-11.01,11.01-11.01Z"/>
    </g>
    <g>
      <polygon class="cls-2" points="742.78 3527.72 742.78 3537.92 745.4 3537.92 745.4 3530.34 763.27 3530.34 757.55 3533.41 757.55 3551.42 763.27 3554.49 745.4 3554.49 745.4 3546.68 742.78 3546.68 742.78 3557.11 767.03 3557.11 767.03 3527.72 742.78 3527.72"/>
      <polygon class="cls-2" points="747.92 3548.18 755.7 3542.41 747.92 3536.64 747.92 3540.82 742.74 3540.82 742.74 3544.01 747.92 3544.01 747.92 3548.18"/>
    </g>
  </g>
  <g>
    <g>
      <path class="cls-25" d="m785.66,3823.91v24.39c0,8.52-6.89,15.41-15.39,15.41h-24.39c-.14,0-.27,0-.41-.02-8.32-.2-15-7-15-15.39v-24.39c0-8.36,6.68-15.16,15-15.36.14-.02.27-.02.41-.02h24.39c8.5,0,15.39,6.89,15.39,15.39Z"/>
      <path class="cls-19" d="m745.88,3812.9h24.39c6.08,0,11.01,4.93,11.01,11.01v24.39c0,6.08-4.93,11.01-11.01,11.01h-24.39c-6.08,0-11.01-4.93-11.01-11.01v-24.39c0-6.08,4.93-11.01,11.01-11.01Z"/>
    </g>
    <g>
      <polygon class="cls-2" points="745.95 3821.52 745.95 3831.73 748.58 3831.73 748.58 3824.15 766.44 3824.15 760.72 3827.21 760.72 3845.22 766.44 3848.29 748.58 3848.29 748.58 3840.49 745.95 3840.49 745.95 3850.91 770.2 3850.91 770.2 3821.52 745.95 3821.52"/>
      <polygon class="cls-2" points="751.09 3841.99 758.87 3836.22 751.09 3830.45 751.09 3834.63 745.91 3834.63 745.91 3837.81 751.09 3837.81 751.09 3841.99"/>
    </g>
  </g>
  <g>
    <g>
      <path class="cls-25" d="m785.66,4032.03v24.39c0,8.5-6.89,15.41-15.39,15.41h-24.41c-8.5,0-15.39-6.91-15.39-15.41v-24.39c0-8.5,6.89-15.39,15.39-15.39h24.41c8.5,0,15.39,6.89,15.39,15.39Z"/>
      <path class="cls-19" d="m745.87,4021.02h24.39c6.08,0,11.01,4.93,11.01,11.01v24.39c0,6.08-4.93,11.01-11.01,11.01h-24.39c-6.08,0-11.01-4.93-11.01-11.01v-24.39c0-6.08,4.93-11.01,11.01-11.01Z"/>
    </g>
    <g>
      <polygon class="cls-2" points="745.95 4029.64 745.95 4039.85 748.57 4039.85 748.57 4032.27 766.43 4032.27 760.71 4035.34 760.71 4053.34 766.43 4056.41 748.57 4056.41 748.57 4048.61 745.95 4048.61 745.95 4059.04 770.19 4059.04 770.19 4029.64 745.95 4029.64"/>
      <polygon class="cls-2" points="751.09 4050.11 758.87 4044.34 751.09 4038.57 751.09 4042.75 745.91 4042.75 745.91 4045.93 751.09 4045.93 751.09 4050.11"/>
    </g>
  </g>
  <g>
    <g>
      <path class="cls-25" d="m782.5,4638.7v24.39c0,7.5-5.36,13.73-12.46,15.09-.95.2-1.95.3-2.95.3h-24.39c-8.5,0-15.39-6.89-15.39-15.39v-24.39c0-8.5,6.89-15.41,15.39-15.41h24.39c1,0,2,.09,2.95.3,7.09,1.36,12.46,7.61,12.46,15.11Z"/>
      <path class="cls-19" d="m742.71,4627.68h24.39c6.08,0,11.01,4.93,11.01,11.01v24.39c0,6.08-4.93,11.01-11.01,11.01h-24.39c-6.08,0-11.01-4.93-11.01-11.01v-24.39c0-6.08,4.93-11.01,11.01-11.01Z"/>
    </g>
    <g>
      <polygon class="cls-2" points="742.78 4636.31 742.78 4646.51 745.4 4646.51 745.4 4638.93 763.27 4638.93 757.55 4642 757.55 4660.01 763.27 4663.07 745.4 4663.07 745.4 4655.27 742.78 4655.27 742.78 4665.7 767.03 4665.7 767.03 4636.31 742.78 4636.31"/>
      <polygon class="cls-2" points="747.92 4656.77 755.7 4651 747.92 4645.23 747.92 4649.41 742.74 4649.41 742.74 4652.59 747.92 4652.59 747.92 4656.77"/>
    </g>
  </g>
  <g>
    <g>
      <path class="cls-25" d="m786.89,2915.75v24.41c0,8.5-6.89,15.39-15.39,15.39h-24.39c-.34,0-.68-.02-1.02-.07-8.02-.5-14.36-7.16-14.36-15.32v-24.41c0-8.16,6.34-14.82,14.36-15.32.34-.05.68-.07,1.02-.07h24.39c8.5,0,15.39,6.89,15.39,15.39Z"/>
      <path class="cls-19" d="m747.11,2904.75h24.39c6.08,0,11.01,4.93,11.01,11.01v24.39c0,6.08-4.93,11.01-11.01,11.01h-24.39c-6.08,0-11.01-4.93-11.01-11.01v-24.39c0-6.08,4.93-11.01,11.01-11.01Z"/>
    </g>
    <g>
      <polygon class="cls-2" points="747.18 2913.37 747.18 2923.58 749.81 2923.58 749.81 2916 767.67 2916 761.95 2919.06 761.95 2937.07 767.67 2940.14 749.81 2940.14 749.81 2932.34 747.18 2932.34 747.18 2942.76 771.43 2942.76 771.43 2913.37 747.18 2913.37"/>
      <polygon class="cls-2" points="752.33 2933.84 760.11 2928.07 752.33 2922.3 752.33 2926.48 747.15 2926.48 747.15 2929.66 752.33 2929.66 752.33 2933.84"/>
    </g>
  </g>
  <g>
    <rect class="cls-1" x="949.82" y="4883.48" width="55.18" height="55.18" rx="15.39" ry="15.39"/>
    <path class="cls-18" d="m965.21,4887.86h24.39c6.08,0,11.01,4.93,11.01,11.01v24.39c0,6.08-4.93,11.01-11.01,11.01h-24.39c-6.08,0-11.01-4.93-11.01-11.01v-24.39c0-6.08,4.93-11.01,11.01-11.01Z"/>
    <rect class="cls-11" x="965.91" y="4893.61" width="24" height="34.91"/>
    <rect class="cls-2" x="968.02" y="4895.73" width="19.77" height="30.74"/>
    <line class="cls-8" x1="977.91" y1="4895.73" x2="977.92" y2="4926.47"/>
    <g>
      <polyline class="cls-8" points="972.32 4904.65 972.32 4915.91 975.77 4912.46"/>
      <line class="cls-8" x1="972.32" y1="4915.91" x2="969.12" y2="4912.72"/>
    </g>
    <g>
      <polyline class="cls-8" points="983.07 4915.76 983.07 4904.8 986.43 4908.17"/>
      <line class="cls-8" x1="983.07" y1="4904.8" x2="979.96" y2="4907.91"/>
    </g>
  </g>
  <g>
    <rect class="cls-1" x="1017.05" y="5050.12" width="55.18" height="55.18" rx="15.39" ry="15.39"/>
    <rect class="cls-18" x="1021.43" y="5054.5" width="46.42" height="46.42" rx="11.01" ry="11.01"/>
    <rect class="cls-11" x="1033.15" y="5060.26" width="24" height="34.91"/>
    <rect class="cls-2" x="1035.26" y="5062.38" width="19.77" height="30.74"/>
    <line class="cls-8" x1="1045.14" y1="5062.38" x2="1045.15" y2="5093.12"/>
    <g>
      <polyline class="cls-8" points="1039.55 5071.3 1039.55 5082.56 1043.01 5079.1"/>
      <line class="cls-8" x1="1039.55" y1="5082.56" x2="1036.36" y2="5079.36"/>
    </g>
    <g>
      <polyline class="cls-8" points="1050.3 5082.4 1050.3 5071.45 1053.67 5074.81"/>
      <line class="cls-8" x1="1050.3" y1="5071.45" x2="1047.2" y2="5074.55"/>
    </g>
  </g>
  <g>
    <rect class="cls-1" x="1017.05" y="5122.4" width="55.18" height="55.18" rx="15.39" ry="15.39"/>
    <path class="cls-18" d="m1032.44,5126.78h24.39c6.08,0,11.01,4.93,11.01,11.01v24.39c0,6.08-4.93,11.01-11.01,11.01h-24.39c-6.08,0-11.01-4.93-11.01-11.01v-24.39c0-6.08,4.93-11.01,11.01-11.01Z"/>
    <rect class="cls-11" x="1033.15" y="5132.53" width="24" height="34.91"/>
    <rect class="cls-2" x="1035.26" y="5134.65" width="19.77" height="30.74"/>
    <line class="cls-8" x1="1045.14" y1="5134.65" x2="1045.15" y2="5165.39"/>
    <g>
      <polyline class="cls-8" points="1039.55 5143.57 1039.55 5154.84 1043.01 5151.38"/>
      <line class="cls-8" x1="1039.55" y1="5154.84" x2="1036.36" y2="5151.64"/>
    </g>
    <g>
      <polyline class="cls-8" points="1050.3 5154.68 1050.3 5143.73 1053.67 5147.09"/>
      <line class="cls-8" x1="1050.3" y1="5143.73" x2="1047.2" y2="5146.83"/>
    </g>
  </g>
  <g>
    <rect class="cls-1" x="1017.45" y="5194.68" width="55.18" height="55.18" rx="15.39" ry="15.39"/>
    <path class="cls-18" d="m1032.84,5199.06h24.39c6.08,0,11.01,4.93,11.01,11.01v24.39c0,6.08-4.93,11.01-11.01,11.01h-24.39c-6.08,0-11.01-4.93-11.01-11.01v-24.39c0-6.08,4.93-11.01,11.01-11.01Z"/>
    <rect class="cls-11" x="1033.54" y="5204.81" width="24" height="34.91"/>
    <rect class="cls-2" x="1035.65" y="5206.93" width="19.77" height="30.74"/>
    <line class="cls-8" x1="1045.54" y1="5206.93" x2="1045.54" y2="5237.67"/>
    <g>
      <polyline class="cls-8" points="1039.95 5215.85 1039.95 5227.11 1043.4 5223.66"/>
      <line class="cls-8" x1="1039.95" y1="5227.11" x2="1036.75" y2="5223.92"/>
    </g>
    <g>
      <polyline class="cls-8" points="1050.7 5226.96 1050.7 5216.01 1054.06 5219.37"/>
      <line class="cls-8" x1="1050.7" y1="5216.01" x2="1047.59" y2="5219.11"/>
    </g>
  </g>
  <g>
    <rect class="cls-1" x="360.92" y="5471.38" width="55.18" height="55.18" rx="15.39" ry="15.39"/>
    <path class="cls-18" d="m376.31,5475.76h24.39c6.08,0,11.01,4.93,11.01,11.01v24.39c0,6.08-4.93,11.01-11.01,11.01h-24.39c-6.08,0-11.01-4.93-11.01-11.01v-24.39c0-6.08,4.93-11.01,11.01-11.01Z"/>
    <polygon class="cls-2" points="397.23 5504.74 397.23 5496.96 389.45 5496.96 389.45 5489.17 381.67 5489.17 381.67 5481.39 372 5481.39 372 5485.17 377.89 5485.17 377.89 5492.95 385.67 5492.95 385.67 5500.73 393.45 5500.73 393.45 5508.52 401.24 5508.52 401.24 5514.41 405.01 5514.41 405.01 5504.74 397.23 5504.74"/>
  </g>
  <g>
    <g>
      <rect class="cls-25" x="361.73" y="5288.26" width="55.18" height="55.18" rx="15.39" ry="15.39"/>
      <path class="cls-19" d="m377.12,5292.64h24.39c6.08,0,11.01,4.93,11.01,11.01v24.39c0,6.08-4.93,11.01-11.01,11.01h-24.39c-6.08,0-11.01-4.93-11.01-11.01v-24.39c0-6.08,4.93-11.01,11.01-11.01Z"/>
    </g>
    <g>
      <polygon class="cls-2" points="377.2 5301.26 377.2 5311.47 379.82 5311.47 379.82 5303.89 397.68 5303.89 391.96 5306.95 391.96 5324.96 397.68 5328.03 379.82 5328.03 379.82 5320.23 377.2 5320.23 377.2 5330.65 401.44 5330.65 401.44 5301.26 377.2 5301.26"/>
      <polygon class="cls-2" points="382.34 5321.73 390.12 5315.96 382.34 5310.19 382.34 5314.37 377.16 5314.37 377.16 5317.55 382.34 5317.55 382.34 5321.73"/>
    </g>
  </g>
  <g>
    <g>
      <rect class="cls-25" x="544.56" y="5206.83" width="55.18" height="55.18" rx="15.39" ry="15.39"/>
      <path class="cls-19" d="m559.95,5211.21h24.39c6.08,0,11.01,4.93,11.01,11.01v24.39c0,6.08-4.93,11.01-11.01,11.01h-24.39c-6.08,0-11.01-4.93-11.01-11.01v-24.39c0-6.08,4.93-11.01,11.01-11.01Z"/>
    </g>
    <g>
      <polygon class="cls-2" points="560.02 5219.83 560.02 5230.04 562.65 5230.04 562.65 5222.46 580.51 5222.46 574.79 5225.53 574.79 5243.53 580.51 5246.6 562.65 5246.6 562.65 5238.8 560.02 5238.8 560.02 5249.23 584.27 5249.23 584.27 5219.83 560.02 5219.83"/>
      <polygon class="cls-2" points="565.17 5240.3 572.95 5234.53 565.17 5228.76 565.17 5232.94 559.98 5232.94 559.98 5236.12 565.17 5236.12 565.17 5240.3"/>
    </g>
  </g>
  <g>
    <g>
      <path class="cls-25" d="m502.94,5627.09v24.41c0,1.73-.3,3.41-.84,4.95-2.05,6.07-7.8,10.43-14.57,10.43h-24.39c-6.77,0-12.5-4.36-14.57-10.43-.52-1.55-.82-3.23-.82-4.95v-24.41c0-1.73.3-3.41.82-4.95,0-.02.02-.02.02-.02,2.05-6.07,7.8-10.41,14.55-10.41h24.39c6.75,0,12.5,4.34,14.57,10.41,0,0,.02,0,0,.02.55,1.55.84,3.23.84,4.95Z"/>
      <path class="cls-19" d="m463.14,5616.08h24.39c6.08,0,11.01,4.93,11.01,11.01v24.39c0,6.08-4.93,11.01-11.01,11.01h-24.39c-6.08,0-11.01-4.93-11.01-11.01v-24.39c0-6.08,4.93-11.01,11.01-11.01Z"/>
    </g>
    <g>
      <polygon class="cls-2" points="463.22 5624.7 463.22 5634.91 465.84 5634.91 465.84 5627.33 483.7 5627.33 477.98 5630.39 477.98 5648.4 483.7 5651.47 465.84 5651.47 465.84 5643.67 463.22 5643.67 463.22 5654.09 487.46 5654.09 487.46 5624.7 463.22 5624.7"/>
      <polygon class="cls-2" points="468.36 5645.17 476.14 5639.4 468.36 5633.63 468.36 5637.81 463.18 5637.81 463.18 5640.99 468.36 5640.99 468.36 5645.17"/>
    </g>
  </g>
  <g>
    <g>
      <path class="cls-25" d="m1104.07,5627.18v24.39c0,1.7-.27,3.34-.8,4.89-2.02,6.11-7.8,10.52-14.59,10.52h-24.39c-6.8,0-12.57-4.41-14.59-10.52-.55-1.55-.82-3.18-.82-4.89v-24.39c0-1.77.3-3.48.86-5.05,0-.02.02-.02.02-.02,2.07-6.02,7.8-10.32,14.52-10.32h24.39c6.73,0,12.43,4.3,14.52,10.32v.02c.57,1.57.86,3.27.86,5.05Z"/>
      <path class="cls-19" d="m1064.29,5616.16h24.39c6.08,0,11.01,4.93,11.01,11.01v24.39c0,6.08-4.93,11.01-11.01,11.01h-24.39c-6.08,0-11.01-4.93-11.01-11.01v-24.39c0-6.08,4.93-11.01,11.01-11.01Z"/>
    </g>
    <g>
      <polygon class="cls-2" points="1064.36 5624.79 1064.36 5634.99 1066.98 5634.99 1066.98 5627.41 1084.85 5627.41 1079.13 5630.48 1079.13 5648.49 1084.85 5651.56 1066.98 5651.56 1066.98 5643.75 1064.36 5643.75 1064.36 5654.18 1088.61 5654.18 1088.61 5624.79 1064.36 5624.79"/>
      <polygon class="cls-2" points="1069.5 5645.26 1077.28 5639.48 1069.5 5633.71 1069.5 5637.89 1064.32 5637.89 1064.32 5641.08 1069.5 5641.08 1069.5 5645.26"/>
    </g>
  </g>
  <path class="cls-3" d="m3689.19,5473.51v520.21h-28.14c.11-172.51.23-345.48.36-518.03v-34.87l27.77,32.68Z"/>
  <g>
    <rect class="cls-1" x="3910.03" y="5282.73" width="55.18" height="55.18" rx="15.39" ry="15.39"/>
    <path class="cls-18" d="m3925.43,5287.11h24.39c6.08,0,11.01,4.93,11.01,11.01v24.39c0,6.08-4.93,11.01-11.01,11.01h-24.39c-6.08,0-11.01-4.93-11.01-11.01v-24.39c0-6.08,4.93-11.01,11.01-11.01Z"/>
    <polygon class="cls-2" points="3946.35 5316.09 3946.35 5308.31 3938.57 5308.31 3938.57 5300.53 3930.79 5300.53 3930.79 5292.75 3921.12 5292.75 3921.12 5296.53 3927.01 5296.53 3927.01 5304.31 3934.79 5304.31 3934.79 5312.09 3942.57 5312.09 3942.57 5319.87 3950.35 5319.87 3950.35 5325.76 3954.13 5325.76 3954.13 5316.09 3946.35 5316.09"/>
  </g>
  <g>
    <rect class="cls-14" x="1225.71" y="5283.41" width="55.95" height="55.95" rx="15.61" ry="15.61"/>
    <path class="cls-24" d="m1241.32,5339.37h24.74c4.31,0,8.21-1.75,11.04-4.57l-46.81-46.81c-2.82,2.82-4.57,6.73-4.57,11.04v24.74c0,8.62,6.99,15.61,15.61,15.61Z"/>
    <rect class="cls-20" x="1230.15" y="5287.85" width="47.07" height="47.07" rx="11.17" ry="11.17"/>
    <polygon class="cls-2" points="1239.1 5315.21 1240.89 5315.21 1240.89 5325.7 1244.67 5325.7 1244.67 5315.21 1246.47 5315.21 1248.51 5304.29 1237.06 5304.29 1239.1 5315.21"/>
    <circle class="cls-2" cx="1242.78" cy="5299.22" r="3.54" transform="translate(-306.12 81.26) rotate(-3.33)"/>
    <polygon class="cls-2" points="1268.27 5304.29 1260.9 5304.29 1258.86 5315.21 1262.7 5315.21 1262.7 5325.7 1266.48 5325.7 1266.48 5315.21 1270.31 5315.21 1268.27 5304.29"/>
    <circle class="cls-2" cx="1264.59" cy="5299.22" r="3.54" transform="translate(-829.49 269.73) rotate(-9.18)"/>
    <rect class="cls-2" x="1252.83" y="5291.81" width="1.71" height="39.15"/>
  </g>
  <g>
    <rect class="cls-14" x="1666.04" y="5283.41" width="55.95" height="55.95" rx="15.61" ry="15.61"/>
    <path class="cls-24" d="m1681.65,5339.37h24.74c4.31,0,8.21-1.75,11.04-4.57l-46.81-46.81c-2.82,2.82-4.57,6.73-4.57,11.04v24.74c0,8.62,6.99,15.61,15.61,15.61Z"/>
    <rect class="cls-20" x="1670.48" y="5287.85" width="47.07" height="47.07" rx="11.17" ry="11.17"/>
    <polygon class="cls-2" points="1679.43 5315.21 1681.23 5315.21 1681.23 5325.7 1685.01 5325.7 1685.01 5315.21 1686.8 5315.21 1688.84 5304.29 1677.39 5304.29 1679.43 5315.21"/>
    <circle class="cls-2" cx="1683.12" cy="5299.22" r="3.54" transform="translate(-305.38 106.87) rotate(-3.33)"/>
    <polygon class="cls-2" points="1708.6 5304.29 1701.24 5304.29 1699.2 5315.21 1703.03 5315.21 1703.03 5325.7 1706.81 5325.7 1706.81 5315.21 1710.65 5315.21 1708.6 5304.29"/>
    <circle class="cls-2" cx="1704.92" cy="5299.22" r="3.54" transform="translate(-823.84 340) rotate(-9.18)"/>
    <rect class="cls-2" x="1693.16" y="5291.81" width="1.71" height="39.15"/>
  </g>
  <g>
    <g>
      <path class="cls-25" d="m1336.85,5451.19v24.39c0,2.55-.61,4.95-1.73,7.07-2.55,4.95-7.71,8.32-13.66,8.32h-24.39c-5.98,0-11.14-3.36-13.68-8.32-1.11-2.11-1.73-4.52-1.73-7.07v-24.39c0-1.57.23-3.07.66-4.48,1.93-6.32,7.8-10.93,14.75-10.93h24.39c6.93,0,12.8,4.61,14.73,10.93.43,1.41.66,2.91.66,4.48Z"/>
      <path class="cls-19" d="m1297.06,5440.17h24.39c6.08,0,11.01,4.93,11.01,11.01v24.39c0,6.08-4.93,11.01-11.01,11.01h-24.39c-6.08,0-11.01-4.93-11.01-11.01v-24.39c0-6.08,4.93-11.01,11.01-11.01Z"/>
    </g>
    <g>
      <polygon class="cls-2" points="1297.13 5448.79 1297.13 5459 1299.76 5459 1299.76 5451.42 1317.62 5451.42 1311.9 5454.48 1311.9 5472.49 1317.62 5475.56 1299.76 5475.56 1299.76 5467.76 1297.13 5467.76 1297.13 5478.18 1321.38 5478.18 1321.38 5448.79 1297.13 5448.79"/>
      <polygon class="cls-2" points="1302.28 5469.26 1310.06 5463.49 1302.28 5457.72 1302.28 5461.9 1297.09 5461.9 1297.09 5465.08 1302.28 5465.08 1302.28 5469.26"/>
    </g>
  </g>
  <g>
    <g>
      <path class="cls-25" d="m1818.68,5445.3v24.39c0,2.55-.61,4.95-1.73,7.07-2.57,4.95-7.73,8.32-13.68,8.32h-24.39c-5.95,0-11.11-3.36-13.66-8.32-1.11-2.11-1.73-4.52-1.73-7.07v-24.39c0-1.57.23-3.07.66-4.48,1.93-6.32,7.8-10.93,14.73-10.93h24.39c6.93,0,12.82,4.61,14.73,10.93.45,1.41.68,2.91.68,4.48Z"/>
      <path class="cls-19" d="m1778.89,5434.28h24.39c6.08,0,11.01,4.93,11.01,11.01v24.39c0,6.08-4.93,11.01-11.01,11.01h-24.39c-6.08,0-11.01-4.93-11.01-11.01v-24.39c0-6.08,4.93-11.01,11.01-11.01Z"/>
    </g>
    <g>
      <polygon class="cls-2" points="1778.96 5442.9 1778.96 5453.11 1781.59 5453.11 1781.59 5445.53 1799.45 5445.53 1793.73 5448.6 1793.73 5466.6 1799.45 5469.67 1781.59 5469.67 1781.59 5461.87 1778.96 5461.87 1778.96 5472.3 1803.21 5472.3 1803.21 5442.9 1778.96 5442.9"/>
      <polygon class="cls-2" points="1784.1 5463.37 1791.88 5457.6 1784.1 5451.83 1784.1 5456.01 1778.92 5456.01 1778.92 5459.19 1784.1 5459.19 1784.1 5463.37"/>
    </g>
  </g>
  <g>
    <g>
      <path class="cls-25" d="m2081.75,5445.3v24.39c0,2.55-.61,4.95-1.73,7.07-2.55,4.95-7.71,8.32-13.66,8.32h-24.39c-5.95,0-11.11-3.36-13.66-8.32-1.11-2.11-1.73-4.52-1.73-7.07v-24.39c0-1.57.23-3.07.66-4.48,1.93-6.32,7.8-10.93,14.73-10.93h24.39c6.93,0,12.8,4.61,14.73,10.93.43,1.41.66,2.91.66,4.48Z"/>
      <path class="cls-19" d="m2041.97,5434.28h24.39c6.08,0,11.01,4.93,11.01,11.01v24.39c0,6.08-4.93,11.01-11.01,11.01h-24.39c-6.08,0-11.01-4.93-11.01-11.01v-24.39c0-6.08,4.93-11.01,11.01-11.01Z"/>
    </g>
    <g>
      <polygon class="cls-2" points="2042.04 5442.9 2042.04 5453.11 2044.67 5453.11 2044.67 5445.53 2062.53 5445.53 2056.81 5448.6 2056.81 5466.6 2062.53 5469.67 2044.67 5469.67 2044.67 5461.87 2042.04 5461.87 2042.04 5472.3 2066.29 5472.3 2066.29 5442.9 2042.04 5442.9"/>
      <polygon class="cls-2" points="2047.19 5463.37 2054.97 5457.6 2047.19 5451.83 2047.19 5456.01 2042 5456.01 2042 5459.19 2047.19 5459.19 2047.19 5463.37"/>
    </g>
  </g>
  <g>
    <g>
      <path class="cls-25" d="m2373.9,5445.3v24.39c0,2.55-.61,4.95-1.73,7.07-2.55,4.95-7.71,8.32-13.66,8.32h-24.39c-5.95,0-11.11-3.36-13.68-8.32-1.11-2.11-1.73-4.52-1.73-7.07v-24.39c0-1.57.23-3.07.68-4.48,1.91-6.32,7.8-10.93,14.73-10.93h24.39c6.93,0,12.8,4.61,14.73,10.93.43,1.41.66,2.91.66,4.48Z"/>
      <path class="cls-19" d="m2334.12,5434.28h24.39c6.08,0,11.01,4.93,11.01,11.01v24.39c0,6.08-4.93,11.01-11.01,11.01h-24.39c-6.08,0-11.01-4.93-11.01-11.01v-24.39c0-6.08,4.93-11.01,11.01-11.01Z"/>
    </g>
    <g>
      <polygon class="cls-2" points="2334.19 5442.9 2334.19 5453.11 2336.82 5453.11 2336.82 5445.53 2354.68 5445.53 2348.96 5448.6 2348.96 5466.6 2354.68 5469.67 2336.82 5469.67 2336.82 5461.87 2334.19 5461.87 2334.19 5472.3 2358.44 5472.3 2358.44 5442.9 2334.19 5442.9"/>
      <polygon class="cls-2" points="2339.33 5463.37 2347.11 5457.6 2339.33 5451.83 2339.33 5456.01 2334.15 5456.01 2334.15 5459.19 2339.33 5459.19 2339.33 5463.37"/>
    </g>
  </g>
  <g>
    <g>
      <path class="cls-25" d="m2932.84,5445.3v24.39c0,2.14-.43,4.16-1.2,6-2.34,5.52-7.82,9.39-14.18,9.39h-24.41c-6.36,0-11.84-3.86-14.18-9.39-.77-1.84-1.2-3.86-1.2-6v-24.39c0-1.57.23-3.07.66-4.48,1.93-6.32,7.8-10.93,14.73-10.93h24.41c6.93,0,12.8,4.61,14.73,10.93.43,1.41.66,2.91.66,4.48Z"/>
      <path class="cls-19" d="m2893.05,5434.28h24.39c6.08,0,11.01,4.93,11.01,11.01v24.39c0,6.08-4.93,11.01-11.01,11.01h-24.39c-6.08,0-11.01-4.93-11.01-11.01v-24.39c0-6.08,4.93-11.01,11.01-11.01Z"/>
    </g>
    <g>
      <polygon class="cls-2" points="2893.13 5442.9 2893.13 5453.11 2895.75 5453.11 2895.75 5445.53 2913.62 5445.53 2907.89 5448.6 2907.89 5466.6 2913.62 5469.67 2895.75 5469.67 2895.75 5461.87 2893.13 5461.87 2893.13 5472.3 2917.38 5472.3 2917.38 5442.9 2893.13 5442.9"/>
      <polygon class="cls-2" points="2898.27 5463.37 2906.05 5457.6 2898.27 5451.83 2898.27 5456.01 2893.09 5456.01 2893.09 5459.19 2898.27 5459.19 2898.27 5463.37"/>
    </g>
  </g>
  <g>
    <g>
      <path class="cls-25" d="m3524.59,5445.3v24.39c0,2.14-.43,4.16-1.2,6-2.34,5.52-7.82,9.39-14.18,9.39h-24.39c-6.36,0-11.84-3.86-14.21-9.39-.77-1.84-1.2-3.86-1.2-6v-24.39c0-1.57.23-3.07.68-4.48,1.91-6.32,7.8-10.93,14.73-10.93h24.39c6.93,0,12.8,4.61,14.73,10.93.43,1.41.66,2.91.66,4.48Z"/>
      <path class="cls-19" d="m3484.8,5434.28h24.39c6.08,0,11.01,4.93,11.01,11.01v24.39c0,6.08-4.93,11.01-11.01,11.01h-24.39c-6.08,0-11.01-4.93-11.01-11.01v-24.39c0-6.08,4.93-11.01,11.01-11.01Z"/>
    </g>
    <g>
      <polygon class="cls-2" points="3484.87 5442.9 3484.87 5453.11 3487.5 5453.11 3487.5 5445.53 3505.36 5445.53 3499.64 5448.6 3499.64 5466.6 3505.36 5469.67 3487.5 5469.67 3487.5 5461.87 3484.87 5461.87 3484.87 5472.3 3509.12 5472.3 3509.12 5442.9 3484.87 5442.9"/>
      <polygon class="cls-2" points="3490.02 5463.37 3497.8 5457.6 3490.02 5451.83 3490.02 5456.01 3484.84 5456.01 3484.84 5459.19 3490.02 5459.19 3490.02 5463.37"/>
    </g>
  </g>
  <g>
    <g>
      <rect class="cls-25" x="4070.39" y="5429.9" width="55.18" height="55.18" rx="15.39" ry="15.39"/>
      <path class="cls-19" d="m4085.78,5434.28h24.39c6.08,0,11.01,4.93,11.01,11.01v24.39c0,6.08-4.93,11.01-11.01,11.01h-24.39c-6.08,0-11.01-4.93-11.01-11.01v-24.39c0-6.08,4.93-11.01,11.01-11.01Z"/>
    </g>
    <g>
      <polygon class="cls-2" points="4085.85 5442.9 4085.85 5453.11 4088.48 5453.11 4088.48 5445.53 4106.34 5445.53 4100.62 5448.6 4100.62 5466.6 4106.34 5469.67 4088.48 5469.67 4088.48 5461.87 4085.85 5461.87 4085.85 5472.3 4110.1 5472.3 4110.1 5442.9 4085.85 5442.9"/>
      <polygon class="cls-2" points="4090.99 5463.37 4098.77 5457.6 4090.99 5451.83 4090.99 5456.01 4085.81 5456.01 4085.81 5459.19 4090.99 5459.19 4090.99 5463.37"/>
    </g>
  </g>
  <g>
    <g>
      <rect class="cls-25" x="4468.85" y="5429.9" width="55.18" height="55.18" rx="15.39" ry="15.39"/>
      <path class="cls-19" d="m4484.24,5434.28h24.39c6.08,0,11.01,4.93,11.01,11.01v24.39c0,6.08-4.93,11.01-11.01,11.01h-24.39c-6.08,0-11.01-4.93-11.01-11.01v-24.39c0-6.08,4.93-11.01,11.01-11.01Z"/>
    </g>
    <g>
      <polygon class="cls-2" points="4484.32 5442.9 4484.32 5453.11 4486.94 5453.11 4486.94 5445.53 4504.8 5445.53 4499.08 5448.6 4499.08 5466.6 4504.8 5469.67 4486.94 5469.67 4486.94 5461.87 4484.32 5461.87 4484.32 5472.3 4508.56 5472.3 4508.56 5442.9 4484.32 5442.9"/>
      <polygon class="cls-2" points="4489.46 5463.37 4497.24 5457.6 4489.46 5451.83 4489.46 5456.01 4484.28 5456.01 4484.28 5459.19 4489.46 5459.19 4489.46 5463.37"/>
    </g>
  </g>
  <g>
    <g>
      <rect class="cls-25" x="4637.63" y="5282.73" width="55.18" height="55.18" rx="15.39" ry="15.39"/>
      <path class="cls-19" d="m4653.02,5287.11h24.39c6.08,0,11.01,4.93,11.01,11.01v24.39c0,6.08-4.93,11.01-11.01,11.01h-24.39c-6.08,0-11.01-4.93-11.01-11.01v-24.39c0-6.08,4.93-11.01,11.01-11.01Z"/>
    </g>
    <g>
      <polygon class="cls-2" points="4653.09 5295.74 4653.09 5305.94 4655.72 5305.94 4655.72 5298.36 4673.58 5298.36 4667.86 5301.43 4667.86 5319.44 4673.58 5322.5 4655.72 5322.5 4655.72 5314.7 4653.09 5314.7 4653.09 5325.13 4677.34 5325.13 4677.34 5295.74 4653.09 5295.74"/>
      <polygon class="cls-2" points="4658.24 5316.2 4666.02 5310.43 4658.24 5304.66 4658.24 5308.84 4653.06 5308.84 4653.06 5312.02 4658.24 5312.02 4658.24 5316.2"/>
    </g>
  </g>
  <g>
    <g>
      <rect class="cls-25" x="4199.2" y="5284.02" width="55.18" height="55.18" rx="15.39" ry="15.39"/>
      <path class="cls-19" d="m4214.59,5288.4h24.39c6.08,0,11.01,4.93,11.01,11.01v24.39c0,6.08-4.93,11.01-11.01,11.01h-24.39c-6.08,0-11.01-4.93-11.01-11.01v-24.39c0-6.08,4.93-11.01,11.01-11.01Z"/>
    </g>
    <g>
      <polygon class="cls-2" points="4214.67 5297.03 4214.67 5307.23 4217.29 5307.23 4217.29 5299.65 4235.15 5299.65 4229.43 5302.72 4229.43 5320.73 4235.15 5323.79 4217.29 5323.79 4217.29 5315.99 4214.67 5315.99 4214.67 5326.42 4238.91 5326.42 4238.91 5297.03 4214.67 5297.03"/>
      <text/>
    </g>
  </g>
  <g>
    <g>
      <rect class="cls-25" x="3489.65" y="5281.48" width="55.18" height="55.18" rx="15.39" ry="15.39"/>
      <path class="cls-19" d="m3505.05,5285.86h24.39c6.08,0,11.01,4.93,11.01,11.01v24.39c0,6.08-4.93,11.01-11.01,11.01h-24.39c-6.08,0-11.01-4.93-11.01-11.01v-24.39c0-6.08,4.93-11.01,11.01-11.01Z"/>
    </g>
    <g>
      <polygon class="cls-2" points="3505.12 5294.49 3505.12 5304.69 3507.74 5304.69 3507.74 5297.11 3525.61 5297.11 3519.88 5300.18 3519.88 5318.19 3525.61 5321.26 3507.74 5321.26 3507.74 5313.45 3505.12 5313.45 3505.12 5323.88 3529.37 5323.88 3529.37 5294.49 3505.12 5294.49"/>
      <polygon class="cls-2" points="3510.26 5314.95 3518.04 5309.18 3510.26 5303.41 3510.26 5307.59 3505.08 5307.59 3505.08 5310.77 3510.26 5310.77 3510.26 5314.95"/>
    </g>
    <g>
      <g>
        <rect class="cls-25" x="1827.47" y="5281.48" width="55.18" height="55.18" rx="15.39" ry="15.39"/>
        <path class="cls-19" d="m1842.86,5285.86h24.39c6.08,0,11.01,4.93,11.01,11.01v24.39c0,6.08-4.93,11.01-11.01,11.01h-24.39c-6.08,0-11.01-4.93-11.01-11.01v-24.39c0-6.08,4.93-11.01,11.01-11.01Z"/>
      </g>
      <g>
        <polygon class="cls-2" points="1842.93 5294.49 1842.93 5304.69 1845.56 5304.69 1845.56 5297.11 1863.42 5297.11 1857.7 5300.18 1857.7 5318.19 1863.42 5321.26 1845.56 5321.26 1845.56 5313.45 1842.93 5313.45 1842.93 5323.88 1867.18 5323.88 1867.18 5294.49 1842.93 5294.49"/>
        <polygon class="cls-2" points="1848.08 5314.95 1855.86 5309.18 1848.08 5303.41 1848.08 5307.59 1842.9 5307.59 1842.9 5310.77 1848.08 5310.77 1848.08 5314.95"/>
      </g>
    </g>
  </g>
  <g>
    <g>
      <rect class="cls-25" x="2919.44" y="5283.8" width="55.18" height="55.18" rx="15.39" ry="15.39"/>
      <path class="cls-19" d="m2934.83,5288.18h24.39c6.08,0,11.01,4.93,11.01,11.01v24.39c0,6.08-4.93,11.01-11.01,11.01h-24.39c-6.08,0-11.01-4.93-11.01-11.01v-24.39c0-6.08,4.93-11.01,11.01-11.01Z"/>
    </g>
    <g>
      <polygon class="cls-2" points="2934.91 5296.8 2934.91 5307.01 2937.53 5307.01 2937.53 5299.43 2955.39 5299.43 2949.67 5302.5 2949.67 5320.5 2955.39 5323.57 2937.53 5323.57 2937.53 5315.77 2934.91 5315.77 2934.91 5326.2 2959.15 5326.2 2959.15 5296.8 2934.91 5296.8"/>
      <polygon class="cls-2" points="2940.05 5317.27 2947.83 5311.5 2940.05 5305.73 2940.05 5309.91 2934.87 5309.91 2934.87 5313.09 2940.05 5313.09 2940.05 5317.27"/>
    </g>
  </g>
  <g>
    <g>
      <rect class="cls-25" x="2768.44" y="5283.8" width="55.18" height="55.18" rx="15.39" ry="15.39"/>
      <path class="cls-19" d="m2783.84,5288.18h24.39c6.08,0,11.01,4.93,11.01,11.01v24.39c0,6.08-4.93,11.01-11.01,11.01h-24.39c-6.08,0-11.01-4.93-11.01-11.01v-24.39c0-6.08,4.93-11.01,11.01-11.01Z"/>
    </g>
    <g>
      <polygon class="cls-2" points="2783.91 5296.8 2783.91 5307.01 2786.53 5307.01 2786.53 5299.43 2804.4 5299.43 2798.68 5302.5 2798.68 5320.5 2804.4 5323.57 2786.53 5323.57 2786.53 5315.77 2783.91 5315.77 2783.91 5326.2 2808.16 5326.2 2808.16 5296.8 2783.91 5296.8"/>
      <polygon class="cls-2" points="2789.05 5317.27 2796.83 5311.5 2789.05 5305.73 2789.05 5309.91 2783.87 5309.91 2783.87 5313.09 2789.05 5313.09 2789.05 5317.27"/>
    </g>
  </g>
  <g>
    <g>
      <rect class="cls-25" x="2400.76" y="5283.8" width="55.18" height="55.18" rx="15.39" ry="15.39"/>
      <path class="cls-19" d="m2416.16,5288.18h24.39c6.08,0,11.01,4.93,11.01,11.01v24.39c0,6.08-4.93,11.01-11.01,11.01h-24.39c-6.08,0-11.01-4.93-11.01-11.01v-24.39c0-6.08,4.93-11.01,11.01-11.01Z"/>
    </g>
    <g>
      <polygon class="cls-2" points="2416.23 5296.8 2416.23 5307.01 2418.85 5307.01 2418.85 5299.43 2436.72 5299.43 2431 5302.5 2431 5320.5 2436.72 5323.57 2418.85 5323.57 2418.85 5315.77 2416.23 5315.77 2416.23 5326.2 2440.48 5326.2 2440.48 5296.8 2416.23 5296.8"/>
      <polygon class="cls-2" points="2421.37 5317.27 2429.15 5311.5 2421.37 5305.73 2421.37 5309.91 2416.19 5309.91 2416.19 5313.09 2421.37 5313.09 2421.37 5317.27"/>
    </g>
  </g>
  <g>
    <g>
      <rect class="cls-25" x="2026.57" y="5283.8" width="55.18" height="55.18" rx="15.39" ry="15.39"/>
      <path class="cls-19" d="m2041.97,5288.18h24.39c6.08,0,11.01,4.93,11.01,11.01v24.39c0,6.08-4.93,11.01-11.01,11.01h-24.39c-6.08,0-11.01-4.93-11.01-11.01v-24.39c0-6.08,4.93-11.01,11.01-11.01Z"/>
    </g>
    <g>
      <polygon class="cls-2" points="2042.04 5296.8 2042.04 5307.01 2044.66 5307.01 2044.66 5299.43 2062.53 5299.43 2056.81 5302.5 2056.81 5320.5 2062.53 5323.57 2044.66 5323.57 2044.66 5315.77 2042.04 5315.77 2042.04 5326.2 2066.29 5326.2 2066.29 5296.8 2042.04 5296.8"/>
      <polygon class="cls-2" points="2047.18 5317.27 2054.96 5311.5 2047.18 5305.73 2047.18 5309.91 2042 5309.91 2042 5313.09 2047.18 5313.09 2047.18 5317.27"/>
    </g>
  </g>
  <g>
    <g>
      <rect class="cls-25" x="2185.6" y="5283.8" width="55.18" height="55.18" rx="15.39" ry="15.39"/>
      <path class="cls-19" d="m2200.99,5288.18h24.39c6.08,0,11.01,4.93,11.01,11.01v24.39c0,6.08-4.93,11.01-11.01,11.01h-24.39c-6.08,0-11.01-4.93-11.01-11.01v-24.39c0-6.08,4.93-11.01,11.01-11.01Z"/>
    </g>
    <g>
      <polygon class="cls-2" points="2201.06 5296.8 2201.06 5307.01 2203.69 5307.01 2203.69 5299.43 2221.55 5299.43 2215.83 5302.5 2215.83 5320.5 2221.55 5323.57 2203.69 5323.57 2203.69 5315.77 2201.06 5315.77 2201.06 5326.2 2225.31 5326.2 2225.31 5296.8 2201.06 5296.8"/>
      <polygon class="cls-2" points="2206.2 5317.27 2213.98 5311.5 2206.2 5305.73 2206.2 5309.91 2201.02 5309.91 2201.02 5313.09 2206.2 5313.09 2206.2 5317.27"/>
    </g>
  </g>
  <text class="cls-16" transform="translate(128.74 5218.41)"><tspan x="0" y="0">400а</tspan></text>
  <text class="cls-16" transform="translate(476.47 5134.65)"><tspan x="0" y="0">400</tspan></text>
  <text class="cls-16" transform="translate(465.77 4691.04)"><tspan x="0" y="0">492</tspan></text>
  <text class="cls-16" transform="translate(461.81 4237.18)"><tspan x="0" y="0">490</tspan></text>
  <text class="cls-16" transform="translate(464.64 3905.89)"><tspan x="0" y="0">488</tspan></text>
  <text class="cls-16" transform="translate(464.64 4029.64)"><tspan x="0" y="0">488а</tspan></text>
  <text class="cls-16" transform="translate(465.77 3600.25)"><tspan x="0" y="0">486</tspan></text>
  <text class="cls-16" transform="translate(466.89 3221.43)"><tspan x="0" y="0">484</tspan></text>
  <text class="cls-16" transform="translate(466.89 2956.63)"><tspan x="0" y="0">482</tspan></text>
  <text class="cls-16" transform="translate(468.01 2691.33)"><tspan x="0" y="0">480</tspan></text>
  <text class="cls-16" transform="translate(469.14 2320.71)"><tspan x="0" y="0">478</tspan></text>
  <text class="cls-16" transform="translate(468.01 2013.1)"><tspan x="0" y="0">476</tspan></text>
  <text class="cls-16" transform="translate(464.64 1684.95)"><tspan x="0" y="0">474</tspan></text>
  <text class="cls-16" transform="translate(475.34 1422.98)"><tspan x="0" y="0">472</tspan></text>
  <text class="cls-16" transform="translate(465.77 1065.74)"><tspan x="0" y="0">470</tspan></text>
  <text class="cls-16" transform="translate(476.47 622.66)"><tspan x="0" y="0">468</tspan></text>
  <text class="cls-16" transform="translate(475.34 255.49)"><tspan x="0" y="0">466</tspan></text>
  <text class="cls-16" transform="translate(917.91 4623.29)"><tspan x="0" y="0">481</tspan></text>
  <text class="cls-16" transform="translate(919.63 4193.17)"><tspan x="0" y="0">479</tspan></text>
  <text class="cls-16" transform="translate(915.88 3778.17)"><tspan x="0" y="0">477</tspan></text>
  <text class="cls-16" transform="translate(905.3 3305.24)"><tspan x="0" y="0">475</tspan></text>
  <text class="cls-16" transform="translate(915.88 2869.1)"><tspan x="0" y="0">473</tspan></text>
  <text class="cls-16" transform="translate(921.35 2617.61)"><tspan x="0" y="0">471</tspan></text>
  <text class="cls-16" transform="translate(917.91 1946.09)"><tspan x="0" y="0">469</tspan></text>
  <text class="cls-16" transform="translate(917.59 1725.72)"><tspan x="0" y="0">467</tspan></text>
  <text class="cls-16" transform="translate(919.63 1466.98)"><tspan x="0" y="0">465</tspan></text>
  <text class="cls-16" transform="translate(917.92 1225.8)"><tspan x="0" y="0">463</tspan></text>
  <text class="cls-16" transform="translate(920.76 999.5)"><tspan x="0" y="0">461</tspan></text>
  <text class="cls-16" transform="translate(919.63 740.62) scale(.92 1)"><tspan x="0" y="0">459</tspan></text>
  <text class="cls-15" transform="translate(1471.43 5796.32) rotate(-90)"><tspan x="0" y="0">438</tspan></text>
  <text class="cls-15" transform="translate(1890.8 5220.73) rotate(-90)"><tspan x="0" y="0">423</tspan></text>
  <text class="cls-15" transform="translate(2048.49 5220.73) rotate(-90)"><tspan x="0" y="0">425</tspan></text>
  <text class="cls-15" transform="translate(2544.88 5220.73) rotate(-90)"><tspan x="0" y="0">429</tspan></text>
  <text class="cls-15" transform="translate(2242.18 5220.73) rotate(-90)"><tspan x="0" y="0">427</tspan></text>
  <text class="cls-15" transform="translate(2836.32 5242.65) rotate(-90)"><tspan x="0" y="0">431а</tspan></text>
  <text class="cls-15" transform="translate(2997.43 5220.73) rotate(-90)"><tspan x="0" y="0">431</tspan></text>
  <text class="cls-15" transform="translate(3385.36 5220.73) rotate(-90)"><tspan x="0" y="0">433</tspan></text>
  <text class="cls-15" transform="translate(4186.57 5220.73) rotate(-90)"><tspan x="0" y="0">435</tspan></text>
  <text class="cls-15" transform="translate(4534.94 5220.73) rotate(-90)"><tspan x="0" y="0">437</tspan></text>
  <text class="cls-15" transform="translate(1882.2 5796.32) rotate(-90)"><tspan x="0" y="0">440</tspan></text>
  <text class="cls-15" transform="translate(2156.72 5796.32) rotate(-90)"><tspan x="0" y="0">442</tspan></text>
  <text class="cls-15" transform="translate(2506.11 5796.32) rotate(-90)"><tspan x="0" y="0">444</tspan></text>
  <text class="cls-15" transform="translate(2959.63 5796.32) rotate(-90)"><tspan x="0" y="0">446</tspan></text>
  <text class="cls-15" transform="translate(3390.74 5796.32) rotate(-90)"><tspan x="0" y="0">448</tspan></text>
  <text class="cls-15" transform="translate(4225.77 5796.32) rotate(-90)"><tspan x="0" y="0">450</tspan></text>
  <text class="cls-15" transform="translate(4555.01 5796.32) rotate(-90)"><tspan x="0" y="0">452</tspan></text>
  <line class="cls-7" x1="1.14" y1="5008.78" x2="24.61" y2="5040.77"/>
  <g>
    <polygon class="cls-3" points="398.8 5656.45 398.8 6235.51 375.32 6210.71 375.32 5622.13 375.34 5622.13 398.8 5656.45"/>
    <line class="cls-7" x1="398.79" y1="5656.45" x2="375.33" y2="5622.12"/>
  </g>
  <polygon class="cls-3" points="544.56 5656.45 544.56 6235.51 521.08 6235.51 521.08 5622.13 521.1 5622.13 544.56 5656.45"/>
  <line class="cls-7" x1="544.56" y1="5656.45" x2="521.1" y2="5622.12"/>
  <polyline class="cls-3" points="1169.37 6235.51 544.56 6235.51 521.08 6235.51 398.8 6235.51 387.07 6223.12 386.05 6222.05 375.32 6210.71 386.05 6210.71 398.8 6210.71 521.08 6210.71 544.56 6210.71 1169.37 6210.71"/>
  <line class="cls-7" x1="1169.38" y1="5293.43" x2="1195.24" y2="5293.43"/>
  <polyline class="cls-3" points="1169.37 6210.71 1169.37 5993.13 1182.3 6009.63 1196.33 6027.52 1196.33 6235.51 1169.37 6235.51"/>
  <text class="cls-15" transform="translate(488.48 5993.72) rotate(-90)"><tspan x="0" y="0">430</tspan></text>
  <text class="cls-17" transform="translate(675.98 5964.98)"><tspan x="0" y="0">432(532)</tspan></text>
  <path class="cls-7" d="m402.8,5224.1l.65-217.49V113.53h-.23l-13.91-16.06-13.5-15.58c0,52.69-1.05,4479.59-.73,4926.89l.25,31.97"/>
  <path class="cls-7" d="m375.82,81.89v-.48l.16.18,27.48,31.73v.2"/>
  <polygon class="cls-3" points="375.33 5397.97 375.57 5372.59 1.14 5372.59 24.61 5397.97 375.33 5397.97"/>
  <polygon class="cls-5" points="639.16 4406.39 402.84 4406.39 375.43 4385.95 375.2 4385.77 375.18 4385.76 375.59 4385.76 639.13 4385.94 639.16 4406.39"/>
  <polygon class="cls-5" points="639.16 4077.76 402.84 4077.76 375.43 4057.31 375.2 4057.14 375.18 4057.12 375.59 4057.12 639.13 4057.3 639.16 4077.76"/>
  <polygon class="cls-5" points="639.16 3948.77 402.84 3948.77 375.43 3928.32 375.2 3928.14 375.18 3928.13 375.59 3928.13 639.13 3928.31 639.16 3948.77"/>
  <polygon class="cls-5" points="639.16 3832.5 402.84 3832.5 375.43 3812.05 375.2 3811.87 375.18 3811.86 375.59 3811.86 639.13 3812.04 639.16 3832.5"/>
  <polygon class="cls-5" points="639.16 3393.88 402.84 3393.88 375.43 3373.43 375.2 3373.25 375.18 3373.24 375.59 3373.24 639.13 3373.42 639.16 3393.88"/>
  <polygon class="cls-5" points="639.16 3032.28 402.84 3032.28 375.43 3011.83 375.2 3011.65 375.18 3011.64 375.59 3011.64 639.13 3011.82 639.16 3032.28"/>
  <polygon class="cls-5" points="639.16 2858.71 402.84 2858.71 375.43 2838.27 375.2 2838.09 375.18 2838.07 375.59 2838.07 639.13 2838.26 639.16 2858.71"/>
  <polygon class="cls-5" points="639.16 2516.89 402.84 2516.89 375.43 2496.45 375.2 2496.27 375.18 2496.26 375.59 2496.26 639.13 2496.44 639.16 2516.89"/>
  <polygon class="cls-5" points="639.16 2143.42 402.84 2143.42 375.43 2122.97 375.2 2122.79 375.18 2122.78 375.59 2122.78 639.13 2122.96 639.16 2143.42"/>
  <polygon class="cls-5" points="639.16 1847.46 402.84 1847.46 375.43 1827.02 375.2 1826.84 375.18 1826.82 375.59 1826.82 639.13 1827.01 639.16 1847.46"/>
  <polygon class="cls-5" points="639.16 1574.66 402.84 1574.66 375.43 1554.22 375.2 1554.04 375.18 1554.02 375.59 1554.02 639.13 1554.21 639.16 1574.66"/>
  <polygon class="cls-5" points="639.16 1262.22 402.84 1262.22 375.43 1241.78 375.2 1241.6 375.18 1241.59 375.59 1241.59 639.13 1241.77 639.16 1262.22"/>
  <polygon class="cls-5" points="639.16 866.22 402.84 866.22 375.43 845.78 375.2 845.6 375.18 845.59 375.59 845.59 639.13 845.77 639.16 866.22"/>
  <polygon class="cls-5" points="639.16 375.82 402.84 375.82 375.43 355.38 375.2 355.2 375.18 355.19 375.59 355.19 639.13 355.37 639.16 375.82"/>
  <path class="cls-7" d="m4722.89,5006.61l-3527.59-.14c.64-5.39,0-4892.95,0-4892.95"/>
  <polygon class="cls-3" points="1483.43 5293.43 1483.43 5040.82 1459.43 5006.61 1459.43 5040.82 1459.43 5293.43 1483.43 5293.43"/>
  <polygon class="cls-3" points="1775.5 5293.43 1775.5 5040.82 1751.5 5006.62 1751.5 5040.82 1751.5 5293.43 1775.5 5293.43"/>
  <polygon class="cls-3" points="1957.22 5293.43 1957.22 5040.82 1933.21 5006.61 1933.21 5040.82 1933.21 5293.43 1957.22 5293.43"/>
  <line class="cls-7" x1="1169.37" y1="5656.45" x2="1169.37" y2="5993.13"/>
  <polygon class="cls-3" points="1169.32 2496.34 1169.32 2516.81 770.04 2516.81 746.22 2496.34 1169.32 2496.34"/>
  <path class="cls-3" d="m4014.87,5473.8l.02,519.92h-28.18c.11-172.51.25-345.18.39-517.74l-.39-34.87,28.16,32.68Z"/>
  <polygon class="cls-3" points="1169.26 2035.67 1169.26 2056.13 769.98 2056.13 746.16 2035.67 1169.26 2035.67"/>
  <polygon class="cls-3" points="1169.32 2670.87 1169.32 2691.33 770.04 2691.33 746.22 2670.87 1169.32 2670.87"/>
  <polygon class="cls-3" points="1169.26 3011.72 1169.26 3032.19 769.98 3032.19 746.16 3011.72 1169.26 3011.72"/>
  <polygon class="cls-3" points="1169.26 3578.99 1169.26 3599.46 769.98 3599.46 746.16 3578.99 1169.26 3578.99"/>
  <polygon class="cls-3" points="1169.26 3917.9 1169.26 3938.36 769.98 3938.36 746.16 3917.9 1169.26 3917.9"/>
  <polygon class="cls-3" points="1169.26 4418.67 1169.26 4439.14 769.98 4439.14 746.16 4418.67 1169.26 4418.67"/>
  <polygon class="cls-3" points="1169.26 1809.14 1169.26 1829.61 769.98 1829.61 746.16 1809.14 1169.26 1809.14"/>
  <polygon class="cls-3" points="1169.26 1562.15 1169.26 1582.61 769.98 1582.61 746.16 1562.15 1169.26 1562.15"/>
  <polygon class="cls-3" points="1169.26 1303.35 1169.26 1323.81 769.98 1323.81 746.16 1303.35 1169.26 1303.35"/>
  <polygon class="cls-3" points="1169.26 1090.45 1169.26 1110.92 769.98 1110.92 746.16 1090.45 1169.26 1090.45"/>
  <polygon class="cls-3" points="1169.26 835.35 1169.26 855.82 769.98 855.82 746.16 835.36 1169.26 835.35"/>
  <polygon class="cls-3" points="1169.26 583.78 1169.26 604.24 769.98 604.24 746.16 583.78 1169.26 583.78"/>
  <polygon class="cls-3" points="1169.26 395.39 1169.26 415.85 769.98 415.85 746.16 395.39 1169.26 395.39"/>
  <line class="cls-7" x1="769.98" y1="2056.13" x2="770.05" y2="2206.41"/>
  <polygon class="cls-5" points="639.15 4906.05 402.83 4906.05 375.42 4885.6 375.2 4885.43 375.17 4885.41 375.58 4885.41 639.12 4885.59 639.15 4906.05"/>
  <polygon class="cls-5" points="639.15 4992.8 402.83 4992.8 375.42 4972.35 375.2 4972.18 375.17 4972.16 375.58 4972.16 639.12 4972.34 639.15 4992.8"/>
</svg>
