<?xml version="1.0" encoding="UTF-8"?>
<svg id="_Слой_2" data-name="Слой 2" xmlns="http://www.w3.org/2000/svg" viewBox="0 0 4752.76 6237.51">
  <defs>
    <style>
      .cls-1 {
        fill: #efff1f;
      }

      .cls-2 {
        fill: #fff;
      }

      .cls-3, .cls-4, .cls-5, .cls-6, .cls-7, .cls-8, .cls-9, .cls-10 {
        stroke-linecap: round;
        stroke-linejoin: round;
      }

      .cls-3, .cls-4, .cls-5, .cls-6, .cls-8, .cls-10 {
        stroke: #000;
        stroke-width: 4px;
      }

      .cls-3, .cls-7, .cls-9 {
        fill: none;
      }

      .cls-11 {
        fill: #003dbf;
      }

      .cls-12, .cls-4 {
        fill: aqua;
      }

      .cls-13 {
        font-size: 87px;
      }

      .cls-13, .cls-14, .cls-15 {
        font-family: ScoreCloudSS-Regular, ScoreCloudSS;
      }

      .cls-16 {
        fill: #ebc800;
      }

      .cls-14 {
        font-size: 67.66px;
      }

      .cls-5, .cls-17 {
        fill: #f7931e;
      }

      .cls-18 {
        fill: #287100;
      }

      .cls-19 {
        fill: #007ad4;
      }

      .cls-6 {
        fill: #3f9aff;
      }

      .cls-15 {
        font-size: 102.27px;
      }

      .cls-20 {
        opacity: .14;
      }

      .cls-21 {
        fill: #971fff;
      }

      .cls-7 {
        stroke: #fff;
      }

      .cls-7, .cls-9 {
        stroke-width: 2px;
      }

      .cls-8 {
        fill: #7d9e9d;
      }

      .cls-22 {
        fill: #1d7bd8;
      }

      .cls-23 {
        fill: #0062c9;
      }

      .cls-24 {
        fill: #8ac900;
      }

      .cls-9 {
        stroke: #ebc800;
      }

      .cls-10 {
        fill: #d3950b;
      }
    </style>
  </defs>
  <rect class="cls-22" x="13.74" y="5024.77" width="369.95" height="360.51"/>
  <rect class="cls-22" x="386.9" y="5639.48" width="796.27" height="583.63"/>
  <rect class="cls-22" x="1187.01" y="5463.37" width="3550.24" height="545.97"/>
  <rect class="cls-22" x="390.18" y="97" width="793.15" height="4909.61"/>
  <rect class="cls-22" x="1760.47" y="5023.72" width="2976.77" height="282.01"/>
  <rect class="cls-21" x="760.05" y="221.69" width="419.36" height="372.32"/>
  <polygon class="cls-17" points="1170.19 2215.58 759.99 2212.27 760.79 2047.49 1186.88 2047.49 1170.19 2215.58"/>
  <rect class="cls-21" x="1187.01" y="5018.18" width="573.47" height="294.76"/>
  <rect class="cls-12" x="1169.76" y="128.74" width="26.41" height="4877.76"/>
  <polygon class="cls-12" points="1196.17 136.24 1170.79 134.72 1170.19 85.58 1196.47 113.54 1196.17 136.24"/>
  <polyline class="cls-3" points="1170.19 4769.37 1170.19 85.58 1196.17 113.53"/>
  <rect class="cls-12" x="3987.57" y="5441.12" width="746.43" height="33.3"/>
  <path class="cls-4" d="m4015.73,5473.8c8.52,2.77,708.02,0,708.02,0"/>
  <rect class="cls-12" x="746.96" y="210.47" width="427.12" height="20.51"/>
  <rect class="cls-12" x="746.96" y="210.46" width="23.96" height="1995.95"/>
  <rect class="cls-12" x="746.17" y="2496.34" width="24.74" height="2271.01"/>
  <rect class="cls-12" x="1170.23" y="5440.83" width="2492.04" height="34.83"/>
  <rect class="cls-12" x="1170.24" y="5440.83" width="25.92" height="552.3"/>
  <line class="cls-3" x1="1196.16" y1="5475.67" x2="3662.28" y2="5475.67"/>
  <rect class="cls-12" x="1171.27" y="5006.48" width="3551.8" height="34.21"/>
  <polyline class="cls-3" points="4723.75 5040.82 4013.66 5040.82 3989.66 5040.82 3989.64 5040.82 3659.32 5040.82 3659.28 5040.82 3635.34 5040.82 3635.32 5040.82 1756.52 5040.82 1732.52 5040.82 1484.3 5040.82 1484.25 5040.82 1460.32 5040.82 1460.3 5040.82 1196.17 5040.82"/>
  <path class="cls-4" d="m1751,5473.22v520.21h-28.14c.11-172.51.23-345.48.36-518.03v-34.87l27.77,32.68Z"/>
  <path class="cls-4" d="m2015,5473.52v520.21h-28.14c.11-172.51.23-345.48.36-518.03v-34.87l27.77,32.68Z"/>
  <path class="cls-4" d="m2263.35,5473.52v520.21h-28.14c.11-172.51.23-345.48.36-518.03v-34.87l27.77,32.68Z"/>
  <path class="cls-4" d="m2754.8,5473.65v520.21h-28.14c.11-172.51.23-345.48.36-518.03v-34.87l27.77,32.68Z"/>
  <path class="cls-4" d="m3107.6,5473.65v520.21h-28.14c.11-172.51.23-345.48.36-518.03v-34.87l27.77,32.68Z"/>
  <path class="cls-4" d="m4317.81,5473.51v520.21h-28.14c.11-172.51.23-345.48.36-518.03v-34.87l27.77,32.68Z"/>
  <path class="cls-4" d="m25.47,5372.59v-331.83h350.72c-.12-.24-.18-11.22-.24-31.99H2v613.41h23.47v-224.21"/>
  <line class="cls-3" x1="1170.18" y1="5006.5" x2="1133.63" y2="5006.5"/>
  <rect class="cls-4" x="1170.19" y="5006.48" width="25.98" height=".02"/>
  <rect class="cls-4" x="1460.3" y="5040.82" width=".02" height=".02"/>
  <polyline class="cls-3" points="1484.3 5040.82 1484.3 5040.84 1484.28 5040.84 1484.25 5040.82"/>
  <polygon class="cls-4" points="3635.32 5006.57 3635.34 5006.59 3635.34 5040.84 3635.32 5040.84 3635.32 5006.57"/>
  <polygon class="cls-4" points="3989.64 5040.82 3989.64 5040.84 3659.3 5040.84 3651.34 5029.43 3659.32 5040.82 3989.64 5040.82"/>
  <line class="cls-3" x1="4077.24" y1="5475.39" x2="4072.37" y2="5475.39"/>
  <polygon class="cls-4" points="4723.75 5293.43 4723.75 5329.98 4280.43 5329.93 4051.26 5329.93 3964.18 5329.91 3912.79 5329.91 3562.09 5329.88 3509.63 5329.88 2974.14 5329.84 2969.14 5329.84 2926.64 5329.82 2770.63 5329.82 2409.43 5329.77 2356.88 5329.77 2144.36 5329.75 1894.98 5329.75 1852.34 5329.73 1668.08 5329.73 1281.33 5329.68 1195.21 5329.68 1195.21 5329.66 1170.23 5293.43 1170.23 5029.43 1045.7 5029.43 1045.7 5029.37 1170.23 5029.37 1170.23 5006.57 1196.17 5040.82 1196.1 5293.43 4723.75 5293.43"/>
  <path class="cls-4" d="m4750.76,5040.82v986.45c-1184.51.07-2369.01.18-3553.57.25l-26.96-34.39h25.93l2465.75.59h353.84c89.91,0,179.92.14,269.84.14h28.25c136.67,0,273.24,0,409.91.11v-987.36c9,12.8,18,21.43,27,34.21Z"/>
  <polyline class="cls-3" points="1170.24 5440.83 1196.16 5475.67 1196.16 5993.13"/>
  <polyline class="cls-3" points="639.99 565.13 639.99 500.01 639.99 495.62 639.99 487.21 639.99 476.8 639.99 474.12 639.99 470.94 639.99 468.03 639.99 457.85"/>
  <path class="cls-6" d="m640.02,2705.6v160.06h-.02v-92.69h-.18c-8.5,0-15.39-6.89-15.39-15.39v-24.41c0-8.5,6.89-15.39,15.39-15.39h.18v-12.18h.02Z"/>
  <path class="cls-6" d="m640.02,3107.4v395.68h-.02v-41.23h-.18c-8.5,0-15.39-6.89-15.39-15.39v-24.39c0-8.5,6.89-15.41,15.39-15.41h.18v-299.27h.02Z"/>
  <path class="cls-8" d="m4280.75,5329.91h-229.22l-75.44-.02h-63l-350.68-.02h-52.5l-535.44-.05h-5l-42.55-.02h-155.99l-361.18-.05h-52.57l-212.49-.02h-249.38l-42.68-.02h-184.24l-386.73-.05h-86.14l-24.98-36.23.45-20.61-124.43-2.8-.55-240.59,124.53-.07-.05-23.98-.16-201.85v-16.18h-504.37l-.02-.02-1.05-.86-.57-.48v206.11s-24.02.47-24.02.47h-235.9v38.32l.05,9.86.11,138.03v4.48l.02,25.07v20.66l.02,4.45.09,130.19-.43,107.94-.02,4.45-.02,5.82v.84l-.05,12.98-.05,9.07-.02,9.68v.93l-.05,3.91v7.11l-.36,90.1-.02,5.64h766.87v-181.28h798.14v-.43l.27.43h1693.56l.07,3.73v.14l.57,30.98v518.06h324.73v-552.6h736.18v-111.17l-443.3-.04Zm-3460.33-541.92h347.41v124.58h-347.41v-124.58Z"/>
  <rect class="cls-22" x="390.18" y="4982.48" width="258.54" height="251.94"/>
  <polyline class="cls-3" points="2321.31 5476.76 2326.56 5476.76 2367.81 5476.76 2373.04 5476.76"/>
  <polygon class="cls-12" points="640.02 5244 640.02 5007.12 640.02 5006.7 640.02 5006.68 640.02 4993.07 640.02 4979.54 640.02 4972.61 640.02 4957.97 640.02 4869.26 640.02 4864.84 640.02 4824.71 640.02 4820.11 640.02 4818.84 640.02 4814.42 640.02 4811.28 640.02 4800.3 640.02 4797.5 640.02 4794.14 640.02 4791.1 640.02 4780.38 640.02 4771.3 640.02 4767.3 640.02 4767.28 640.02 4741.47 640.02 4720.95 640.02 4406.83 640.02 4358.81 640.02 4354.41 640.02 4308.16 640.02 4303.76 640.02 4078.17 640.02 4030.04 640.02 4025.65 640.02 3979.25 640.02 3974.87 640.02 3949.17 640.02 3902.83 640.02 3898.44 640.02 3890.04 640.02 3879.61 640.02 3876.93 640.02 3873.75 640.02 3870.85 640.02 3860.65 640.02 3852.02 640.02 3847.64 640.02 3832.89 640.02 3503.44 640.02 3462.21 640.02 3457.83 640.02 3449.43 640.02 3438.99 640.02 3436.31 640.02 3433.13 640.02 3430.23 640.02 3420.03 640.02 3411.4 640.02 3407.01 640.02 3394.22 640.02 3109.85 640.02 3107.71 640.02 3105.48 640.02 3097.07 640.02 3086.64 640.02 3083.97 640.02 3080.78 640.02 3077.89 640.02 3067.68 640.02 3059.05 640.02 3054.68 640.02 3032.58 640.02 3029.7 640.02 2920.17 640.02 2915.8 640.02 2869.4 640.02 2865.95 640.02 2865.02 640.02 2859 640.02 2857.33 640.02 2773.25 640.02 2768.87 640.02 2760.45 640.02 2750.03 640.02 2747.35 640.02 2744.17 640.02 2741.27 640.02 2731.06 640.02 2722.44 640.02 2718.06 640.02 2705.87 640.02 2595.88 640.02 2591.49 640.02 2583.08 640.02 2572.66 640.02 2569.98 640.02 2566.8 640.02 2563.89 640.02 2553.68 640.02 2545.06 640.02 2540.68 640.02 2517.14 640.02 2516.1 640.02 2216.87 640.02 2212.49 640.02 2204.08 640.02 2201.46 640.02 2193.66 640.02 2190.98 640.02 2187.8 640.02 2184.9 640.02 2177.32 640.02 2174.68 640.02 2166.06 640.02 2161.67 640.02 2143.63 640.02 1918.7 640.02 1914.32 640.02 1905.92 640.02 1895.49 640.02 1892.82 640.02 1889.63 640.02 1886.73 640.02 1876.52 640.02 1867.89 640.02 1863.52 640.02 1847.64 640.02 1844.67 640.02 1644.78 640.02 1640.39 640.02 1631.99 640.02 1629.36 640.02 1618.88 640.02 1615.7 640.02 1605.22 640.02 1602.6 640.02 1593.97 640.02 1589.58 640.02 1574.81 640.02 1330.9 640.02 1326.48 640.02 1280.46 640.02 1276.05 640.02 1262.34 640.02 940.47 640.02 936.07 640.02 889.82 640.02 885.41 640.02 866.3 640.02 585.66 640.02 565.19 640.02 521.37 640.02 516.75 640.02 507.92 640.02 500.05 640.02 496.96 640.02 495.66 640.02 494.15 640.02 490.8 640.02 487.75 640.02 487.26 640.02 477.04 640.02 477.03 640.02 476.83 640.02 474.16 640.02 470.97 640.02 468.07 640.02 467.96 640.02 463.36 640.02 457.88 640.02 457.87 640.02 449.24 640.02 444.87 640.02 437.35 640.02 375.85 640.02 177.39 640.02 173.01 640.02 126.6 640.02 122.21 640.02 113.53 640.02 97 640.02 82.98 640.02 82.94 640.02 82.93 664.02 82.93 664.02 83.06 664.02 83.07 664.02 97 664.02 97.72 664.02 113.53 664.02 113.54 664.02 114.62 664.02 122.2 664.02 126.59 664.02 135.22 664.02 164.62 664.02 173.02 664.02 177.4 664.02 444.87 664.02 449.24 664.02 457.87 664.02 487.26 664.02 495.66 664.02 500.05 664.02 885.34 664.02 889.73 664.02 898.36 664.02 927.76 664.02 936.16 664.02 940.54 664.02 1275.89 664.02 1280.25 664.02 1288.88 664.02 1318.28 664.02 1326.69 664.02 1331.06 664.02 1589.89 664.02 1594.41 664.02 1639.95 664.02 1644.47 664.02 1863.52 664.02 1867.89 664.02 1876.52 664.02 1905.92 664.02 1914.32 664.02 1918.7 664.02 2161.85 664.02 2166.3 664.02 2212.25 664.02 2216.69 664.02 2540.69 664.02 2545.07 664.02 2591.48 664.02 2595.87 664.02 2718.06 664.02 2722.44 664.02 2731.06 664.02 2760.45 664.02 2768.87 664.02 2773.25 664.02 2865.01 664.02 2869.39 664.02 2878.01 664.02 2907.4 664.02 2915.81 664.02 2920.18 664.02 3054.69 664.02 3059.06 664.02 3105.47 664.02 3109.84 664.02 3407.01 664.02 3411.4 664.02 3420.03 664.02 3449.43 664.02 3457.83 664.02 3462.21 664.02 3847.64 664.02 3852.02 664.02 3860.65 664.02 3890.04 664.02 3898.44 664.02 3902.83 664.02 3974.86 664.02 3979.24 664.02 3987.86 664.02 4017.25 664.02 4025.66 664.02 4030.05 664.02 4303.69 664.02 4308.07 664.02 4316.69 664.02 4346.09 664.02 4354.5 664.02 4358.88 664.02 4767.4 664.02 4786.49 664.02 4814.26 664.02 4818.63 664.02 4827.25 664.02 4856.64 664.02 4865.05 664.02 4869.42 664.02 4993.07 664.02 5007.12 664.02 5244 640.02 5244"/>
  <polygon class="cls-12" points="376.24 686.46 376.24 1295.28 376.24 1957.13 376.24 1993.4 376.24 2376.26 376.24 2412.53 376.24 3560.1 376.24 3664.94 376.24 3726.08 376.24 4376.54 376.24 4412.81 376.24 4458.99 376.24 4490.22 376.24 4795.66 376.24 4831.93 376.24 5621.77 376.24 5622.1 376.24 5622.18 403.4 5622.18 403.4 5621.77 403.4 4831.27 403.4 4794.67 403.4 4731.8 403.4 4651.91 403.4 4413.8 403.4 4377.2 403.4 2411.87 403.4 2375.27 403.4 1994.4 403.4 1957.8 403.4 537 403.4 536.42 403.4 418.53 403.4 250.65 403.4 82.93 390.18 82.93 376.24 82.93 376.24 249.9 376.24 251.06 376.24 554.35 376.24 686.46"/>
  <polyline class="cls-3" points="3471.47 5475.69 3476.45 5475.69 3519.27 5475.69 3524.25 5475.69"/>
  <polyline class="cls-3" points="2932.5 5475.69 2927.53 5475.69 2884.71 5475.69 2879.73 5475.69"/>
  <rect class="cls-10" x="3659.32" y="5040.82" width="330.34" height="252.61"/>
  <polygon class="cls-4" points="4013.66 5040.82 4013.66 5293.43 3989.66 5293.43 3989.66 5006.59 4005.69 5029.43 4013.66 5040.82"/>
  <polygon class="cls-4" points="4134.05 5040.53 4134.05 5293.14 4110.05 5293.14 4110.05 5006.3 4126.07 5029.15 4134.05 5040.53"/>
  <polygon class="cls-4" points="3659.32 5040.82 3659.32 5293.43 3635.32 5293.43 3635.32 5006.57 3635.34 5006.59 3651.34 5029.43 3659.32 5040.82"/>
  <polyline class="cls-3" points="376.2 5040.79 376.2 5040.75 376.43 5372.59"/>
  <polygon class="cls-4" points="1170.23 5622.13 1170.23 5656.45 25.48 5656.45 2 5622.18 25.48 5622.18 376.18 5622.13 1170.23 5622.13"/>
  <polyline class="cls-3" points="639.99 4503.7 639.99 4538.52 639.99 4542.9 639.99 4551.54 639.99 4561.74 639.99 4564.63 639.99 4567.81 639.99 4570.5 639.99 4580.93 639.99 4589.31 639.99 4593.7 639.99 4720.46"/>
  <polyline class="cls-3" points="664.02 4766.92 664.21 5244.75 640.01 5244.74"/>
  <polyline class="cls-3" points="639.99 565.13 639.99 500.01 639.99 495.62 639.99 487.21 639.99 476.8 639.99 474.12 639.99 470.94 639.99 468.03 639.99 457.85"/>
  <polygon class="cls-4" points="1170.19 85.58 1170.19 113.53 663.3 113.54 639.99 82.94 746.96 83.47 748.64 83.47 841.18 83.95 1170.19 85.58"/>
  <polygon class="cls-10" points="376.19 5397.97 376.19 5622.12 25.47 5622.18 25.47 5397.97 376.19 5397.97"/>
  <polygon class="cls-4" points="640.02 82.94 640.02 113.53 404.09 113.53 376.68 81.89 376.46 81.62 376.43 81.6 376.84 81.6 639.99 82.94 640.02 82.94"/>
  <polygon class="cls-5" points="1170.19 210.46 866.51 210.46 865.25 113.54 1170.19 113.53 1170.19 210.46"/>
  <polyline class="cls-8" points="1168.69 2496.34 746.96 2496.34 746.96 4767.35 664.02 4766.92 664.02 114.62 663.29 113.53 865.26 113.53 866.51 210.47 746.96 210.47 746.96 569.95 746.59 569.95 746.96 570.24 746.96 2206.41 770.91 2226.88 1170.19 2226.87 1170.19 2408.01"/>
  <polyline class="cls-3" points="770.91 503.69 770.91 499.26 770.91 490.03 770.91 487.44 770.91 468.62 770.91 467.01 770.91 460.14 770.91 452.19 770.91 447.76"/>
  <polyline class="cls-3" points="770.91 311.45 770.91 307 770.91 297.77 770.91 295.18 770.91 276.36 770.91 274.75 770.91 267.88 770.91 259.93 770.91 255.5"/>
  <polyline class="cls-3" points="770.91 1209.51 770.91 1213.9 770.91 1222.51 770.91 1251.9 770.91 1260.31 770.91 1264.7"/>
  <polyline class="cls-3" points="770.91 3622.39 770.91 3850.55 770.91 3855.09 770.91 3863.7 770.91 3893.09 770.91 3901.5 770.91 3905.89 770.91 3980"/>
  <polyline class="cls-3" points="770.91 3221.43 770.91 3515.02 770.91 3519.5 770.91 3565.11 770.91 3569.59 770.91 3622.39"/>
  <polyline class="cls-3" points="770.91 4445.53 770.91 4071.83 770.91 4067.44 770.91 4059.03 770.91 4029.64 770.91 4021.03 770.91 4016.64 770.91 3980"/>
  <line class="cls-3" x1="1168.51" y1="2226.87" x2="1168.51" y2="2206.41"/>
  <polyline class="cls-3" points="640.02 457.84 640.02 437.31 640.02 113.53"/>
  <polyline class="cls-3" points="770.91 4445.54 770.91 4465.23 770.91 4767.46"/>
  <polyline class="cls-3" points="770.91 3221.43 770.91 3202.23 770.91 2516.45 770.91 2496.34"/>
  <path class="cls-4" d="m640.02,565.14v4175.85l-.02,231.12v252.17s-.78,0-2.19,0c-25.23-.02-261.6-.18-261.78-.18.3.24,27.33,20.39,27.66,20.64h236.31"/>
  <polygon class="cls-4" points="1170.19 4769.37 1170.19 4787.33 665.63 4787.33 664.59 4786.46 664.02 4786.01 651.4 4775.51 639.99 4766.8 641.02 4766.8 664.02 4766.92 746.96 4767.35 770.91 4767.46 1170.05 4769.37 1170.19 4769.37"/>
  <polygon class="cls-4" points="1170.19 2206.41 1170.19 2226.87 770.91 2226.88 746.96 2206.41 1170.19 2206.41"/>
  <g>
    <polyline class="cls-3" points="770.91 311.45 770.91 307 770.91 297.77 770.91 295.18 770.91 276.36 770.91 274.75 770.91 267.88 770.91 259.93 770.91 255.5"/>
    <polyline class="cls-3" points="770.91 2037.84 770.91 2039.65 770.91 2056.13 770.91 230.99 746.96 210.47 770.91 210.47 841.19 210.47 866.51 210.47 1170.19 210.46 1170.19 230.99 770.91 230.99"/>
  </g>
  <polygon class="cls-4" points="2299.35 5293.13 2299.35 5040.52 2275.35 5006.31 2275.35 5040.52 2275.35 5293.13 2299.35 5293.13"/>
  <polygon class="cls-4" points="2738.66 5293.13 2738.66 5040.52 2714.66 5006.31 2714.66 5040.52 2714.66 5293.13 2738.66 5293.13"/>
  <polygon class="cls-4" points="2868.26 5293.13 2868.26 5040.52 2844.26 5006.31 2844.26 5040.52 2844.26 5293.13 2868.26 5293.13"/>
  <polygon class="cls-4" points="3105.53 5293.13 3105.53 5040.52 3081.53 5006.31 3081.53 5040.52 3081.53 5293.13 3105.53 5293.13"/>
  <text/>
  <polygon class="cls-4" points="4392.73 5293.13 4392.73 5040.52 4368.73 5006.31 4368.73 5040.52 4368.73 5293.13 4392.73 5293.13"/>
  <polygon class="cls-10" points="1170.19 4787.98 1170.19 4912.57 820.12 4912.56 820.12 4787.99 1170.19 4787.98"/>
  <rect class="cls-10" x="1047.62" y="5029.42" width="122.61" height="240.6"/>
  <polygon class="cls-4" points="866.51 210.46 841.18 210.46 841.18 83.95 865.25 113.54 866.51 210.46"/>
  <polygon class="cls-5" points="1170.19 2496.34 746.96 2496.34 746.96 2407.82 1170.19 2408.01 1170.19 2496.34"/>
  <g>
    <g>
      <path class="cls-24" d="m681.98,4829.16v24.39c0,8.5-6.89,15.39-15.39,15.39h-24.39c-8.5,0-15.39-6.89-15.39-15.39v-24.39c0-6.23,3.7-11.59,9.02-14,1.93-.89,4.09-1.39,6.36-1.39h24.39c8.5,0,15.39,6.89,15.39,15.39Z"/>
      <path class="cls-18" d="m642.2,4818.14h24.39c6.08,0,11.01,4.93,11.01,11.01v24.39c0,6.08-4.93,11.01-11.01,11.01h-24.39c-6.08,0-11.01-4.93-11.01-11.01v-24.39c0-6.08,4.93-11.01,11.01-11.01Z"/>
    </g>
    <g>
      <polygon class="cls-2" points="642.28 4826.76 642.28 4836.97 644.9 4836.97 644.9 4829.39 662.76 4829.39 657.04 4832.45 657.04 4850.46 662.76 4853.53 644.9 4853.53 644.9 4845.73 642.28 4845.73 642.28 4856.15 666.52 4856.15 666.52 4826.76 642.28 4826.76"/>
      <polygon class="cls-2" points="647.42 4847.23 655.2 4841.46 647.42 4835.69 647.42 4839.87 642.24 4839.87 642.24 4843.05 647.42 4843.05 647.42 4847.23"/>
    </g>
  </g>
  <g>
    <g>
      <path class="cls-24" d="m680.39,3989.85v24.39c0,8.5-6.89,15.41-15.39,15.41h-24.39c-8.5,0-15.39-6.91-15.39-15.41v-24.39c0-8.5,6.89-15.39,15.39-15.39h24.39c8.5,0,15.39,6.89,15.39,15.39Z"/>
      <path class="cls-18" d="m640.61,3978.84h24.39c6.08,0,11.01,4.93,11.01,11.01v24.39c0,6.08-4.93,11.01-11.01,11.01h-24.39c-6.08,0-11.01-4.93-11.01-11.01v-24.39c0-6.08,4.93-11.01,11.01-11.01Z"/>
    </g>
    <g>
      <polygon class="cls-2" points="640.68 3987.46 640.68 3997.67 643.31 3997.67 643.31 3990.09 661.17 3990.09 655.45 3993.15 655.45 4011.16 661.17 4014.23 643.31 4014.23 643.31 4006.43 640.68 4006.43 640.68 4016.85 664.93 4016.85 664.93 3987.46 640.68 3987.46"/>
      <polygon class="cls-2" points="645.82 4007.93 653.6 4002.16 645.82 3996.39 645.82 4000.57 640.64 4000.57 640.64 4003.75 645.82 4003.75 645.82 4007.93"/>
    </g>
  </g>
  <g>
    <g>
      <path class="cls-24" d="m679.59,3862.64v24.39c0,8.5-6.89,15.41-15.39,15.41h-24.39c-8.5,0-15.39-6.91-15.39-15.41v-24.39c0-8.5,6.89-15.39,15.39-15.39h24.39c8.5,0,15.39,6.89,15.39,15.39Z"/>
      <path class="cls-18" d="m639.81,3851.63h24.39c6.08,0,11.01,4.93,11.01,11.01v24.39c0,6.08-4.93,11.01-11.01,11.01h-24.39c-6.08,0-11.01-4.93-11.01-11.01v-24.39c0-6.08,4.93-11.01,11.01-11.01Z"/>
    </g>
    <g>
      <polygon class="cls-2" points="639.88 3860.26 639.88 3870.46 642.51 3870.46 642.51 3862.88 660.37 3862.88 654.65 3865.95 654.65 3883.96 660.37 3887.02 642.51 3887.02 642.51 3879.22 639.88 3879.22 639.88 3889.65 664.13 3889.65 664.13 3860.26 639.88 3860.26"/>
      <polygon class="cls-2" points="645.02 3880.72 652.8 3874.95 645.02 3869.18 645.02 3873.36 639.84 3873.36 639.84 3876.54 645.02 3876.54 645.02 3880.72"/>
    </g>
  </g>
  <g>
    <g>
      <path class="cls-24" d="m681.18,4318.65v24.39c0,8.5-6.89,15.41-15.39,15.41h-24.39c-8.5,0-15.39-6.91-15.39-15.41v-24.39c0-8.5,6.89-15.39,15.39-15.39h24.39c8.5,0,15.39,6.89,15.39,15.39Z"/>
      <path class="cls-18" d="m641.41,4307.64h24.39c6.08,0,11.01,4.93,11.01,11.01v24.39c0,6.08-4.93,11.01-11.01,11.01h-24.39c-6.08,0-11.01-4.93-11.01-11.01v-24.39c0-6.08,4.93-11.01,11.01-11.01Z"/>
    </g>
    <g>
      <polygon class="cls-2" points="641.48 4316.26 641.48 4326.47 644.1 4326.47 644.1 4318.89 661.97 4318.89 656.25 4321.95 656.25 4339.96 661.97 4343.03 644.1 4343.03 644.1 4335.23 641.48 4335.23 641.48 4345.65 665.73 4345.65 665.73 4316.26 641.48 4316.26"/>
      <polygon class="cls-2" points="646.62 4336.73 654.4 4330.96 646.62 4325.19 646.62 4329.37 641.44 4329.37 641.44 4332.55 646.62 4332.55 646.62 4336.73"/>
    </g>
  </g>
  <g>
    <g>
      <path class="cls-24" d="m679.59,3422.08v24.39c0,8.5-6.89,15.39-15.39,15.39h-24.39c-8.5,0-15.39-6.89-15.39-15.39v-24.39c0-8.5,6.89-15.41,15.39-15.41h24.39c8.5,0,15.39,6.91,15.39,15.41Z"/>
      <path class="cls-18" d="m639.81,3411.06h24.39c6.08,0,11.01,4.93,11.01,11.01v24.39c0,6.08-4.93,11.01-11.01,11.01h-24.39c-6.08,0-11.01-4.93-11.01-11.01v-24.39c0-6.08,4.93-11.01,11.01-11.01Z"/>
    </g>
    <g>
      <polygon class="cls-2" points="639.88 3419.69 639.88 3429.89 642.51 3429.89 642.51 3422.31 660.37 3422.31 654.65 3425.38 654.65 3443.39 660.37 3446.45 642.51 3446.45 642.51 3438.65 639.88 3438.65 639.88 3449.08 664.13 3449.08 664.13 3419.69 639.88 3419.69"/>
      <polygon class="cls-2" points="645.03 3440.15 652.81 3434.38 645.03 3428.61 645.03 3432.79 639.84 3432.79 639.84 3435.97 645.03 3435.97 645.03 3440.15"/>
    </g>
  </g>
  <g>
    <g>
      <rect class="cls-24" x="625.22" y="2864.72" width="55.16" height="55.16" rx="15.39" ry="15.39"/>
      <path class="cls-18" d="m640.61,2869.1h24.39c6.08,0,11.01,4.93,11.01,11.01v24.39c0,6.08-4.93,11.01-11.01,11.01h-24.39c-6.08,0-11.01-4.93-11.01-11.01v-24.39c0-6.08,4.93-11.01,11.01-11.01Z"/>
    </g>
    <g>
      <polygon class="cls-2" points="640.68 2877.72 640.68 2887.93 643.31 2887.93 643.31 2880.34 661.17 2880.34 655.45 2883.41 655.45 2901.42 661.17 2904.49 643.31 2904.49 643.31 2896.68 640.68 2896.68 640.68 2907.11 664.93 2907.11 664.93 2877.72 640.68 2877.72"/>
      <polygon class="cls-2" points="645.82 2898.19 653.6 2892.42 645.82 2886.65 645.82 2890.82 640.64 2890.82 640.64 2894.01 645.82 2894.01 645.82 2898.19"/>
    </g>
  </g>
  <g>
    <g>
      <rect class="cls-24" x="624.43" y="2717.79" width="55.16" height="55.19" rx="15.39" ry="15.39"/>
      <path class="cls-18" d="m639.81,2722.17h24.39c6.08,0,11.01,4.93,11.01,11.01v24.39c0,6.08-4.93,11.01-11.01,11.01h-24.39c-6.08,0-11.01-4.93-11.01-11.01v-24.39c0-6.08,4.93-11.01,11.01-11.01Z"/>
    </g>
    <g>
      <polygon class="cls-2" points="639.88 2730.79 639.88 2741 642.51 2741 642.51 2733.42 660.37 2733.42 654.65 2736.48 654.65 2754.49 660.37 2757.56 642.51 2757.56 642.51 2749.76 639.88 2749.76 639.88 2760.18 664.13 2760.18 664.13 2730.79 639.88 2730.79"/>
      <polygon class="cls-2" points="645.03 2751.26 652.81 2745.49 645.03 2739.72 645.03 2743.9 639.84 2743.9 639.84 2747.08 645.03 2747.08 645.03 2751.26"/>
    </g>
  </g>
  <g>
    <g>
      <path class="cls-24" d="m678.94,2555.82v24.39c0,8.5-6.89,15.41-15.39,15.41h-24.39c-8.5,0-15.39-6.91-15.39-15.41v-24.39c0-8.5,6.89-15.39,15.39-15.39h24.39c8.5,0,15.39,6.89,15.39,15.39Z"/>
      <path class="cls-18" d="m639.16,2544.81h24.39c6.08,0,11.01,4.93,11.01,11.01v24.39c0,6.08-4.93,11.01-11.01,11.01h-24.39c-6.08,0-11.01-4.93-11.01-11.01v-24.39c0-6.08,4.93-11.01,11.01-11.01Z"/>
    </g>
    <g>
      <polygon class="cls-2" points="639.24 2553.43 639.24 2563.64 641.86 2563.64 641.86 2556.06 659.72 2556.06 654 2559.12 654 2577.13 659.72 2580.2 641.86 2580.2 641.86 2572.4 639.24 2572.4 639.24 2582.82 663.48 2582.82 663.48 2553.43 639.24 2553.43"/>
      <polygon class="cls-2" points="644.38 2573.9 652.16 2568.13 644.38 2562.36 644.38 2566.54 639.2 2566.54 639.2 2569.72 644.38 2569.72 644.38 2573.9"/>
    </g>
  </g>
  <g>
    <g>
      <rect class="cls-24" x="621.94" y="2161.46" width="55.16" height="55.19" rx="15.39" ry="15.39"/>
      <path class="cls-18" d="m637.32,2165.85h24.39c6.08,0,11.01,4.93,11.01,11.01v24.39c0,6.08-4.93,11.01-11.01,11.01h-24.39c-6.08,0-11.01-4.93-11.01-11.01v-24.39c0-6.08,4.93-11.01,11.01-11.01Z"/>
    </g>
    <g>
      <polygon class="cls-2" points="637.39 2174.47 637.39 2184.68 640.02 2184.68 640.02 2177.1 657.88 2177.1 652.16 2180.16 652.16 2198.17 657.88 2201.24 640.02 2201.24 640.02 2193.44 637.39 2193.44 637.39 2203.86 661.64 2203.86 661.64 2174.47 637.39 2174.47"/>
      <polygon class="cls-2" points="642.54 2194.94 650.31 2189.17 642.54 2183.4 642.54 2187.58 637.35 2187.58 637.35 2190.76 642.54 2190.76 642.54 2194.94"/>
    </g>
  </g>
  <g>
    <g>
      <path class="cls-24" d="m679.59,1878.73v24.39c0,8.5-6.89,15.39-15.39,15.39h-24.39c-8.5,0-15.39-6.89-15.39-15.39v-24.39c0-6.82,4.43-12.59,10.57-14.61,1.5-.5,3.14-.77,4.82-.77h24.39c8.5,0,15.39,6.89,15.39,15.39Z"/>
      <path class="cls-18" d="m639.81,1867.71h24.39c6.08,0,11.01,4.93,11.01,11.01v24.39c0,6.08-4.93,11.01-11.01,11.01h-24.39c-6.08,0-11.01-4.93-11.01-11.01v-24.39c0-6.08,4.93-11.01,11.01-11.01Z"/>
    </g>
    <g>
      <polygon class="cls-2" points="639.88 1876.34 639.88 1886.54 642.51 1886.54 642.51 1878.96 660.37 1878.96 654.65 1882.03 654.65 1900.04 660.37 1903.11 642.51 1903.11 642.51 1895.3 639.88 1895.3 639.88 1905.73 664.13 1905.73 664.13 1876.34 639.88 1876.34"/>
      <polygon class="cls-2" points="645.02 1896.8 652.8 1891.03 645.02 1885.26 645.02 1889.44 639.84 1889.44 639.84 1892.63 645.02 1892.63 645.02 1896.8"/>
    </g>
  </g>
  <g>
    <g>
      <path class="cls-24" d="m676.3,1604.82v24.39c0,8.52-6.89,15.41-15.39,15.41h-24.39c-8.5,0-15.39-6.89-15.39-15.41v-24.39c0-8.5,6.89-15.39,15.39-15.39h24.39c8.5,0,15.39,6.89,15.39,15.39Z"/>
      <path class="cls-18" d="m636.52,1593.81h24.39c6.08,0,11.01,4.93,11.01,11.01v24.39c0,6.08-4.93,11.01-11.01,11.01h-24.39c-6.08,0-11.01-4.93-11.01-11.01v-24.39c0-6.08,4.93-11.01,11.01-11.01Z"/>
    </g>
    <g>
      <polygon class="cls-2" points="636.59 1602.44 636.59 1612.64 639.22 1612.64 639.22 1605.06 657.08 1605.06 651.36 1608.13 651.36 1626.14 657.08 1629.2 639.22 1629.2 639.22 1621.4 636.59 1621.4 636.59 1631.83 660.84 1631.83 660.84 1602.44 636.59 1602.44"/>
      <polygon class="cls-2" points="641.74 1622.9 649.52 1617.13 641.74 1611.36 641.74 1615.54 636.56 1615.54 636.56 1618.72 641.74 1618.72 641.74 1622.9"/>
    </g>
  </g>
  <g>
    <g>
      <rect class="cls-24" x="626.82" y="1275.77" width="55.16" height="55.16" rx="15.39" ry="15.39"/>
      <path class="cls-18" d="m642.2,1280.13h24.39c6.08,0,11.01,4.93,11.01,11.01v24.39c0,6.08-4.93,11.01-11.01,11.01h-24.39c-6.08,0-11.01-4.93-11.01-11.01v-24.39c0-6.08,4.93-11.01,11.01-11.01Z"/>
    </g>
    <g>
      <polygon class="cls-2" points="642.28 1288.76 642.28 1298.97 644.9 1298.97 644.9 1291.38 662.76 1291.38 657.04 1294.45 657.04 1312.46 662.76 1315.53 644.9 1315.53 644.9 1307.72 642.28 1307.72 642.28 1318.15 666.52 1318.15 666.52 1288.76 642.28 1288.76"/>
      <polygon class="cls-2" points="647.42 1309.23 655.2 1303.46 647.42 1297.69 647.42 1301.86 642.24 1301.86 642.24 1305.05 647.42 1305.05 647.42 1309.23"/>
    </g>
  </g>
  <g>
    <g>
      <path class="cls-24" d="m681.18,900.67v24.39c0,8.5-6.89,15.39-15.39,15.39h-24.39c-8.5,0-15.39-6.89-15.39-15.39v-24.39c0-8.5,6.89-15.41,15.39-15.41h24.39c8.5,0,15.39,6.91,15.39,15.41Z"/>
      <path class="cls-18" d="m641.41,889.65h24.39c6.08,0,11.01,4.93,11.01,11.01v24.39c0,6.08-4.93,11.01-11.01,11.01h-24.39c-6.08,0-11.01-4.93-11.01-11.01v-24.39c0-6.08,4.93-11.01,11.01-11.01Z"/>
    </g>
    <g>
      <polygon class="cls-2" points="641.48 898.28 641.48 908.48 644.1 908.48 644.1 900.9 661.97 900.9 656.25 903.97 656.25 921.98 661.97 925.04 644.1 925.04 644.1 917.24 641.48 917.24 641.48 927.67 665.73 927.67 665.73 898.28 641.48 898.28"/>
      <polygon class="cls-2" points="646.62 918.74 654.4 912.97 646.62 907.2 646.62 911.38 641.44 911.38 641.44 914.56 646.62 914.56 646.62 918.74"/>
    </g>
  </g>
  <g>
    <g>
      <path class="cls-24" d="m679.59,460.21v24.39c0,8.5-6.89,15.41-15.39,15.41h-24.39c-8.5,0-15.39-6.91-15.39-15.41v-24.39c0-8.5,6.89-15.39,15.39-15.39h24.39c8.5,0,15.39,6.89,15.39,15.39Z"/>
      <path class="cls-18" d="m639.81,449.2h24.39c6.08,0,11.01,4.93,11.01,11.01v24.39c0,6.08-4.93,11.01-11.01,11.01h-24.39c-6.08,0-11.01-4.93-11.01-11.01v-24.39c0-6.08,4.93-11.01,11.01-11.01Z"/>
    </g>
    <g>
      <polygon class="cls-2" points="639.88 457.83 639.88 468.03 642.51 468.03 642.51 460.45 660.37 460.45 654.65 463.52 654.65 481.53 660.37 484.6 642.51 484.6 642.51 476.79 639.88 476.79 639.88 487.22 664.13 487.22 664.13 457.83 639.88 457.83"/>
      <polygon class="cls-2" points="645.03 478.3 652.81 472.52 645.03 466.75 645.03 470.93 639.84 470.93 639.84 474.12 645.03 474.12 645.03 478.3"/>
    </g>
  </g>
  <g>
    <g>
      <rect class="cls-24" x="625.22" y="122.2" width="55.16" height="55.19" rx="15.39" ry="15.39"/>
      <rect class="cls-18" x="629.59" y="126.59" width="46.42" height="46.42" rx="11.01" ry="11.01"/>
    </g>
    <g>
      <polygon class="cls-2" points="640.68 135.21 640.68 145.42 643.31 145.42 643.31 137.84 661.17 137.84 655.45 140.91 655.45 158.91 661.17 161.98 643.31 161.98 643.31 154.18 640.68 154.18 640.68 164.61 664.93 164.61 664.93 135.21 640.68 135.21"/>
      <polygon class="cls-2" points="645.82 155.68 653.6 149.91 645.82 144.14 645.82 148.32 640.64 148.32 640.64 151.5 645.82 151.5 645.82 155.68"/>
    </g>
  </g>
  <g>
    <rect class="cls-11" x="731.22" y="255.49" width="55.95" height="55.95" rx="15.61" ry="15.61"/>
    <path class="cls-23" d="m746.83,311.44h24.74c4.31,0,8.21-1.75,11.04-4.57l-46.81-46.81c-2.82,2.82-4.57,6.73-4.57,11.04v24.74c0,8.62,6.99,15.61,15.61,15.61Z"/>
    <rect class="cls-19" x="735.66" y="259.93" width="47.07" height="47.07" rx="11.17" ry="11.17"/>
    <polygon class="cls-2" points="744.61 287.29 746.41 287.29 746.41 297.78 750.19 297.78 750.19 287.29 751.98 287.29 754.02 276.37 742.57 276.37 744.61 287.29"/>
    <circle class="cls-2" cx="748.3" cy="271.3" r="3.54" transform="translate(-14.51 43.98) rotate(-3.33)"/>
    <polygon class="cls-2" points="773.78 276.37 766.42 276.37 764.38 287.29 768.21 287.29 768.21 297.78 771.99 297.78 771.99 287.29 775.83 287.29 773.78 276.37"/>
    <circle class="cls-2" cx="770.1" cy="271.3" r="3.54" transform="translate(-33.43 126.38) rotate(-9.18)"/>
    <rect class="cls-2" x="758.34" y="263.89" width="1.71" height="39.15"/>
  </g>
  <g>
    <path class="cls-11" d="m787.19,463.35v24.75c0,4.32-1.75,8.23-4.59,11.02-.84.84-1.77,1.59-2.8,2.2-.68.43-1.41.82-2.16,1.14-1.86.8-3.91,1.23-6.07,1.23h-24.75c-8.61,0-15.59-6.98-15.59-15.59v-24.75c0-4.3,1.75-8.21,4.57-11.02,2.82-2.82,6.7-4.57,11.02-4.57h24.75c8.61,0,15.61,6.98,15.61,15.59Z"/>
    <path class="cls-23" d="m782.59,499.12c-.84.84-1.77,1.59-2.8,2.2-.68.45-1.41.82-2.16,1.14-1.86.8-3.91,1.23-6.07,1.23h-24.75c-8.61,0-15.59-6.98-15.59-15.59v-24.75c0-4.3,1.75-8.21,4.57-11.02l24.25,24.25,8.16,8.16,2.7,2.7,1.07,1.07,10.61,10.61Z"/>
    <rect class="cls-19" x="735.66" y="452.19" width="47.07" height="47.07" rx="11.17" ry="11.17"/>
    <polygon class="cls-2" points="744.61 479.55 746.41 479.55 746.41 490.04 750.19 490.04 750.19 479.55 751.98 479.55 754.02 468.63 742.57 468.63 744.61 479.55"/>
    <circle class="cls-2" cx="748.3" cy="463.56" r="3.54" transform="translate(-25.7 44.31) rotate(-3.33)"/>
    <polygon class="cls-2" points="773.78 468.63 766.42 468.63 764.38 479.55 768.21 479.55 768.21 490.04 771.99 490.04 771.99 479.55 775.83 479.55 773.78 468.63"/>
    <circle class="cls-2" cx="770.1" cy="463.56" r="3.54" transform="translate(-64.11 128.84) rotate(-9.18)"/>
    <rect class="cls-2" x="758.34" y="456.15" width="1.71" height="39.15"/>
  </g>
  <g>
    <g>
      <path class="cls-24" d="m784.51,771.12v24.39c0,8.5-6.91,15.39-15.41,15.39h-24.43c-8.48-.02-15.34-6.91-15.34-15.39v-24.39c0-8.48,6.86-15.36,15.34-15.39h24.43c8.5,0,15.41,6.89,15.41,15.39Z"/>
      <path class="cls-18" d="m744.71,760.1h24.39c6.08,0,11.01,4.93,11.01,11.01v24.39c0,6.08-4.93,11.01-11.01,11.01h-24.39c-6.08,0-11.01-4.93-11.01-11.01v-24.39c0-6.08,4.93-11.01,11.01-11.01Z"/>
    </g>
    <g>
      <polygon class="cls-2" points="744.78 768.73 744.78 778.93 747.41 778.93 747.41 771.35 765.27 771.35 759.55 774.42 759.55 792.43 765.27 795.5 747.41 795.5 747.41 787.69 744.78 787.69 744.78 798.12 769.03 798.12 769.03 768.73 744.78 768.73"/>
      <polygon class="cls-2" points="749.92 789.2 757.7 783.42 749.92 777.65 749.92 781.83 744.74 781.83 744.74 785.02 749.92 785.02 749.92 789.2"/>
    </g>
  </g>
  <g>
    <g>
      <path class="cls-24" d="m786.8,992.97v24.39c0,8.5-6.91,15.39-15.41,15.39h-24.43c-8.48-.02-15.34-6.91-15.34-15.39v-24.39c0-8.5,6.86-15.39,15.34-15.41h24.43c8.5,0,15.41,6.89,15.41,15.41Z"/>
      <path class="cls-18" d="m747,981.95h24.39c6.08,0,11.01,4.93,11.01,11.01v24.39c0,6.08-4.93,11.01-11.01,11.01h-24.39c-6.08,0-11.01-4.93-11.01-11.01v-24.39c0-6.08,4.93-11.01,11.01-11.01Z"/>
    </g>
    <g>
      <polygon class="cls-2" points="747.08 990.57 747.08 1000.78 749.7 1000.78 749.7 993.2 767.56 993.2 761.84 996.27 761.84 1014.27 767.56 1017.34 749.7 1017.34 749.7 1009.54 747.08 1009.54 747.08 1019.97 771.32 1019.97 771.32 990.57 747.08 990.57"/>
      <polygon class="cls-2" points="752.22 1011.04 760 1005.27 752.22 999.5 752.22 1003.68 747.04 1003.68 747.04 1006.86 752.22 1006.86 752.22 1011.04"/>
    </g>
  </g>
  <g>
    <g>
      <path class="cls-24" d="m786.8,1224.9v24.39c0,8.52-6.91,15.41-15.41,15.41h-24.43c-8.48-.02-15.34-6.91-15.34-15.41v-24.39c0-8.48,6.86-15.36,15.34-15.39h24.43c8.5,0,15.41,6.89,15.41,15.39Z"/>
      <path class="cls-18" d="m747,1213.89h24.39c6.08,0,11.01,4.93,11.01,11.01v24.39c0,6.08-4.93,11.01-11.01,11.01h-24.39c-6.08,0-11.01-4.93-11.01-11.01v-24.39c0-6.08,4.93-11.01,11.01-11.01Z"/>
    </g>
    <g>
      <polygon class="cls-2" points="747.08 1222.51 747.08 1232.72 749.7 1232.72 749.7 1225.14 767.56 1225.14 761.84 1228.21 761.84 1246.21 767.56 1249.28 749.7 1249.28 749.7 1241.48 747.08 1241.48 747.08 1251.91 771.32 1251.91 771.32 1222.51 747.08 1222.51"/>
      <polygon class="cls-2" points="752.22 1242.98 760 1237.21 752.22 1231.44 752.22 1235.62 747.04 1235.62 747.04 1238.8 752.22 1238.8 752.22 1242.98"/>
    </g>
  </g>
  <g>
    <g>
      <path class="cls-24" d="m787.59,1496.77v24.39c0,8.5-6.91,15.39-15.41,15.39h-24.43c-8.48-.02-15.34-6.91-15.34-15.39v-24.39c0-8.48,6.86-15.36,15.34-15.39h24.43c8.5,0,15.41,6.89,15.41,15.39Z"/>
      <path class="cls-18" d="m747.79,1485.75h24.39c6.08,0,11.01,4.93,11.01,11.01v24.39c0,6.08-4.93,11.01-11.01,11.01h-24.39c-6.08,0-11.01-4.93-11.01-11.01v-24.39c0-6.08,4.93-11.01,11.01-11.01Z"/>
    </g>
    <g>
      <polygon class="cls-2" points="747.87 1494.38 747.87 1504.59 750.49 1504.59 750.49 1497 768.35 1497 762.63 1500.07 762.63 1518.08 768.35 1521.15 750.49 1521.15 750.49 1513.34 747.87 1513.34 747.87 1523.77 772.11 1523.77 772.11 1494.38 747.87 1494.38"/>
      <polygon class="cls-2" points="753.01 1514.85 760.79 1509.08 753.01 1503.3 753.01 1507.48 747.83 1507.48 747.83 1510.67 753.01 1510.67 753.01 1514.85"/>
    </g>
  </g>
  <g>
    <g>
      <path class="cls-24" d="m786.53,1741.1v24.39c0,8.5-6.91,15.39-15.41,15.39h-24.43c-8.48-.02-15.34-6.91-15.34-15.39v-24.39c0-8.48,6.86-15.36,15.34-15.39h24.43c8.5,0,15.41,6.89,15.41,15.39Z"/>
      <path class="cls-18" d="m746.73,1730.09h24.39c6.08,0,11.01,4.93,11.01,11.01v24.39c0,6.08-4.93,11.01-11.01,11.01h-24.39c-6.08,0-11.01-4.93-11.01-11.01v-24.39c0-6.08,4.93-11.01,11.01-11.01Z"/>
    </g>
    <g>
      <polygon class="cls-2" points="746.8 1738.71 746.8 1748.92 749.43 1748.92 749.43 1741.34 767.29 1741.34 761.57 1744.4 761.57 1762.41 767.29 1765.48 749.43 1765.48 749.43 1757.68 746.8 1757.68 746.8 1768.1 771.05 1768.1 771.05 1738.71 746.8 1738.71"/>
      <polygon class="cls-2" points="751.94 1759.18 759.72 1753.41 751.94 1747.64 751.94 1751.82 746.76 1751.82 746.76 1755 751.94 1755 751.94 1759.18"/>
    </g>
  </g>
  <g>
    <g>
      <path class="cls-24" d="m787.59,1906.31v24.39c0,8.5-6.91,15.39-15.41,15.39h-24.43c-8.48-.02-15.34-6.91-15.34-15.39v-24.39c0-8.48,6.86-15.36,15.34-15.39h24.43c8.5,0,15.41,6.89,15.41,15.39Z"/>
      <path class="cls-18" d="m747.79,1895.29h24.39c6.08,0,11.01,4.93,11.01,11.01v24.39c0,6.08-4.93,11.01-11.01,11.01h-24.39c-6.08,0-11.01-4.93-11.01-11.01v-24.39c0-6.08,4.93-11.01,11.01-11.01Z"/>
    </g>
    <g>
      <polygon class="cls-2" points="747.87 1903.92 747.87 1914.13 750.49 1914.13 750.49 1906.54 768.35 1906.54 762.63 1909.61 762.63 1927.62 768.35 1930.69 750.49 1930.69 750.49 1922.88 747.87 1922.88 747.87 1933.31 772.11 1933.31 772.11 1903.92 747.87 1903.92"/>
      <polygon class="cls-2" points="753.01 1924.39 760.79 1918.62 753.01 1912.84 753.01 1917.02 747.83 1917.02 747.83 1920.21 753.01 1920.21 753.01 1924.39"/>
    </g>
  </g>
  <g>
    <rect class="cls-1" x="800.22" y="2189.06" width="55.18" height="55.18" rx="15.39" ry="15.39"/>
    <path class="cls-16" d="m815.61,2193.43h24.39c6.08,0,11.01,4.93,11.01,11.01v24.39c0,6.08-4.93,11.01-11.01,11.01h-24.39c-6.08,0-11.01-4.93-11.01-11.01v-24.39c0-6.08,4.93-11.01,11.01-11.01Z"/>
    <polygon class="cls-2" points="836.53 2222.41 836.53 2214.63 828.75 2214.63 828.75 2206.85 820.97 2206.85 820.97 2199.07 811.3 2199.07 811.3 2202.85 817.19 2202.85 817.19 2210.63 824.97 2210.63 824.97 2218.41 832.75 2218.41 832.75 2226.19 840.54 2226.19 840.54 2232.09 844.31 2232.09 844.31 2222.41 836.53 2222.41"/>
  </g>
  <g>
    <rect class="cls-1" x="823.43" y="128.09" width="55.18" height="55.18" rx="15.39" ry="15.39"/>
    <rect class="cls-16" x="827.81" y="132.47" width="46.42" height="46.42" rx="11.01" ry="11.01"/>
    <polygon class="cls-2" points="859.74 161.45 859.74 153.67 851.96 153.67 851.96 145.89 844.18 145.89 844.18 138.11 834.51 138.11 834.51 141.88 840.4 141.88 840.4 149.67 848.18 149.67 848.18 157.45 855.96 157.45 855.96 165.23 863.75 165.23 863.75 171.12 867.52 171.12 867.52 161.45 859.74 161.45"/>
  </g>
  <g>
    <rect class="cls-1" x="795.82" y="2380.23" width="55.18" height="55.18" rx="15.39" ry="15.39"/>
    <path class="cls-16" d="m811.21,2384.61h24.39c6.08,0,11.01,4.93,11.01,11.01v24.39c0,6.08-4.93,11.01-11.01,11.01h-24.39c-6.08,0-11.01-4.93-11.01-11.01v-24.39c0-6.08,4.93-11.01,11.01-11.01Z"/>
    <rect class="cls-7" x="811.91" y="2390.36" width="24" height="34.91"/>
    <rect class="cls-2" x="814.03" y="2392.48" width="19.77" height="30.74"/>
    <line class="cls-9" x1="823.91" y1="2392.48" x2="823.92" y2="2423.22"/>
    <g>
      <polyline class="cls-9" points="818.32 2401.4 818.32 2412.66 821.77 2409.21"/>
      <line class="cls-9" x1="818.32" y1="2412.66" x2="815.13" y2="2409.47"/>
    </g>
    <g>
      <polyline class="cls-9" points="829.07 2412.51 829.07 2401.56 832.43 2404.92"/>
      <line class="cls-9" x1="829.07" y1="2401.56" x2="825.97" y2="2404.66"/>
    </g>
  </g>
  <g>
    <rect class="cls-1" x="858.87" y="4883.48" width="55.18" height="55.18" rx="15.39" ry="15.39"/>
    <path class="cls-16" d="m874.26,4887.86h24.39c6.08,0,11.01,4.93,11.01,11.01v24.39c0,6.08-4.93,11.01-11.01,11.01h-24.39c-6.08,0-11.01-4.93-11.01-11.01v-24.39c0-6.08,4.93-11.01,11.01-11.01Z"/>
    <rect class="cls-7" x="874.96" y="4893.61" width="24" height="34.91"/>
    <rect class="cls-2" x="877.07" y="4895.73" width="19.77" height="30.74"/>
    <line class="cls-9" x1="886.96" y1="4895.73" x2="886.97" y2="4926.47"/>
    <g>
      <polyline class="cls-9" points="881.37 4904.65 881.37 4915.91 884.82 4912.46"/>
      <line class="cls-9" x1="881.37" y1="4915.91" x2="878.17" y2="4912.72"/>
    </g>
    <g>
      <polyline class="cls-9" points="892.12 4915.76 892.12 4904.8 895.48 4908.17"/>
      <line class="cls-9" x1="892.12" y1="4904.8" x2="889.01" y2="4907.91"/>
    </g>
  </g>
  <g>
    <rect class="cls-1" x="937.72" y="2380.26" width="55.18" height="55.18" rx="15.39" ry="15.39"/>
    <path class="cls-16" d="m953.11,2384.64h24.39c6.08,0,11.01,4.93,11.01,11.01v24.39c0,6.08-4.93,11.01-11.01,11.01h-24.39c-6.08,0-11.01-4.93-11.01-11.01v-24.39c0-6.08,4.93-11.01,11.01-11.01Z"/>
    <rect class="cls-7" x="953.82" y="2390.39" width="24" height="34.91"/>
    <rect class="cls-2" x="955.93" y="2392.51" width="19.77" height="30.74"/>
    <line class="cls-9" x1="965.81" y1="2392.51" x2="965.82" y2="2423.25"/>
    <g>
      <polyline class="cls-9" points="960.22 2401.43 960.22 2412.69 963.68 2409.23"/>
      <line class="cls-9" x1="960.22" y1="2412.69" x2="957.03" y2="2409.5"/>
    </g>
    <g>
      <polyline class="cls-9" points="970.97 2412.54 970.97 2401.58 974.33 2404.94"/>
      <line class="cls-9" x1="970.97" y1="2401.58" x2="967.87" y2="2404.69"/>
    </g>
  </g>
  <g>
    <g>
      <path class="cls-24" d="m786.53,2794.84v24.39c0,8.5-6.89,15.39-15.39,15.39h-24.41c-8.5,0-15.39-6.89-15.39-15.39v-24.39c0-8.5,6.89-15.41,15.39-15.41h24.41c8.5,0,15.39,6.91,15.39,15.41Z"/>
      <path class="cls-18" d="m746.74,2783.82h24.39c6.08,0,11.01,4.93,11.01,11.01v24.39c0,6.08-4.93,11.01-11.01,11.01h-24.39c-6.08,0-11.01-4.93-11.01-11.01v-24.39c0-6.08,4.93-11.01,11.01-11.01Z"/>
    </g>
    <g>
      <polygon class="cls-2" points="746.81 2792.44 746.81 2802.65 749.43 2802.65 749.43 2795.07 767.3 2795.07 761.58 2798.13 761.58 2816.14 767.3 2819.21 749.43 2819.21 749.43 2811.41 746.81 2811.41 746.81 2821.83 771.06 2821.83 771.06 2792.44 746.81 2792.44"/>
      <polygon class="cls-2" points="751.95 2812.91 759.73 2807.14 751.95 2801.37 751.95 2805.55 746.77 2805.55 746.77 2808.73 751.95 2808.73 751.95 2812.91"/>
    </g>
  </g>
  <g>
    <g>
      <path class="cls-24" d="m678.95,3069.76v24.39c0,8.5-6.89,15.39-15.39,15.39h-24.39c-.14,0-.27,0-.41-.02-8.32-.2-15-7-15-15.36v-24.39c0-8.36,6.68-15.16,15-15.36.14-.02.27-.02.41-.02h24.39c8.5,0,15.39,6.89,15.39,15.39Z"/>
      <path class="cls-18" d="m639.17,3058.74h24.39c6.08,0,11.01,4.93,11.01,11.01v24.39c0,6.08-4.93,11.01-11.01,11.01h-24.39c-6.08,0-11.01-4.93-11.01-11.01v-24.39c0-6.08,4.93-11.01,11.01-11.01Z"/>
    </g>
    <g>
      <polygon class="cls-2" points="639.24 3067.37 639.24 3077.58 641.87 3077.58 641.87 3069.99 659.73 3069.99 654.01 3073.06 654.01 3091.07 659.73 3094.14 641.87 3094.14 641.87 3086.33 639.24 3086.33 639.24 3096.76 663.49 3096.76 663.49 3067.37 639.24 3067.37"/>
      <polygon class="cls-2" points="644.38 3087.84 652.16 3082.07 644.38 3076.3 644.38 3080.47 639.2 3080.47 639.2 3083.66 644.38 3083.66 644.38 3087.84"/>
    </g>
  </g>
  <g>
    <g>
      <path class="cls-24" d="m783.37,3530.11v24.39c0,7.5-5.36,13.73-12.46,15.09-.95.2-1.95.3-2.95.3h-24.39c-8.5,0-15.39-6.89-15.39-15.39v-24.39c0-8.5,6.89-15.39,15.39-15.39h24.39c1,0,2,.09,2.95.3,7.09,1.36,12.46,7.59,12.46,15.09Z"/>
      <path class="cls-18" d="m743.57,3519.09h24.39c6.08,0,11.01,4.93,11.01,11.01v24.39c0,6.08-4.93,11.01-11.01,11.01h-24.39c-6.08,0-11.01-4.93-11.01-11.01v-24.39c0-6.08,4.93-11.01,11.01-11.01Z"/>
    </g>
    <g>
      <polygon class="cls-2" points="743.64 3527.72 743.64 3537.92 746.27 3537.92 746.27 3530.34 764.13 3530.34 758.41 3533.41 758.41 3551.42 764.13 3554.49 746.27 3554.49 746.27 3546.68 743.64 3546.68 743.64 3557.11 767.89 3557.11 767.89 3527.72 743.64 3527.72"/>
      <polygon class="cls-2" points="748.79 3548.18 756.57 3542.41 748.79 3536.64 748.79 3540.82 743.61 3540.82 743.61 3544.01 748.79 3544.01 748.79 3548.18"/>
    </g>
  </g>
  <g>
    <g>
      <path class="cls-24" d="m786.53,3823.91v24.39c0,8.52-6.89,15.41-15.39,15.41h-24.39c-.14,0-.27,0-.41-.02-8.32-.2-15-7-15-15.39v-24.39c0-8.36,6.68-15.16,15-15.36.14-.02.27-.02.41-.02h24.39c8.5,0,15.39,6.89,15.39,15.39Z"/>
      <path class="cls-18" d="m746.74,3812.9h24.39c6.08,0,11.01,4.93,11.01,11.01v24.39c0,6.08-4.93,11.01-11.01,11.01h-24.39c-6.08,0-11.01-4.93-11.01-11.01v-24.39c0-6.08,4.93-11.01,11.01-11.01Z"/>
    </g>
    <g>
      <polygon class="cls-2" points="746.82 3821.52 746.82 3831.73 749.44 3831.73 749.44 3824.15 767.3 3824.15 761.58 3827.21 761.58 3845.22 767.3 3848.29 749.44 3848.29 749.44 3840.49 746.82 3840.49 746.82 3850.91 771.06 3850.91 771.06 3821.52 746.82 3821.52"/>
      <polygon class="cls-2" points="751.96 3841.99 759.74 3836.22 751.96 3830.45 751.96 3834.63 746.78 3834.63 746.78 3837.81 751.96 3837.81 751.96 3841.99"/>
    </g>
  </g>
  <g>
    <g>
      <path class="cls-24" d="m786.53,4032.03v24.39c0,8.5-6.89,15.41-15.39,15.41h-24.41c-8.5,0-15.39-6.91-15.39-15.41v-24.39c0-8.5,6.89-15.39,15.39-15.39h24.41c8.5,0,15.39,6.89,15.39,15.39Z"/>
      <path class="cls-18" d="m746.74,4021.02h24.39c6.08,0,11.01,4.93,11.01,11.01v24.39c0,6.08-4.93,11.01-11.01,11.01h-24.39c-6.08,0-11.01-4.93-11.01-11.01v-24.39c0-6.08,4.93-11.01,11.01-11.01Z"/>
    </g>
    <g>
      <polygon class="cls-2" points="746.81 4029.64 746.81 4039.85 749.43 4039.85 749.43 4032.27 767.3 4032.27 761.58 4035.34 761.58 4053.34 767.3 4056.41 749.43 4056.41 749.43 4048.61 746.81 4048.61 746.81 4059.04 771.06 4059.04 771.06 4029.64 746.81 4029.64"/>
      <polygon class="cls-2" points="751.95 4050.11 759.73 4044.34 751.95 4038.57 751.95 4042.75 746.77 4042.75 746.77 4045.93 751.95 4045.93 751.95 4050.11"/>
    </g>
  </g>
  <g>
    <g>
      <path class="cls-24" d="m783.37,4638.7v24.39c0,7.5-5.36,13.73-12.46,15.09-.95.2-1.95.3-2.95.3h-24.39c-8.5,0-15.39-6.89-15.39-15.39v-24.39c0-8.5,6.89-15.41,15.39-15.41h24.39c1,0,2,.09,2.95.3,7.09,1.36,12.46,7.61,12.46,15.11Z"/>
      <path class="cls-18" d="m743.57,4627.68h24.39c6.08,0,11.01,4.93,11.01,11.01v24.39c0,6.08-4.93,11.01-11.01,11.01h-24.39c-6.08,0-11.01-4.93-11.01-11.01v-24.39c0-6.08,4.93-11.01,11.01-11.01Z"/>
    </g>
    <g>
      <polygon class="cls-2" points="743.64 4636.31 743.64 4646.51 746.27 4646.51 746.27 4638.93 764.13 4638.93 758.41 4642 758.41 4660.01 764.13 4663.07 746.27 4663.07 746.27 4655.27 743.64 4655.27 743.64 4665.7 767.89 4665.7 767.89 4636.31 743.64 4636.31"/>
      <polygon class="cls-2" points="748.79 4656.77 756.57 4651 748.79 4645.23 748.79 4649.41 743.61 4649.41 743.61 4652.59 748.79 4652.59 748.79 4656.77"/>
    </g>
  </g>
  <g>
    <g>
      <path class="cls-24" d="m787.75,2915.75v24.41c0,8.5-6.89,15.39-15.39,15.39h-24.39c-.34,0-.68-.02-1.02-.07-8.02-.5-14.36-7.16-14.36-15.32v-24.41c0-8.16,6.34-14.82,14.36-15.32.34-.05.68-.07,1.02-.07h24.39c8.5,0,15.39,6.89,15.39,15.39Z"/>
      <path class="cls-18" d="m747.97,2904.75h24.39c6.08,0,11.01,4.93,11.01,11.01v24.39c0,6.08-4.93,11.01-11.01,11.01h-24.39c-6.08,0-11.01-4.93-11.01-11.01v-24.39c0-6.08,4.93-11.01,11.01-11.01Z"/>
    </g>
    <g>
      <polygon class="cls-2" points="748.05 2913.37 748.05 2923.58 750.67 2923.58 750.67 2916 768.54 2916 762.81 2919.06 762.81 2937.07 768.54 2940.14 750.67 2940.14 750.67 2932.34 748.05 2932.34 748.05 2942.76 772.3 2942.76 772.3 2913.37 748.05 2913.37"/>
      <polygon class="cls-2" points="753.19 2933.84 760.97 2928.07 753.19 2922.3 753.19 2926.48 748.01 2926.48 748.01 2929.66 753.19 2929.66 753.19 2933.84"/>
    </g>
  </g>
  <g>
    <rect class="cls-1" x="950.68" y="4883.48" width="55.18" height="55.18" rx="15.39" ry="15.39"/>
    <path class="cls-16" d="m966.07,4887.86h24.39c6.08,0,11.01,4.93,11.01,11.01v24.39c0,6.08-4.93,11.01-11.01,11.01h-24.39c-6.08,0-11.01-4.93-11.01-11.01v-24.39c0-6.08,4.93-11.01,11.01-11.01Z"/>
    <rect class="cls-7" x="966.78" y="4893.61" width="24" height="34.91"/>
    <rect class="cls-2" x="968.89" y="4895.73" width="19.77" height="30.74"/>
    <line class="cls-9" x1="978.77" y1="4895.73" x2="978.78" y2="4926.47"/>
    <g>
      <polyline class="cls-9" points="973.18 4904.65 973.18 4915.91 976.64 4912.46"/>
      <line class="cls-9" x1="973.18" y1="4915.91" x2="969.99" y2="4912.72"/>
    </g>
    <g>
      <polyline class="cls-9" points="983.93 4915.76 983.93 4904.8 987.29 4908.17"/>
      <line class="cls-9" x1="983.93" y1="4904.8" x2="980.83" y2="4907.91"/>
    </g>
  </g>
  <g>
    <rect class="cls-1" x="1017.92" y="5050.12" width="55.18" height="55.18" rx="15.39" ry="15.39"/>
    <rect class="cls-16" x="1022.29" y="5054.5" width="46.42" height="46.42" rx="11.01" ry="11.01"/>
    <rect class="cls-7" x="1034.01" y="5060.26" width="24" height="34.91"/>
    <rect class="cls-2" x="1036.12" y="5062.38" width="19.77" height="30.74"/>
    <line class="cls-9" x1="1046.01" y1="5062.38" x2="1046.01" y2="5093.12"/>
    <g>
      <polyline class="cls-9" points="1040.42 5071.3 1040.42 5082.56 1043.87 5079.1"/>
      <line class="cls-9" x1="1040.42" y1="5082.56" x2="1037.22" y2="5079.36"/>
    </g>
    <g>
      <polyline class="cls-9" points="1051.17 5082.4 1051.17 5071.45 1054.53 5074.81"/>
      <line class="cls-9" x1="1051.17" y1="5071.45" x2="1048.06" y2="5074.55"/>
    </g>
  </g>
  <g>
    <rect class="cls-1" x="1017.92" y="5122.4" width="55.18" height="55.18" rx="15.39" ry="15.39"/>
    <path class="cls-16" d="m1033.31,5126.78h24.39c6.08,0,11.01,4.93,11.01,11.01v24.39c0,6.08-4.93,11.01-11.01,11.01h-24.39c-6.08,0-11.01-4.93-11.01-11.01v-24.39c0-6.08,4.93-11.01,11.01-11.01Z"/>
    <rect class="cls-7" x="1034.01" y="5132.53" width="24" height="34.91"/>
    <rect class="cls-2" x="1036.12" y="5134.65" width="19.77" height="30.74"/>
    <line class="cls-9" x1="1046.01" y1="5134.65" x2="1046.01" y2="5165.39"/>
    <g>
      <polyline class="cls-9" points="1040.42 5143.57 1040.42 5154.84 1043.87 5151.38"/>
      <line class="cls-9" x1="1040.42" y1="5154.84" x2="1037.22" y2="5151.64"/>
    </g>
    <g>
      <polyline class="cls-9" points="1051.17 5154.68 1051.17 5143.73 1054.53 5147.09"/>
      <line class="cls-9" x1="1051.17" y1="5143.73" x2="1048.06" y2="5146.83"/>
    </g>
  </g>
  <g>
    <rect class="cls-1" x="1018.31" y="5194.68" width="55.18" height="55.18" rx="15.39" ry="15.39"/>
    <path class="cls-16" d="m1033.7,5199.06h24.39c6.08,0,11.01,4.93,11.01,11.01v24.39c0,6.08-4.93,11.01-11.01,11.01h-24.39c-6.08,0-11.01-4.93-11.01-11.01v-24.39c0-6.08,4.93-11.01,11.01-11.01Z"/>
    <rect class="cls-7" x="1034.4" y="5204.81" width="24" height="34.91"/>
    <rect class="cls-2" x="1036.52" y="5206.93" width="19.77" height="30.74"/>
    <line class="cls-9" x1="1046.4" y1="5206.93" x2="1046.41" y2="5237.67"/>
    <g>
      <polyline class="cls-9" points="1040.81 5215.85 1040.81 5227.11 1044.27 5223.66"/>
      <line class="cls-9" x1="1040.81" y1="5227.11" x2="1037.62" y2="5223.92"/>
    </g>
    <g>
      <polyline class="cls-9" points="1051.56 5226.96 1051.56 5216.01 1054.92 5219.37"/>
      <line class="cls-9" x1="1051.56" y1="5216.01" x2="1048.46" y2="5219.11"/>
    </g>
  </g>
  <g>
    <rect class="cls-1" x="361.78" y="5471.38" width="55.18" height="55.18" rx="15.39" ry="15.39"/>
    <path class="cls-16" d="m377.17,5475.76h24.39c6.08,0,11.01,4.93,11.01,11.01v24.39c0,6.08-4.93,11.01-11.01,11.01h-24.39c-6.08,0-11.01-4.93-11.01-11.01v-24.39c0-6.08,4.93-11.01,11.01-11.01Z"/>
    <polygon class="cls-2" points="398.1 5504.74 398.1 5496.96 390.31 5496.96 390.31 5489.17 382.53 5489.17 382.53 5481.39 372.86 5481.39 372.86 5485.17 378.75 5485.17 378.75 5492.95 386.54 5492.95 386.54 5500.73 394.32 5500.73 394.32 5508.52 402.1 5508.52 402.1 5514.41 405.88 5514.41 405.88 5504.74 398.1 5504.74"/>
  </g>
  <g>
    <g>
      <rect class="cls-24" x="362.59" y="5288.26" width="55.18" height="55.18" rx="15.39" ry="15.39"/>
      <path class="cls-18" d="m377.99,5292.64h24.39c6.08,0,11.01,4.93,11.01,11.01v24.39c0,6.08-4.93,11.01-11.01,11.01h-24.39c-6.08,0-11.01-4.93-11.01-11.01v-24.39c0-6.08,4.93-11.01,11.01-11.01Z"/>
    </g>
    <g>
      <polygon class="cls-2" points="378.06 5301.26 378.06 5311.47 380.68 5311.47 380.68 5303.89 398.55 5303.89 392.83 5306.95 392.83 5324.96 398.55 5328.03 380.68 5328.03 380.68 5320.23 378.06 5320.23 378.06 5330.65 402.31 5330.65 402.31 5301.26 378.06 5301.26"/>
      <polygon class="cls-2" points="383.2 5321.73 390.98 5315.96 383.2 5310.19 383.2 5314.37 378.02 5314.37 378.02 5317.55 383.2 5317.55 383.2 5321.73"/>
    </g>
  </g>
  <g>
    <g>
      <rect class="cls-24" x="545.42" y="5206.83" width="55.18" height="55.18" rx="15.39" ry="15.39"/>
      <path class="cls-18" d="m560.81,5211.21h24.39c6.08,0,11.01,4.93,11.01,11.01v24.39c0,6.08-4.93,11.01-11.01,11.01h-24.39c-6.08,0-11.01-4.93-11.01-11.01v-24.39c0-6.08,4.93-11.01,11.01-11.01Z"/>
    </g>
    <g>
      <polygon class="cls-2" points="560.89 5219.83 560.89 5230.04 563.51 5230.04 563.51 5222.46 581.37 5222.46 575.65 5225.53 575.65 5243.53 581.37 5246.6 563.51 5246.6 563.51 5238.8 560.89 5238.8 560.89 5249.23 585.13 5249.23 585.13 5219.83 560.89 5219.83"/>
      <polygon class="cls-2" points="566.03 5240.3 573.81 5234.53 566.03 5228.76 566.03 5232.94 560.85 5232.94 560.85 5236.12 566.03 5236.12 566.03 5240.3"/>
    </g>
  </g>
  <g>
    <g>
      <path class="cls-24" d="m503.8,5627.09v24.41c0,1.73-.3,3.41-.84,4.95-2.05,6.07-7.8,10.43-14.57,10.43h-24.39c-6.77,0-12.5-4.36-14.57-10.43-.52-1.55-.82-3.23-.82-4.95v-24.41c0-1.73.3-3.41.82-4.95,0-.02.02-.02.02-.02,2.05-6.07,7.8-10.41,14.55-10.41h24.39c6.75,0,12.5,4.34,14.57,10.41,0,0,.02,0,0,.02.55,1.55.84,3.23.84,4.95Z"/>
      <path class="cls-18" d="m464.01,5616.08h24.39c6.08,0,11.01,4.93,11.01,11.01v24.39c0,6.08-4.93,11.01-11.01,11.01h-24.39c-6.08,0-11.01-4.93-11.01-11.01v-24.39c0-6.08,4.93-11.01,11.01-11.01Z"/>
    </g>
    <g>
      <polygon class="cls-2" points="464.08 5624.7 464.08 5634.91 466.7 5634.91 466.7 5627.33 484.57 5627.33 478.85 5630.39 478.85 5648.4 484.57 5651.47 466.7 5651.47 466.7 5643.67 464.08 5643.67 464.08 5654.09 488.33 5654.09 488.33 5624.7 464.08 5624.7"/>
      <polygon class="cls-2" points="469.22 5645.17 477 5639.4 469.22 5633.63 469.22 5637.81 464.04 5637.81 464.04 5640.99 469.22 5640.99 469.22 5645.17"/>
    </g>
  </g>
  <g>
    <g>
      <path class="cls-24" d="m1104.93,5627.18v24.39c0,1.7-.27,3.34-.8,4.89-2.02,6.11-7.8,10.52-14.59,10.52h-24.39c-6.8,0-12.57-4.41-14.59-10.52-.55-1.55-.82-3.18-.82-4.89v-24.39c0-1.77.3-3.48.86-5.05,0-.02.02-.02.02-.02,2.07-6.02,7.8-10.32,14.52-10.32h24.39c6.73,0,12.43,4.3,14.52,10.32v.02c.57,1.57.86,3.27.86,5.05Z"/>
      <path class="cls-18" d="m1065.15,5616.16h24.39c6.08,0,11.01,4.93,11.01,11.01v24.39c0,6.08-4.93,11.01-11.01,11.01h-24.39c-6.08,0-11.01-4.93-11.01-11.01v-24.39c0-6.08,4.93-11.01,11.01-11.01Z"/>
    </g>
    <g>
      <polygon class="cls-2" points="1065.22 5624.79 1065.22 5634.99 1067.85 5634.99 1067.85 5627.41 1085.71 5627.41 1079.99 5630.48 1079.99 5648.49 1085.71 5651.56 1067.85 5651.56 1067.85 5643.75 1065.22 5643.75 1065.22 5654.18 1089.47 5654.18 1089.47 5624.79 1065.22 5624.79"/>
      <polygon class="cls-2" points="1070.37 5645.26 1078.15 5639.48 1070.37 5633.71 1070.37 5637.89 1065.18 5637.89 1065.18 5641.08 1070.37 5641.08 1070.37 5645.26"/>
    </g>
  </g>
  <path class="cls-4" d="m3690.05,5473.51v520.21h-28.14c.11-172.51.23-345.48.36-518.03v-34.87l27.77,32.68Z"/>
  <g>
    <rect class="cls-1" x="3910.9" y="5282.73" width="55.18" height="55.18" rx="15.39" ry="15.39"/>
    <path class="cls-16" d="m3926.29,5287.11h24.39c6.08,0,11.01,4.93,11.01,11.01v24.39c0,6.08-4.93,11.01-11.01,11.01h-24.39c-6.08,0-11.01-4.93-11.01-11.01v-24.39c0-6.08,4.93-11.01,11.01-11.01Z"/>
    <polygon class="cls-2" points="3947.21 5316.09 3947.21 5308.31 3939.43 5308.31 3939.43 5300.53 3931.65 5300.53 3931.65 5292.75 3921.98 5292.75 3921.98 5296.53 3927.87 5296.53 3927.87 5304.31 3935.65 5304.31 3935.65 5312.09 3943.43 5312.09 3943.43 5319.87 3951.22 5319.87 3951.22 5325.76 3954.99 5325.76 3954.99 5316.09 3947.21 5316.09"/>
  </g>
  <g>
    <rect class="cls-11" x="1226.57" y="5283.41" width="55.95" height="55.95" rx="15.61" ry="15.61"/>
    <path class="cls-23" d="m1242.18,5339.37h24.74c4.31,0,8.21-1.75,11.04-4.57l-46.81-46.81c-2.82,2.82-4.57,6.73-4.57,11.04v24.74c0,8.62,6.99,15.61,15.61,15.61Z"/>
    <rect class="cls-19" x="1231.01" y="5287.85" width="47.07" height="47.07" rx="11.17" ry="11.17"/>
    <polygon class="cls-2" points="1239.96 5315.21 1241.76 5315.21 1241.76 5325.7 1245.53 5325.7 1245.53 5315.21 1247.33 5315.21 1249.37 5304.29 1237.92 5304.29 1239.96 5315.21"/>
    <circle class="cls-2" cx="1243.65" cy="5299.22" r="3.54" transform="translate(-306.12 81.31) rotate(-3.33)"/>
    <polygon class="cls-2" points="1269.13 5304.29 1261.77 5304.29 1259.72 5315.21 1263.56 5315.21 1263.56 5325.7 1267.34 5325.7 1267.34 5315.21 1271.17 5315.21 1269.13 5304.29"/>
    <circle class="cls-2" cx="1265.45" cy="5299.22" r="3.54" transform="translate(-829.47 269.87) rotate(-9.18)"/>
    <rect class="cls-2" x="1253.69" y="5291.81" width="1.71" height="39.15"/>
  </g>
  <g>
    <rect class="cls-11" x="1666.91" y="5283.41" width="55.95" height="55.95" rx="15.61" ry="15.61"/>
    <path class="cls-23" d="m1682.51,5339.37h24.74c4.31,0,8.21-1.75,11.04-4.57l-46.81-46.81c-2.82,2.82-4.57,6.73-4.57,11.04v24.74c0,8.62,6.99,15.61,15.61,15.61Z"/>
    <rect class="cls-19" x="1671.35" y="5287.85" width="47.07" height="47.07" rx="11.17" ry="11.17"/>
    <polygon class="cls-2" points="1680.3 5315.21 1682.09 5315.21 1682.09 5325.7 1685.87 5325.7 1685.87 5315.21 1687.66 5315.21 1689.71 5304.29 1678.26 5304.29 1680.3 5315.21"/>
    <circle class="cls-2" cx="1683.98" cy="5299.22" r="3.54" transform="translate(-305.38 106.92) rotate(-3.33)"/>
    <polygon class="cls-2" points="1709.47 5304.29 1702.1 5304.29 1700.06 5315.21 1703.9 5315.21 1703.9 5325.7 1707.67 5325.7 1707.67 5315.21 1711.51 5315.21 1709.47 5304.29"/>
    <circle class="cls-2" cx="1705.78" cy="5299.22" r="3.54" transform="translate(-823.83 340.14) rotate(-9.18)"/>
    <rect class="cls-2" x="1694.03" y="5291.81" width="1.71" height="39.15"/>
  </g>
  <g>
    <g>
      <path class="cls-24" d="m1337.71,5451.19v24.39c0,2.55-.61,4.95-1.73,7.07-2.55,4.95-7.71,8.32-13.66,8.32h-24.39c-5.98,0-11.14-3.36-13.68-8.32-1.11-2.11-1.73-4.52-1.73-7.07v-24.39c0-1.57.23-3.07.66-4.48,1.93-6.32,7.8-10.93,14.75-10.93h24.39c6.93,0,12.8,4.61,14.73,10.93.43,1.41.66,2.91.66,4.48Z"/>
      <path class="cls-18" d="m1297.92,5440.17h24.39c6.08,0,11.01,4.93,11.01,11.01v24.39c0,6.08-4.93,11.01-11.01,11.01h-24.39c-6.08,0-11.01-4.93-11.01-11.01v-24.39c0-6.08,4.93-11.01,11.01-11.01Z"/>
    </g>
    <g>
      <polygon class="cls-2" points="1298 5448.79 1298 5459 1300.62 5459 1300.62 5451.42 1318.48 5451.42 1312.76 5454.48 1312.76 5472.49 1318.48 5475.56 1300.62 5475.56 1300.62 5467.76 1298 5467.76 1298 5478.18 1322.24 5478.18 1322.24 5448.79 1298 5448.79"/>
      <polygon class="cls-2" points="1303.14 5469.26 1310.92 5463.49 1303.14 5457.72 1303.14 5461.9 1297.96 5461.9 1297.96 5465.08 1303.14 5465.08 1303.14 5469.26"/>
    </g>
  </g>
  <g>
    <g>
      <path class="cls-24" d="m1819.55,5445.3v24.39c0,2.55-.61,4.95-1.73,7.07-2.57,4.95-7.73,8.32-13.68,8.32h-24.39c-5.95,0-11.11-3.36-13.66-8.32-1.11-2.11-1.73-4.52-1.73-7.07v-24.39c0-1.57.23-3.07.66-4.48,1.93-6.32,7.8-10.93,14.73-10.93h24.39c6.93,0,12.82,4.61,14.73,10.93.45,1.41.68,2.91.68,4.48Z"/>
      <path class="cls-18" d="m1779.75,5434.28h24.39c6.08,0,11.01,4.93,11.01,11.01v24.39c0,6.08-4.93,11.01-11.01,11.01h-24.39c-6.08,0-11.01-4.93-11.01-11.01v-24.39c0-6.08,4.93-11.01,11.01-11.01Z"/>
    </g>
    <g>
      <polygon class="cls-2" points="1779.83 5442.9 1779.83 5453.11 1782.45 5453.11 1782.45 5445.53 1800.31 5445.53 1794.59 5448.6 1794.59 5466.6 1800.31 5469.67 1782.45 5469.67 1782.45 5461.87 1779.83 5461.87 1779.83 5472.3 1804.07 5472.3 1804.07 5442.9 1779.83 5442.9"/>
      <polygon class="cls-2" points="1784.97 5463.37 1792.75 5457.6 1784.97 5451.83 1784.97 5456.01 1779.79 5456.01 1779.79 5459.19 1784.97 5459.19 1784.97 5463.37"/>
    </g>
  </g>
  <g>
    <g>
      <path class="cls-24" d="m2082.61,5445.3v24.39c0,2.55-.61,4.95-1.73,7.07-2.55,4.95-7.71,8.32-13.66,8.32h-24.39c-5.95,0-11.11-3.36-13.66-8.32-1.11-2.11-1.73-4.52-1.73-7.07v-24.39c0-1.57.23-3.07.66-4.48,1.93-6.32,7.8-10.93,14.73-10.93h24.39c6.93,0,12.8,4.61,14.73,10.93.43,1.41.66,2.91.66,4.48Z"/>
      <path class="cls-18" d="m2042.83,5434.28h24.39c6.08,0,11.01,4.93,11.01,11.01v24.39c0,6.08-4.93,11.01-11.01,11.01h-24.39c-6.08,0-11.01-4.93-11.01-11.01v-24.39c0-6.08,4.93-11.01,11.01-11.01Z"/>
    </g>
    <g>
      <polygon class="cls-2" points="2042.91 5442.9 2042.91 5453.11 2045.53 5453.11 2045.53 5445.53 2063.39 5445.53 2057.67 5448.6 2057.67 5466.6 2063.39 5469.67 2045.53 5469.67 2045.53 5461.87 2042.91 5461.87 2042.91 5472.3 2067.15 5472.3 2067.15 5442.9 2042.91 5442.9"/>
      <polygon class="cls-2" points="2048.05 5463.37 2055.83 5457.6 2048.05 5451.83 2048.05 5456.01 2042.87 5456.01 2042.87 5459.19 2048.05 5459.19 2048.05 5463.37"/>
    </g>
  </g>
  <g>
    <g>
      <path class="cls-24" d="m2374.76,5445.3v24.39c0,2.55-.61,4.95-1.73,7.07-2.55,4.95-7.71,8.32-13.66,8.32h-24.39c-5.95,0-11.11-3.36-13.68-8.32-1.11-2.11-1.73-4.52-1.73-7.07v-24.39c0-1.57.23-3.07.68-4.48,1.91-6.32,7.8-10.93,14.73-10.93h24.39c6.93,0,12.8,4.61,14.73,10.93.43,1.41.66,2.91.66,4.48Z"/>
      <path class="cls-18" d="m2334.98,5434.28h24.39c6.08,0,11.01,4.93,11.01,11.01v24.39c0,6.08-4.93,11.01-11.01,11.01h-24.39c-6.08,0-11.01-4.93-11.01-11.01v-24.39c0-6.08,4.93-11.01,11.01-11.01Z"/>
    </g>
    <g>
      <polygon class="cls-2" points="2335.06 5442.9 2335.06 5453.11 2337.68 5453.11 2337.68 5445.53 2355.54 5445.53 2349.82 5448.6 2349.82 5466.6 2355.54 5469.67 2337.68 5469.67 2337.68 5461.87 2335.06 5461.87 2335.06 5472.3 2359.3 5472.3 2359.3 5442.9 2335.06 5442.9"/>
      <polygon class="cls-2" points="2340.2 5463.37 2347.98 5457.6 2340.2 5451.83 2340.2 5456.01 2335.02 5456.01 2335.02 5459.19 2340.2 5459.19 2340.2 5463.37"/>
    </g>
  </g>
  <g>
    <g>
      <path class="cls-24" d="m2933.71,5445.3v24.39c0,2.14-.43,4.16-1.2,6-2.34,5.52-7.82,9.39-14.18,9.39h-24.41c-6.36,0-11.84-3.86-14.18-9.39-.77-1.84-1.2-3.86-1.2-6v-24.39c0-1.57.23-3.07.66-4.48,1.93-6.32,7.8-10.93,14.73-10.93h24.41c6.93,0,12.8,4.61,14.73,10.93.43,1.41.66,2.91.66,4.48Z"/>
      <path class="cls-18" d="m2893.92,5434.28h24.39c6.08,0,11.01,4.93,11.01,11.01v24.39c0,6.08-4.93,11.01-11.01,11.01h-24.39c-6.08,0-11.01-4.93-11.01-11.01v-24.39c0-6.08,4.93-11.01,11.01-11.01Z"/>
    </g>
    <g>
      <polygon class="cls-2" points="2893.99 5442.9 2893.99 5453.11 2896.62 5453.11 2896.62 5445.53 2914.48 5445.53 2908.76 5448.6 2908.76 5466.6 2914.48 5469.67 2896.62 5469.67 2896.62 5461.87 2893.99 5461.87 2893.99 5472.3 2918.24 5472.3 2918.24 5442.9 2893.99 5442.9"/>
      <polygon class="cls-2" points="2899.13 5463.37 2906.91 5457.6 2899.13 5451.83 2899.13 5456.01 2893.95 5456.01 2893.95 5459.19 2899.13 5459.19 2899.13 5463.37"/>
    </g>
  </g>
  <g>
    <g>
      <path class="cls-24" d="m3525.45,5445.3v24.39c0,2.14-.43,4.16-1.2,6-2.34,5.52-7.82,9.39-14.18,9.39h-24.39c-6.36,0-11.84-3.86-14.21-9.39-.77-1.84-1.2-3.86-1.2-6v-24.39c0-1.57.23-3.07.68-4.48,1.91-6.32,7.8-10.93,14.73-10.93h24.39c6.93,0,12.8,4.61,14.73,10.93.43,1.41.66,2.91.66,4.48Z"/>
      <path class="cls-18" d="m3485.66,5434.28h24.39c6.08,0,11.01,4.93,11.01,11.01v24.39c0,6.08-4.93,11.01-11.01,11.01h-24.39c-6.08,0-11.01-4.93-11.01-11.01v-24.39c0-6.08,4.93-11.01,11.01-11.01Z"/>
    </g>
    <g>
      <polygon class="cls-2" points="3485.74 5442.9 3485.74 5453.11 3488.36 5453.11 3488.36 5445.53 3506.23 5445.53 3500.5 5448.6 3500.5 5466.6 3506.23 5469.67 3488.36 5469.67 3488.36 5461.87 3485.74 5461.87 3485.74 5472.3 3509.98 5472.3 3509.98 5442.9 3485.74 5442.9"/>
      <polygon class="cls-2" points="3490.88 5463.37 3498.66 5457.6 3490.88 5451.83 3490.88 5456.01 3485.7 5456.01 3485.7 5459.19 3490.88 5459.19 3490.88 5463.37"/>
    </g>
  </g>
  <g>
    <g>
      <rect class="cls-24" x="4071.25" y="5429.9" width="55.18" height="55.18" rx="15.39" ry="15.39"/>
      <path class="cls-18" d="m4086.64,5434.28h24.39c6.08,0,11.01,4.93,11.01,11.01v24.39c0,6.08-4.93,11.01-11.01,11.01h-24.39c-6.08,0-11.01-4.93-11.01-11.01v-24.39c0-6.08,4.93-11.01,11.01-11.01Z"/>
    </g>
    <g>
      <polygon class="cls-2" points="4086.72 5442.9 4086.72 5453.11 4089.34 5453.11 4089.34 5445.53 4107.2 5445.53 4101.48 5448.6 4101.48 5466.6 4107.2 5469.67 4089.34 5469.67 4089.34 5461.87 4086.72 5461.87 4086.72 5472.3 4110.96 5472.3 4110.96 5442.9 4086.72 5442.9"/>
      <polygon class="cls-2" points="4091.86 5463.37 4099.64 5457.6 4091.86 5451.83 4091.86 5456.01 4086.68 5456.01 4086.68 5459.19 4091.86 5459.19 4091.86 5463.37"/>
    </g>
  </g>
  <g>
    <g>
      <rect class="cls-24" x="4469.71" y="5429.9" width="55.18" height="55.18" rx="15.39" ry="15.39"/>
      <path class="cls-18" d="m4485.11,5434.28h24.39c6.08,0,11.01,4.93,11.01,11.01v24.39c0,6.08-4.93,11.01-11.01,11.01h-24.39c-6.08,0-11.01-4.93-11.01-11.01v-24.39c0-6.08,4.93-11.01,11.01-11.01Z"/>
    </g>
    <g>
      <polygon class="cls-2" points="4485.18 5442.9 4485.18 5453.11 4487.8 5453.11 4487.8 5445.53 4505.67 5445.53 4499.95 5448.6 4499.95 5466.6 4505.67 5469.67 4487.8 5469.67 4487.8 5461.87 4485.18 5461.87 4485.18 5472.3 4509.43 5472.3 4509.43 5442.9 4485.18 5442.9"/>
      <polygon class="cls-2" points="4490.32 5463.37 4498.1 5457.6 4490.32 5451.83 4490.32 5456.01 4485.14 5456.01 4485.14 5459.19 4490.32 5459.19 4490.32 5463.37"/>
    </g>
  </g>
  <g>
    <g>
      <rect class="cls-24" x="4638.49" y="5282.73" width="55.18" height="55.18" rx="15.39" ry="15.39"/>
      <path class="cls-18" d="m4653.88,5287.11h24.39c6.08,0,11.01,4.93,11.01,11.01v24.39c0,6.08-4.93,11.01-11.01,11.01h-24.39c-6.08,0-11.01-4.93-11.01-11.01v-24.39c0-6.08,4.93-11.01,11.01-11.01Z"/>
    </g>
    <g>
      <polygon class="cls-2" points="4653.96 5295.74 4653.96 5305.94 4656.58 5305.94 4656.58 5298.36 4674.45 5298.36 4668.72 5301.43 4668.72 5319.44 4674.45 5322.5 4656.58 5322.5 4656.58 5314.7 4653.96 5314.7 4653.96 5325.13 4678.2 5325.13 4678.2 5295.74 4653.96 5295.74"/>
      <polygon class="cls-2" points="4659.1 5316.2 4666.88 5310.43 4659.1 5304.66 4659.1 5308.84 4653.92 5308.84 4653.92 5312.02 4659.1 5312.02 4659.1 5316.2"/>
    </g>
  </g>
  <g>
    <g>
      <rect class="cls-24" x="4200.06" y="5284.02" width="55.18" height="55.18" rx="15.39" ry="15.39"/>
      <path class="cls-18" d="m4215.46,5288.4h24.39c6.08,0,11.01,4.93,11.01,11.01v24.39c0,6.08-4.93,11.01-11.01,11.01h-24.39c-6.08,0-11.01-4.93-11.01-11.01v-24.39c0-6.08,4.93-11.01,11.01-11.01Z"/>
    </g>
    <g>
      <polygon class="cls-2" points="4215.53 5297.03 4215.53 5307.23 4218.15 5307.23 4218.15 5299.65 4236.02 5299.65 4230.3 5302.72 4230.3 5320.73 4236.02 5323.79 4218.15 5323.79 4218.15 5315.99 4215.53 5315.99 4215.53 5326.42 4239.78 5326.42 4239.78 5297.03 4215.53 5297.03"/>
      <text/>
    </g>
  </g>
  <g>
    <g>
      <rect class="cls-24" x="3490.52" y="5281.48" width="55.18" height="55.18" rx="15.39" ry="15.39"/>
      <path class="cls-18" d="m3505.91,5285.86h24.39c6.08,0,11.01,4.93,11.01,11.01v24.39c0,6.08-4.93,11.01-11.01,11.01h-24.39c-6.08,0-11.01-4.93-11.01-11.01v-24.39c0-6.08,4.93-11.01,11.01-11.01Z"/>
    </g>
    <g>
      <polygon class="cls-2" points="3505.98 5294.49 3505.98 5304.69 3508.61 5304.69 3508.61 5297.11 3526.47 5297.11 3520.75 5300.18 3520.75 5318.19 3526.47 5321.26 3508.61 5321.26 3508.61 5313.45 3505.98 5313.45 3505.98 5323.88 3530.23 5323.88 3530.23 5294.49 3505.98 5294.49"/>
      <polygon class="cls-2" points="3511.12 5314.95 3518.9 5309.18 3511.12 5303.41 3511.12 5307.59 3505.94 5307.59 3505.94 5310.77 3511.12 5310.77 3511.12 5314.95"/>
    </g>
    <g>
      <g>
        <rect class="cls-24" x="1828.33" y="5281.48" width="55.18" height="55.18" rx="15.39" ry="15.39"/>
        <path class="cls-18" d="m1843.72,5285.86h24.39c6.08,0,11.01,4.93,11.01,11.01v24.39c0,6.08-4.93,11.01-11.01,11.01h-24.39c-6.08,0-11.01-4.93-11.01-11.01v-24.39c0-6.08,4.93-11.01,11.01-11.01Z"/>
      </g>
      <g>
        <polygon class="cls-2" points="1843.8 5294.49 1843.8 5304.69 1846.42 5304.69 1846.42 5297.11 1864.29 5297.11 1858.56 5300.18 1858.56 5318.19 1864.29 5321.26 1846.42 5321.26 1846.42 5313.45 1843.8 5313.45 1843.8 5323.88 1868.04 5323.88 1868.04 5294.49 1843.8 5294.49"/>
        <polygon class="cls-2" points="1848.94 5314.95 1856.72 5309.18 1848.94 5303.41 1848.94 5307.59 1843.76 5307.59 1843.76 5310.77 1848.94 5310.77 1848.94 5314.95"/>
      </g>
    </g>
  </g>
  <g>
    <g>
      <rect class="cls-24" x="2920.3" y="5283.8" width="55.18" height="55.18" rx="15.39" ry="15.39"/>
      <path class="cls-18" d="m2935.7,5288.18h24.39c6.08,0,11.01,4.93,11.01,11.01v24.39c0,6.08-4.93,11.01-11.01,11.01h-24.39c-6.08,0-11.01-4.93-11.01-11.01v-24.39c0-6.08,4.93-11.01,11.01-11.01Z"/>
    </g>
    <g>
      <polygon class="cls-2" points="2935.77 5296.8 2935.77 5307.01 2938.39 5307.01 2938.39 5299.43 2956.26 5299.43 2950.54 5302.5 2950.54 5320.5 2956.26 5323.57 2938.39 5323.57 2938.39 5315.77 2935.77 5315.77 2935.77 5326.2 2960.02 5326.2 2960.02 5296.8 2935.77 5296.8"/>
      <polygon class="cls-2" points="2940.91 5317.27 2948.69 5311.5 2940.91 5305.73 2940.91 5309.91 2935.73 5309.91 2935.73 5313.09 2940.91 5313.09 2940.91 5317.27"/>
    </g>
  </g>
  <g>
    <g>
      <rect class="cls-24" x="2769.31" y="5283.8" width="55.18" height="55.18" rx="15.39" ry="15.39"/>
      <path class="cls-18" d="m2784.7,5288.18h24.39c6.08,0,11.01,4.93,11.01,11.01v24.39c0,6.08-4.93,11.01-11.01,11.01h-24.39c-6.08,0-11.01-4.93-11.01-11.01v-24.39c0-6.08,4.93-11.01,11.01-11.01Z"/>
    </g>
    <g>
      <polygon class="cls-2" points="2784.77 5296.8 2784.77 5307.01 2787.4 5307.01 2787.4 5299.43 2805.26 5299.43 2799.54 5302.5 2799.54 5320.5 2805.26 5323.57 2787.4 5323.57 2787.4 5315.77 2784.77 5315.77 2784.77 5326.2 2809.02 5326.2 2809.02 5296.8 2784.77 5296.8"/>
      <polygon class="cls-2" points="2789.92 5317.27 2797.7 5311.5 2789.92 5305.73 2789.92 5309.91 2784.74 5309.91 2784.74 5313.09 2789.92 5313.09 2789.92 5317.27"/>
    </g>
  </g>
  <g>
    <g>
      <rect class="cls-24" x="2401.63" y="5283.8" width="55.18" height="55.18" rx="15.39" ry="15.39"/>
      <path class="cls-18" d="m2417.02,5288.18h24.39c6.08,0,11.01,4.93,11.01,11.01v24.39c0,6.08-4.93,11.01-11.01,11.01h-24.39c-6.08,0-11.01-4.93-11.01-11.01v-24.39c0-6.08,4.93-11.01,11.01-11.01Z"/>
    </g>
    <g>
      <polygon class="cls-2" points="2417.09 5296.8 2417.09 5307.01 2419.72 5307.01 2419.72 5299.43 2437.58 5299.43 2431.86 5302.5 2431.86 5320.5 2437.58 5323.57 2419.72 5323.57 2419.72 5315.77 2417.09 5315.77 2417.09 5326.2 2441.34 5326.2 2441.34 5296.8 2417.09 5296.8"/>
      <polygon class="cls-2" points="2422.24 5317.27 2430.02 5311.5 2422.24 5305.73 2422.24 5309.91 2417.06 5309.91 2417.06 5313.09 2422.24 5313.09 2422.24 5317.27"/>
    </g>
  </g>
  <g>
    <g>
      <rect class="cls-24" x="2027.44" y="5283.8" width="55.18" height="55.18" rx="15.39" ry="15.39"/>
      <path class="cls-18" d="m2042.83,5288.18h24.39c6.08,0,11.01,4.93,11.01,11.01v24.39c0,6.08-4.93,11.01-11.01,11.01h-24.39c-6.08,0-11.01-4.93-11.01-11.01v-24.39c0-6.08,4.93-11.01,11.01-11.01Z"/>
    </g>
    <g>
      <polygon class="cls-2" points="2042.9 5296.8 2042.9 5307.01 2045.53 5307.01 2045.53 5299.43 2063.39 5299.43 2057.67 5302.5 2057.67 5320.5 2063.39 5323.57 2045.53 5323.57 2045.53 5315.77 2042.9 5315.77 2042.9 5326.2 2067.15 5326.2 2067.15 5296.8 2042.9 5296.8"/>
      <polygon class="cls-2" points="2048.05 5317.27 2055.83 5311.5 2048.05 5305.73 2048.05 5309.91 2042.87 5309.91 2042.87 5313.09 2048.05 5313.09 2048.05 5317.27"/>
    </g>
  </g>
  <g>
    <g>
      <rect class="cls-24" x="2186.46" y="5283.8" width="55.18" height="55.18" rx="15.39" ry="15.39"/>
      <path class="cls-18" d="m2201.85,5288.18h24.39c6.08,0,11.01,4.93,11.01,11.01v24.39c0,6.08-4.93,11.01-11.01,11.01h-24.39c-6.08,0-11.01-4.93-11.01-11.01v-24.39c0-6.08,4.93-11.01,11.01-11.01Z"/>
    </g>
    <g>
      <polygon class="cls-2" points="2201.92 5296.8 2201.92 5307.01 2204.55 5307.01 2204.55 5299.43 2222.41 5299.43 2216.69 5302.5 2216.69 5320.5 2222.41 5323.57 2204.55 5323.57 2204.55 5315.77 2201.92 5315.77 2201.92 5326.2 2226.17 5326.2 2226.17 5296.8 2201.92 5296.8"/>
      <polygon class="cls-2" points="2207.07 5317.27 2214.85 5311.5 2207.07 5305.73 2207.07 5309.91 2201.89 5309.91 2201.89 5313.09 2207.07 5313.09 2207.07 5317.27"/>
    </g>
  </g>
  <text class="cls-14" transform="translate(129.61 5218.41)"><tspan x="0" y="0">400а</tspan></text>
  <text class="cls-14" transform="translate(477.33 5134.65)"><tspan x="0" y="0">400</tspan></text>
  <text class="cls-14" transform="translate(466.63 4691.04)"><tspan x="0" y="0">492</tspan></text>
  <text class="cls-14" transform="translate(462.67 4237.18)"><tspan x="0" y="0">490</tspan></text>
  <text class="cls-14" transform="translate(465.51 4029.64)"><tspan x="0" y="0">488а</tspan></text>
  <text class="cls-14" transform="translate(466.63 3600.25)"><tspan x="0" y="0">486</tspan></text>
  <text class="cls-14" transform="translate(467.75 3221.43)"><tspan x="0" y="0">484</tspan></text>
  <text class="cls-14" transform="translate(467.75 2956.63)"><tspan x="0" y="0">482</tspan></text>
  <text class="cls-14" transform="translate(468.88 2691.33)"><tspan x="0" y="0">480</tspan></text>
  <text class="cls-14" transform="translate(470 2320.71)"><tspan x="0" y="0">478</tspan></text>
  <text class="cls-14" transform="translate(468.88 2013.1)"><tspan x="0" y="0">476</tspan></text>
  <text class="cls-14" transform="translate(465.51 1684.95)"><tspan x="0" y="0">474</tspan></text>
  <text class="cls-14" transform="translate(476.21 1422.98)"><tspan x="0" y="0">472</tspan></text>
  <text class="cls-14" transform="translate(466.63 1065.74)"><tspan x="0" y="0">470</tspan></text>
  <text class="cls-14" transform="translate(477.33 622.66)"><tspan x="0" y="0">468</tspan></text>
  <text class="cls-14" transform="translate(476.21 255.49)"><tspan x="0" y="0">466</tspan></text>
  <text class="cls-14" transform="translate(918.78 4623.29)"><tspan x="0" y="0">481</tspan></text>
  <text class="cls-14" transform="translate(920.5 4193.17)"><tspan x="0" y="0">479</tspan></text>
  <text class="cls-14" transform="translate(916.74 3778.17)"><tspan x="0" y="0">477</tspan></text>
  <text class="cls-14" transform="translate(906.17 3305.24)"><tspan x="0" y="0">475</tspan></text>
  <text class="cls-14" transform="translate(916.74 2869.1)"><tspan x="0" y="0">473</tspan></text>
  <text class="cls-14" transform="translate(922.22 2617.61)"><tspan x="0" y="0">471</tspan></text>
  <text class="cls-14" transform="translate(918.78 1946.09)"><tspan x="0" y="0">469</tspan></text>
  <text class="cls-14" transform="translate(918.46 1725.72)"><tspan x="0" y="0">467</tspan></text>
  <text class="cls-14" transform="translate(920.5 1466.98)"><tspan x="0" y="0">465</tspan></text>
  <text class="cls-14" transform="translate(918.78 1225.8)"><tspan x="0" y="0">463</tspan></text>
  <text class="cls-14" transform="translate(921.62 999.5)"><tspan x="0" y="0">461</tspan></text>
  <text class="cls-14" transform="translate(920.5 740.62) scale(.92 1)"><tspan x="0" y="0">459</tspan></text>
  <text class="cls-13" transform="translate(1472.3 5796.32) rotate(-90)"><tspan x="0" y="0">538</tspan></text>
  <text class="cls-13" transform="translate(1891.66 5220.73) rotate(-90)"><tspan x="0" y="0">523</tspan></text>
  <text class="cls-13" transform="translate(2545.74 5220.73) rotate(-90)"><tspan x="0" y="0">529</tspan></text>
  <text class="cls-13" transform="translate(2243.04 5220.73) rotate(-90)"><tspan x="0" y="0">527</tspan></text>
  <text id="_531а" data-name="531а" class="cls-13" transform="translate(2830.79 5241.21) rotate(-90)"><tspan x="0" y="0">431а</tspan></text>
  <text id="_531" data-name="531" class="cls-13" transform="translate(2998.29 5220.73) rotate(-90)"><tspan x="0" y="0">431</tspan></text>
  <text id="_533" data-name="533" class="cls-13" transform="translate(3386.22 5220.73) rotate(-90)"><tspan x="0" y="0">433</tspan></text>
  <text id="_535" data-name="535" class="cls-13" transform="translate(4187.43 5220.73) rotate(-90)"><tspan x="0" y="0">435</tspan></text>
  <text id="_537" data-name="537" class="cls-13" transform="translate(4535.8 5220.73) rotate(-90)"><tspan x="0" y="0">437</tspan></text>
  <text class="cls-13" transform="translate(1883.07 5796.32) rotate(-90)"><tspan x="0" y="0">540</tspan></text>
  <text id="_542" data-name="542" class="cls-13" transform="translate(2157.59 5796.32) rotate(-90)"><tspan x="0" y="0">542</tspan></text>
  <text id="_544" data-name="544" class="cls-13" transform="translate(2506.98 5796.32) rotate(-90)"><tspan x="0" y="0">544</tspan></text>
  <text id="_546" data-name="546" class="cls-13" transform="translate(2960.5 5796.32) rotate(-90)"><tspan x="0" y="0">546</tspan></text>
  <text id="_548" data-name="548" class="cls-13" transform="translate(3391.61 5796.32) rotate(-90)"><tspan x="0" y="0">548</tspan></text>
  <text id="_550" data-name="550" class="cls-13" transform="translate(4226.63 5796.32) rotate(-90)"><tspan x="0" y="0">550</tspan></text>
  <text id="_552" data-name="552" class="cls-13" transform="translate(4555.88 5796.32) rotate(-90)"><tspan x="0" y="0">552</tspan></text>
  <line class="cls-3" x1="2" y1="5008.78" x2="25.47" y2="5040.77"/>
  <g>
    <polygon class="cls-4" points="399.66 5656.45 399.66 6235.51 376.18 6210.71 376.18 5622.13 376.21 5622.13 399.66 5656.45"/>
    <line class="cls-3" x1="399.66" y1="5656.45" x2="376.19" y2="5622.12"/>
  </g>
  <polygon class="cls-4" points="545.42 5656.45 545.42 6235.51 521.94 6235.51 521.94 5622.13 521.96 5622.13 545.42 5656.45"/>
  <line class="cls-3" x1="545.42" y1="5656.45" x2="521.96" y2="5622.12"/>
  <polyline class="cls-4" points="1170.23 6235.51 545.42 6235.51 521.94 6235.51 399.66 6235.51 387.93 6223.12 386.91 6222.05 376.18 6210.71 386.91 6210.71 399.66 6210.71 521.94 6210.71 545.42 6210.71 1170.23 6210.71"/>
  <line class="cls-3" x1="1170.24" y1="5293.43" x2="1196.11" y2="5293.43"/>
  <polyline class="cls-4" points="1170.23 6210.71 1170.23 5993.13 1183.17 6009.63 1197.19 6027.52 1197.19 6235.51 1170.23 6235.51"/>
  <text class="cls-13" transform="translate(489.35 5993.72) rotate(-90)"><tspan x="0" y="0">430</tspan></text>
  <text class="cls-15" transform="translate(676.84 5964.98)"><tspan x="0" y="0">532(532)</tspan></text>
  <path class="cls-3" d="m403.67,5224.1l.65-217.49V113.53h-.23l-13.91-16.06-13.5-15.58c0,52.69-1.05,4479.59-.73,4926.89l.25,31.97"/>
  <path class="cls-3" d="m376.68,81.89v-.48l.16.18,27.48,31.73v.2"/>
  <polygon class="cls-4" points="376.19 5397.97 376.43 5372.59 2 5372.59 25.47 5397.97 376.19 5397.97"/>
  <polygon class="cls-4" points="640.01 4495.19 403.7 4495.19 376.29 4474.75 376.06 4474.57 376.04 4474.56 376.45 4474.56 639.99 4474.74 640.01 4495.19"/>
  <polygon class="cls-4" points="640.02 3879.5 403.71 3879.5 376.3 3859.05 376.07 3858.88 376.05 3858.86 376.45 3858.86 639.99 3859.04 640.02 3879.5"/>
  <polygon class="cls-4" points="640.01 3525.04 403.7 3525.04 376.29 3504.6 376.06 3504.42 376.04 3504.41 376.45 3504.41 639.99 3504.59 640.01 3525.04"/>
  <polygon class="cls-4" points="640.02 3636.69 403.71 3636.69 376.3 3616.24 376.07 3616.07 376.05 3616.05 376.45 3616.05 639.99 3616.23 640.02 3636.69"/>
  <polygon class="cls-4" points="640.01 3115.48 403.7 3115.48 376.29 3095.04 376.06 3094.86 376.04 3094.85 376.45 3094.85 639.99 3095.03 640.01 3115.48"/>
  <polygon class="cls-4" points="640.02 2858.71 403.71 2858.71 376.3 2838.27 376.07 2838.09 376.05 2838.07 376.45 2838.07 639.99 2838.26 640.02 2858.71"/>
  <polygon class="cls-4" points="640.02 2516.89 403.71 2516.89 376.3 2496.45 376.07 2496.27 376.05 2496.26 376.45 2496.26 639.99 2496.44 640.02 2516.89"/>
  <polygon class="cls-4" points="640.02 2702.44 403.71 2702.44 376.3 2682 376.07 2681.82 376.05 2681.81 376.45 2681.81 639.99 2681.99 640.02 2702.44"/>
  <polygon class="cls-4" points="640.02 2214.18 403.71 2214.18 376.3 2193.74 376.07 2193.56 376.05 2193.55 376.45 2193.55 639.99 2193.73 640.02 2214.18"/>
  <polygon class="cls-4" points="640.01 2423.01 403.7 2423.01 376.29 2402.56 376.06 2402.39 376.04 2402.37 376.45 2402.37 639.99 2402.55 640.01 2423.01"/>
  <polygon class="cls-4" points="640.01 1826.82 403.7 1826.82 376.29 1806.38 376.06 1806.2 376.04 1806.19 376.45 1806.19 639.99 1806.37 640.01 1826.82"/>
  <polygon class="cls-4" points="640.01 1952.03 403.7 1952.03 376.29 1931.59 376.06 1931.41 376.04 1931.4 376.45 1931.4 639.99 1931.58 640.01 1952.03"/>
  <polygon class="cls-4" points="640.02 1574.66 403.71 1574.66 376.3 1554.22 376.07 1554.04 376.05 1554.02 376.45 1554.02 639.99 1554.21 640.02 1574.66"/>
  <polygon class="cls-4" points="640.02 1192.11 403.71 1192.11 376.3 1171.66 376.07 1171.48 376.05 1171.47 376.45 1171.47 639.99 1171.65 640.02 1192.11"/>
  <polygon class="cls-4" points="640.02 866.22 403.71 866.22 376.3 845.78 376.07 845.6 376.05 845.59 376.45 845.59 639.99 845.77 640.02 866.22"/>
  <polygon class="cls-4" points="640.02 375.82 403.71 375.82 376.3 355.38 376.07 355.2 376.05 355.19 376.45 355.19 639.99 355.37 640.02 375.82"/>
  <path class="cls-3" d="m4723.75,5006.61l-3527.59-.14c.64-5.39,0-4892.95,0-4892.95"/>
  <polygon class="cls-4" points="1484.3 5293.43 1484.3 5040.82 1460.3 5006.61 1460.3 5040.82 1460.3 5293.43 1484.3 5293.43"/>
  <polygon class="cls-4" points="1776.36 5293.43 1776.36 5040.82 1752.36 5006.62 1752.36 5040.82 1752.36 5293.43 1776.36 5293.43"/>
  <polygon class="cls-4" points="2019.25 5293.43 2019.25 5040.82 1995.25 5006.61 1995.25 5040.82 1995.25 5293.43 2019.25 5293.43"/>
  <line class="cls-3" x1="1170.23" y1="5656.45" x2="1170.23" y2="5993.13"/>
  <polygon class="cls-4" points="1170.19 2496.34 1170.19 2516.81 770.91 2516.81 747.08 2496.34 1170.19 2496.34"/>
  <path class="cls-4" d="m4015.73,5473.8l.02,519.92h-28.18c.11-172.51.25-345.18.39-517.74l-.39-34.87,28.16,32.68Z"/>
  <polygon class="cls-4" points="1170.13 2035.67 1170.13 2056.13 770.85 2056.13 747.02 2035.67 1170.13 2035.67"/>
  <polygon class="cls-4" points="1170.19 2857.26 1170.19 2877.72 770.91 2877.72 747.08 2857.26 1170.19 2857.26"/>
  <polygon class="cls-4" points="1168.58 3071.83 1168.58 3092.3 769.3 3092.3 745.47 3071.83 1168.58 3071.83"/>
  <polygon class="cls-4" points="1170.13 3578.99 1170.13 3599.46 770.85 3599.46 747.02 3578.99 1170.13 3578.99"/>
  <polygon class="cls-4" points="1170.13 3917.9 1170.13 3938.36 770.85 3938.36 747.02 3917.9 1170.13 3917.9"/>
  <polygon class="cls-4" points="1170.13 4418.67 1170.13 4439.14 770.85 4439.14 747.02 4418.67 1170.13 4418.67"/>
  <polygon class="cls-4" points="1170.13 1562.15 1170.13 1582.61 770.85 1582.61 747.02 1562.15 1170.13 1562.15"/>
  <polygon class="cls-4" points="1170.13 1303.35 1170.13 1323.81 770.84 1323.81 747.02 1303.35 1170.13 1303.35"/>
  <polygon class="cls-4" points="1170.13 1090.45 1170.13 1110.92 770.84 1110.92 747.02 1090.45 1170.13 1090.45"/>
  <polygon class="cls-4" points="1170.13 835.35 1170.13 855.82 770.84 855.82 747.02 835.36 1170.13 835.35"/>
  <polygon class="cls-4" points="1170.13 583.78 1170.13 604.24 770.84 604.24 747.02 583.78 1170.13 583.78"/>
  <polygon class="cls-4" points="1170.13 395.39 1170.13 415.85 770.84 415.85 747.02 395.39 1170.13 395.39"/>
  <line class="cls-3" x1="770.85" y1="2056.13" x2="770.91" y2="2206.41"/>
  <polygon class="cls-4" points="640.01 4906.05 403.7 4906.05 376.29 4885.6 376.06 4885.43 376.04 4885.41 376.45 4885.41 639.99 4885.59 640.01 4906.05"/>
  <polygon class="cls-4" points="640.01 4992.8 403.7 4992.8 376.29 4972.35 376.06 4972.18 376.04 4972.16 376.45 4972.16 639.99 4972.34 640.01 4992.8"/>
  <g>
    <path class="cls-20" d="m95.73,2217.5c-.13-1.22-.71-2.23-1.74-3.04-2.86-3.13-5.8-6.19-8.83-9.17-2.98-3.02-6.04-5.97-9.17-8.83-.81-1.03-1.82-1.61-3.04-1.74.13,1.22.71,2.23,1.74,3.04,2.86,3.13,5.8,6.19,8.83,9.17,2.98,3.02,6.04,5.97,9.17,8.83.81,1.03,1.82,1.61,3.04,1.74Z"/>
    <path class="cls-20" d="m93.79,2227.08c-.68-1.85-1.81-3.41-3.39-4.7-4.94-5.22-9.97-10.37-15.07-15.44-5.06-5.11-10.2-10.14-15.42-15.09-1.28-1.58-2.85-2.71-4.69-3.4.68,1.85,1.81,3.41,3.39,4.7,4.94,5.22,9.97,10.37,15.07,15.44,5.06,5.11,10.2,10.14,15.42,15.09,1.28,1.58,2.85,2.71,4.69,3.4Z"/>
    <path class="cls-20" d="m92.98,2213.58c.06-.96-.31-1.77-1.13-2.42-2.09-2.37-4.27-4.65-6.52-6.86-2.21-2.26-4.5-4.43-6.87-6.52-.66-.81-1.47-1.19-2.42-1.12-.06.96.31,1.77,1.13,2.42,2.09,2.37,4.27,4.65,6.52,6.86,2.21,2.26,4.5,4.43,6.87,6.52.66.81,1.47,1.19,2.42,1.12Z"/>
    <path class="cls-20" d="m90.85,2218.94c-.16-1.26-.78-2.31-1.85-3.15-3.01-3.28-6.09-6.49-9.26-9.61-3.12-3.17-6.32-6.26-9.61-9.27-.84-1.07-1.89-1.69-3.15-1.85.16,1.26.78,2.31,1.85,3.15,3.01,3.28,6.09,6.49,9.26,9.61,3.12,3.17,6.32,6.26,9.61,9.27.84,1.07,1.89,1.69,3.15,1.85Z"/>
    <path class="cls-20" d="m92.46,2211.62c.72.21.97-.05.76-.76-.7-1.37-1.63-2.57-2.8-3.59-2-2.11-4.05-4.16-6.16-6.15-1.03-1.17-2.22-2.1-3.59-2.8-.72-.21-.97.05-.76.76.7,1.37,1.63,2.57,2.8,3.59,2,2.11,4.05,4.16,6.16,6.15,1.03,1.17,2.22,2.1,3.59,2.8Z"/>
    <path class="cls-20" d="m91.51,2223.05c-.47-1.61-1.38-2.96-2.75-4.06-4.14-4.42-8.36-8.76-12.66-13.02-4.26-4.31-8.59-8.53-13.01-12.68-1.09-1.37-2.44-2.29-4.05-2.76.47,1.61,1.38,2.96,2.75,4.06,4.14,4.42,8.36,8.76,12.66,13.02,4.26,4.31,8.59,8.53,13.01,12.68,1.09,1.37,2.44,2.29,4.05,2.76Z"/>
    <path class="cls-20" d="m95.88,2210.22c2.28,0-1.08-3.39-1.18-3.5-1.45-1.56-2.95-3.06-4.51-4.51-.76-.89-1.67-1.54-2.74-1.94-2.28,0,1.08,3.39,1.18,3.5,1.45,1.56,2.95,3.06,4.51,4.51.76.89,1.67,1.54,2.74,1.94Z"/>
    <path class="cls-20" d="m96.4,2212.98c.13-.85-.16-1.58-.88-2.18-1.79-2.06-3.65-4.04-5.6-5.94-1.91-1.95-3.89-3.81-5.95-5.6-.6-.72-1.33-1.01-2.18-.88-.13.85.16,1.58.88,2.18,1.79,2.06,3.65,4.04,5.6,5.94,1.91,1.95,3.89,3.81,5.95,5.6.6.72,1.33,1.01,2.18.88Z"/>
    <path class="cls-20" d="m91.26,2215.96c-.02-1.08-.48-1.97-1.4-2.69-2.43-2.71-4.95-5.34-7.54-7.89-2.55-2.6-5.18-5.11-7.89-7.54-.72-.91-1.62-1.38-2.69-1.4.02,1.08.48,1.97,1.4,2.69,2.43,2.71,4.95,5.34,7.54,7.89,2.55,2.6,5.18,5.11,7.89,7.54.72.91,1.62,1.38,2.69,1.4Z"/>
  </g>
  <text/>
  <text/>
</svg>
